<?xml version="1.0" encoding="utf-8"?>
<!-- Generator: Adobe Illustrator 27.3.1, SVG Export Plug-In . SVG Version: 6.00 Build 0)  -->
<svg version="1.1" id="Layer_1" xmlns="http://www.w3.org/2000/svg" xmlns:xlink="http://www.w3.org/1999/xlink" x="0px" y="0px"
	 viewBox="0 0 512 512" style="enable-background:new 0 0 512 512;" xml:space="preserve">
<style type="text/css">
	.st0{fill:#F5821F;}
</style>
<g>
	<path class="st0" d="M179.52,332.16c-24.85,19.52-40.85,49.81-40.85,83.84v32h-64c-17.71,0-32-14.29-32-32v-21.33
		c0-41.28,33.39-74.67,74.67-74.67h21.33C153.81,320,167.79,324.48,179.52,332.16z"/>
	<circle class="st0" cx="384" cy="272" r="48"/>
	<circle class="st0" cx="128" cy="272" r="48"/>
	<path class="st0" d="M469.33,394.67V416c0,17.71-14.29,32-32,32h-64v-32c0-34.03-16-64.32-40.85-83.84
		c11.73-7.68,25.71-12.16,40.85-12.16h21.33C435.95,320,469.33,353.39,469.33,394.67z"/>
	<circle class="st0" cx="256" cy="272" r="58.67"/>
	<path class="st0" d="M266.67,330.67h-21.33c-47.05,0-85.33,38.28-85.33,85.33v32c0,17.64,14.36,32,32,32h128
		c17.64,0,32-14.36,32-32v-32C352,368.95,313.72,330.67,266.67,330.67z"/>
	<path class="st0" d="M410.67,177.96l-25.74,9.15c-7.31,2.59-14.93-2.94-14.72-10.7l0.75-27.31l-16.66-21.65
		c-4.73-6.14-1.81-15.11,5.62-17.31l26.21-7.72l15.45-22.54c4.38-6.39,13.81-6.39,18.2,0l15.45,22.54l26.21,7.72
		c7.43,2.19,10.35,11.17,5.62,17.31l-16.66,21.65l0.75,27.31c0.21,7.74-7.42,13.29-14.72,10.7L410.67,177.96z"/>
	<path class="st0" d="M101.33,177.96l-25.74,9.15c-7.31,2.59-14.93-2.94-14.72-10.7l0.75-27.31l-16.66-21.65
		c-4.73-6.14-1.81-15.11,5.62-17.31l26.21-7.72l15.45-22.54c4.38-6.39,13.81-6.39,18.2,0l15.45,22.54l26.21,7.72
		c7.43,2.19,10.35,11.17,5.62,17.31l-16.66,21.65l0.75,27.31c0.21,7.74-7.42,13.29-14.72,10.7L101.33,177.96z"/>
	<path class="st0" d="M256,153.96l-30.52,10.85c-8.66,3.08-17.71-3.5-17.45-12.68l0.89-32.37l-19.75-25.67
		c-5.6-7.29-2.14-17.92,6.67-20.52l31.07-9.16l18.31-26.72c5.19-7.58,16.38-7.58,21.58,0l18.31,26.72l31.07,9.16
		c8.81,2.6,12.27,13.24,6.67,20.52l-19.75,25.67l0.89,32.37c0.26,9.18-8.8,15.77-17.45,12.68l-30.52-10.85L256,153.96z"/>
</g>
</svg>
