<?xml version="1.0" encoding="utf-8"?>
<!-- Generator: Adobe Illustrator 27.3.1, SVG Export Plug-In . SVG Version: 6.00 Build 0)  -->
<svg version="1.1" id="Layer_1" xmlns="http://www.w3.org/2000/svg" xmlns:xlink="http://www.w3.org/1999/xlink" x="0px" y="0px"
	 viewBox="0 0 512 512" style="enable-background:new 0 0 512 512;" xml:space="preserve">
<style type="text/css">
	.st0{fill:#F5821F;}
</style>
<g>
	<g>
		<path class="st0" d="M459.2,220h-33.6c-4.8,0-8-4-8-8s4-8,8-8h33.6c4.8,0,8,4,8,8S464,220,459.2,220z"/>
	</g>
	<g>
		<path class="st0" d="M403.2,135.2c-3.2,0-5.6-1.6-7.2-4c-2.4-4-0.8-8.8,3.2-11.2l28.8-16.8c4-2.4,8.8-0.8,11.2,3.2
			s0.8,8.8-3.2,11.2l-28.8,16.8C406.4,134.4,404.8,135.2,403.2,135.2z"/>
	</g>
	<g>
		<path class="st0" d="M340.8,72.8c-1.6,0-3.2,0-4-0.8c-4-2.4-5.6-7.2-3.2-11.2L350.4,32c2.4-4,7.2-5.6,11.2-3.2s5.6,7.2,3.2,11.2
			L348,68.8C346.4,71.2,344,72.8,340.8,72.8z"/>
	</g>
	<g>
		<path class="st0" d="M256,49.6c-4.8,0-8-4-8-8V8c0-4.8,4-8,8-8s8,4,8,8v33.6C264,46.4,260.8,49.6,256,49.6z"/>
	</g>
	<g>
		<path class="st0" d="M171.2,72.8c-3.2,0-5.6-1.6-7.2-4L147.2,40c-2.4-4-0.8-8.8,3.2-11.2s8.8-0.8,11.2,3.2l16.8,28.8
			c2.4,4,0.8,8.8-3.2,11.2C173.6,72,172.8,72.8,171.2,72.8z"/>
	</g>
	<g>
		<path class="st0" d="M108.8,135.2c-1.6,0-3.2,0-4-0.8L76,117.6c-4-2.4-5.6-7.2-3.2-11.2s7.2-5.6,11.2-3.2l28.8,16.8
			c4,2.4,5.6,7.2,3.2,11.2C114.4,133.6,112,135.2,108.8,135.2z"/>
	</g>
	<g>
		<path class="st0" d="M86.4,220H52.8c-4.8,0-8-4-8-8s4-8,8-8h33.6c4.8,0,8,4,8,8S90.4,220,86.4,220z"/>
	</g>
	<g>
		<path class="st0" d="M80,321.6c-3.2,0-5.6-1.6-7.2-4c-2.4-4-0.8-8.8,3.2-11.2l28.8-16.8c4-2.4,8.8-0.8,11.2,3.2s0.8,8.8-3.2,11.2
			L84,320C82.4,320.8,81.6,321.6,80,321.6L80,321.6z"/>
	</g>
	<g>
		<path class="st0" d="M151.2,401.6c-1.6,0-3.2,0-4-0.8c-4-2.4-5.6-7.2-3.2-11.2l13.6-24c2.4-4,7.2-5.6,11.2-3.2s5.6,7.2,3.2,11.2
			l-13.6,24C156.8,400,153.6,401.6,151.2,401.6z"/>
	</g>
	<g>
		<path class="st0" d="M360.8,401.6c-3.2,0-5.6-1.6-7.2-4l-13.6-24c-2.4-4-0.8-8.8,3.2-11.2s8.8-0.8,11.2,3.2l13.6,24
			c2.4,4,0.8,8.8-3.2,11.2C364,400.8,362.4,401.6,360.8,401.6z"/>
	</g>
	<g>
		<path class="st0" d="M432,321.6c-1.6,0-3.2,0-4-0.8L399.2,304c-4-2.4-5.6-7.2-3.2-11.2s7.2-5.6,11.2-3.2l28.8,16.8
			c4,2.4,5.6,7.2,3.2,11.2C437.6,320,435.2,321.6,432,321.6z"/>
	</g>
	<g>
		<g>
			<path class="st0" d="M256,83.2c-71.2,0-128.8,57.6-128.8,128.8c0,34.4,13.6,67.2,38.4,92c19.2,19.2,32.8,68,40.8,97.6h3.2h93.6
				h3.2c8-29.6,20.8-79.2,40.8-97.6c24.8-24,38.4-56.8,38.4-91.2C384.8,140.8,327.2,83.2,256,83.2z M305.6,228l-11.2,11.2
				c-4.8,4.8-10.4,7.2-16.8,7.2c-4.8,0-9.6-1.6-13.6-4V376c0,4.8-4,8-8,8s-8-4-8-8V241.6c-4,2.4-8.8,4-13.6,4
				c-6.4,0-12-2.4-16.8-7.2l-11.2-11.2c-3.2-3.2-3.2-8.8,0-12s8.8-3.2,12,0l11.2,11.2c1.6,1.6,3.2,2.4,4.8,2.4s4-0.8,4.8-2.4
				c4.8-4.8,10.4-7.2,16.8-7.2c6.4,0,12,2.4,16.8,7.2c1.6,1.6,3.2,2.4,4.8,2.4s4-0.8,4.8-2.4l11.2-11.2c3.2-3.2,8.8-3.2,12,0
				C308.8,220,308.8,224.8,305.6,228L305.6,228z M303.2,417.6h-94.4c-4.8,0-8,4-8,8v36c0,8.8,7.2,16.8,16.8,16.8h77.6
				c8.8,0,16.8-7.2,16.8-16.8v-36C311.2,420.8,308,417.6,303.2,417.6z M232,494.4c3.2,10.4,12.8,17.6,24.8,17.6
				c11.2,0,20.8-7.2,24-17.6L232,494.4z"/>
		</g>
	</g>
</g>
</svg>
