<?xml version="1.0" encoding="utf-8"?>
<!-- Generator: Adobe Illustrator 27.3.1, SVG Export Plug-In . SVG Version: 6.00 Build 0)  -->
<svg version="1.1" id="Capa_1" xmlns="http://www.w3.org/2000/svg" xmlns:xlink="http://www.w3.org/1999/xlink" x="0px" y="0px"
	 viewBox="0 0 512 512" style="enable-background:new 0 0 512 512;" xml:space="preserve">
<style type="text/css">
	.st0{fill:#F5821F;}
</style>
<g>
	<path class="st0" d="M134.57,310.51v-0.62c0-52.19,19.54-101.4,55.15-139.37H0v221.36c0,6.34,5.14,11.48,11.48,11.48h145.58
		c-13.41-27.2-21.05-58.25-22.46-92.22L134.57,310.51z"/>
	<path class="st0" d="M338.43,105.82h0.41c13.25,0,26.21,1.29,38.77,3.73V40.43c0-6.34-5.14-11.48-11.48-11.48H11.48
		C5.14,28.95,0,34.09,0,40.43v100.09h224.85C258.22,117.96,297.44,105.82,338.43,105.82z M90.48,85.13c0,8.28-6.72,15-15,15
		s-15-6.72-15-15v-0.89c0-8.28,6.72-15,15-15s15,6.72,15,15V85.13z M150.48,85.13c0,8.28-6.72,15-15,15s-15-6.72-15-15v-0.89
		c0-8.28,6.72-15,15-15s15,6.72,15,15V85.13z M210.48,85.13c0,8.28-6.72,15-15,15s-15-6.72-15-15v-0.89c0-8.28,6.72-15,15-15
		s15,6.72,15,15V85.13z"/>
	<path class="st0" d="M243.61,164.13l94.51,120.88l94.85-121.32c-27.27-17.67-59.71-27.91-94.34-27.87
		C303.71,135.78,271.02,146.19,243.61,164.13L243.61,164.13z"/>
	<path class="st0" d="M512,294.37c-3.93-44.33-24.53-83.8-55.33-112.27l-87.77,112.27H512z"/>
	<path class="st0" d="M338.13,324.37C338.13,324.37,338.12,324.37,338.13,324.37l-0.01,0c0,0,0,0,0,0c-4.45,0-8.86-1.98-11.82-5.76
		L220,182.65c-34.02,31.73-55.44,76.93-55.44,127.24c9.39,226.12,324.82,230.6,347.07,14.48H338.14
		C338.14,324.37,338.13,324.37,338.13,324.37L338.13,324.37z"/>
</g>
</svg>
