<?xml version="1.0" encoding="utf-8"?>
<!-- Generator: Adobe Illustrator 27.3.1, SVG Export Plug-In . SVG Version: 6.00 Build 0)  -->
<svg version="1.1" id="Capa_1" xmlns="http://www.w3.org/2000/svg" xmlns:xlink="http://www.w3.org/1999/xlink" x="0px" y="0px"
	 viewBox="0 0 502.66 502.66" style="enable-background:new 0 0 502.66 502.66;" xml:space="preserve">
<style type="text/css">
	.st0{fill:#F5821F;}
</style>
<g>
	<g>
		<rect y="289.79" class="st0" width="148.67" height="199.64"/>
		<rect x="354" y="238.5" class="st0" width="148.67" height="250.93"/>
		<rect x="176.99" y="164.06" class="st0" width="148.71" height="325.37"/>
		<path class="st0" d="M429.47,87.24l21.05,42.71l47.15,6.86l-34.08,33.24l8.02,46.96l-42.15-22.18l-42.15,22.18l8.02-46.96
			l-34.08-33.24l47.11-6.86L429.47,87.24z"/>
		<path class="st0" d="M252.14,13.23l21.07,42.73l47.15,6.86l-34.08,33.26l8.05,46.92l-42.17-22.15L209.99,143l8.02-46.92
			l-34.08-33.26l47.13-6.86L252.14,13.23z"/>
		<path class="st0" d="M71.74,137.05l21.05,42.73l47.15,6.88l-34.06,33.22l8.02,46.94l-42.17-22.15l-42.17,22.18l8.05-46.94
			L3.54,186.68l47.13-6.88L71.74,137.05z"/>
	</g>
</g>
</svg>
