<?xml version="1.0" encoding="utf-8"?>
<!-- Generator: Adobe Illustrator 27.3.1, SVG Export Plug-In . SVG Version: 6.00 Build 0)  -->
<svg version="1.1" id="Layer_59" xmlns="http://www.w3.org/2000/svg" xmlns:xlink="http://www.w3.org/1999/xlink" x="0px" y="0px"
	 viewBox="0 0 512 512" style="enable-background:new 0 0 512 512;" xml:space="preserve">
<style type="text/css">
	.st0{fill:#F5821F;}
</style>
<g>
	<path class="st0" d="M460.23,428.55c0.79,0,1.58-0.2,2.28-0.69l-0.4-29.9l-133.35,0.1l0.4,30.79c0.69,0.49,1.48,0.69,2.38,0.69
		L460.23,428.55z"/>
	<path class="st0" d="M316.68,441.91l0.99,65.44h158.69l-0.99-66.72L316.68,441.91z"/>
	<path class="st0" d="M473.99,279.76l-17.42-54.35c-0.99-1.68-2.87-2.67-4.85-2.67c-4.45,0-8.71,2.28-11.29,5.94
		c-3.56,6.24-4.85,13.56-3.76,20.69c1.48,9.11,5.25,32.27,7.03,42.96c0.59,3.37,0.89,5.44,0.89,5.54l0.79,4.65l-4.36,1.78
		c-3.37,1.58-6.43,3.56-9.31,5.84c-3.96,3.17-7.23,6.93-9.8,11.29c-2.47,4.36-4.85,8.91-7.03,13.56l-10.79-5.05
		c1.68-3.56,3.46-7.13,5.35-10.49l-85.73,35.84c0.59,11.19,5.05,21.78,12.77,29.9c0.3,0.3,0.59,0.69,0.99,0.99l118.1-0.1
		c0.4-0.59,0.79-1.29,1.19-1.88c3.46-5.35,6.43-10.2,6.43-10.3l0.1-0.2c0.99-1.58,1.78-3.27,2.28-5.05l16.73-62.17l-4.95-15.54
		L473.99,279.76z"/>
	<path class="st0" d="M496.56,256.59L419.34,71.87l-72.46,30.29c-4.55,1.88-9.9-0.3-11.78-4.85c-0.59-1.48-0.79-3.17-0.59-4.75
		c0.89-6.04,2.38-20.99-2.18-29.7c-8.22-15.34-27.32-21.09-42.67-12.87c-15.34,8.22-21.09,27.32-12.87,42.67
		c3.96,7.33,10.59,12.77,18.51,15.25c3.37,0.99,5.64,3.96,5.84,7.42s-1.88,6.73-5.05,8.12l-78.3,32.27
		c1.09,1.29,1.98,2.67,2.67,4.26c3.46,7.72,8.22,18.41,13.17,29.4c2.67,5.74,5.35,11.68,7.72,17.32c2.57,5.74,4.95,11.09,7.03,15.64
		c10.99-21.28,37.12-29.6,58.41-18.61c18.31,9.5,27.52,30.59,21.78,50.39v0.1c0,0.2-0.1,0.4-0.1,0.59
		c-1.09,4.26-2.77,8.32-5.05,12.18c-0.4,0.69-0.79,1.29-1.29,1.98c-3.96,5.74-9.21,10.49-15.34,13.76
		c-8.51,4.45-19.8,5.05-29.5,4.26l26.43,59c0.69,1.48,1.09,2.97,1.39,4.45l6.83-2.87l11.78-4.95l102.06-42.67
		c2.08-1.58,4.26-3.07,6.53-4.36c-1.68-10-5.74-34.75-7.23-44.35c-1.48-9.9,0.3-20,5.35-28.71l0.1-0.2
		c4.85-7.33,13.07-11.58,21.78-11.38c6.34,0.1,12.18,3.76,15.05,9.4l0.2,0.49l17.42,54.35l4.85-1.98
		C496.26,270.45,499.23,263.03,496.56,256.59L496.56,256.59z"/>
	<path class="st0" d="M197.3,79.59l-0.89-67.81H37.72l0.89,69.1L197.3,79.59z"/>
	<path class="st0" d="M53.75,92.96c-0.79,0-1.58,0.2-2.28,0.69l0.4,29.9v1.19c0.69,0.49,1.48,0.79,2.38,0.69l128.4-0.99l0.1,0.2h0.2
		c0.79,0,1.58-0.2,2.28-0.69l-0.49-31.28c-0.69-0.49-1.48-0.79-2.38-0.69L53.75,92.96z"/>
	<path class="st0" d="M263.52,285.2c-1.29-2.87-0.99-6.24,0.89-8.81c0-0.1,0.1-0.1,0.1-0.2c1.88-2.57,5.15-3.96,8.32-3.56
		c6.04,0.69,20.99,1.88,29.6-2.97c7.03-3.96,12.28-10.49,14.55-18.21c3.37-14.35-3.76-29.1-17.13-35.54
		c-15.64-7.52-34.45-0.89-41.97,14.75c-0.69,1.39-1.29,2.87-1.68,4.36c-1.39,4.36-5.94,6.83-10.39,5.44
		c-2.38-0.69-4.26-2.47-5.25-4.75c-2.47-5.84-6.24-14.95-10.39-24.85c0,0,0-0.1-0.1-0.1c-7.13-15.94-15.44-34.45-20.59-46.13
		c-0.59-1.29-1.58-2.28-2.87-2.77c-0.59-0.2-1.19-0.4-1.88-0.4c-0.69,0-1.48,0.2-2.08,0.49l-1.09,0.49l-11.58,5.15l-88.9,39.8
		c-4.95,7.62-11.58,13.96-19.5,18.41c1.68,10,5.74,34.75,7.23,44.35c1.58,9.9-0.3,20-5.35,28.71l-0.1,0.2
		c-4.65,7.03-12.47,11.29-20.89,11.48c-0.3,0-0.59,0-0.99,0c-6.34-0.1-12.18-3.76-15.05-9.4l-0.2-0.49l-19.2-60.09l-5.25,2.38
		c-6.34,2.87-9.21,10.39-6.34,16.73L98.6,445.48l67.12-30.09c-8.22-6.34-17.23-15.05-20.49-24.85
		c-7.62-22.67,4.55-47.32,27.22-54.94s47.32,4.55,54.94,27.22c2.67,7.92,2.97,16.43,0.89,24.55c16.93-7.62,44.45-19.9,60.78-27.22
		c3.66-1.68,5.35-5.94,3.66-9.6L263.52,285.2z"/>
	<path class="st0" d="M38.11,235.81l19.3,60.29c0.99,1.68,2.87,2.67,4.85,2.67c4.45,0,8.71-2.28,11.19-5.94
		c3.56-6.24,4.85-13.56,3.66-20.69c-1.88-11.98-7.92-48.11-7.92-48.51l-0.3-1.58l-0.49-3.07l4.36-1.78c0.1,0,12.28-5.25,19.01-17.13
		c0.3-0.59,0.59-1.09,0.99-1.68l16.04-7.13l79.39-35.54c-2.08-7.23-5.84-13.86-10.99-19.3L56.92,137.4
		c-3.46,5.35-6.43,10.2-6.43,10.3l-0.1,0.2c-0.99,1.58-1.78,3.27-2.28,5.05l-16.73,62.17l3.07,9.5L38.11,235.81z"/>
</g>
</svg>
