<?xml version="1.0" encoding="utf-8"?>
<!-- Generator: Adobe Illustrator 27.3.1, SVG Export Plug-In . SVG Version: 6.00 Build 0)  -->
<svg version="1.1" id="Layer_1" xmlns="http://www.w3.org/2000/svg" xmlns:xlink="http://www.w3.org/1999/xlink" x="0px" y="0px"
	 viewBox="0 0 512 512" style="enable-background:new 0 0 512 512;" xml:space="preserve">
<style type="text/css">
	.st0{fill-rule:evenodd;clip-rule:evenodd;fill:#F5821F;}
</style>
<path class="st0" d="M51.67,358.26c0.8,5.42-2.95,10.45-8.34,11.24c-5.44,0.8-10.44-2.96-11.24-8.38
	c-0.8-5.41,2.95-10.45,8.34-11.24C45.88,349.1,50.92,352.84,51.67,358.26z M321.59,146.72c27.59,30.62,48.18,57.21,61.77,81.06
	c25.76,45.24,19.39,90.83-5.87,124.21l-22.52,13.12c-6.06,3.53-12.23,5.77-18.61,6.86c2.66-3.54,4.72-7.77,6.05-12.68
	c5.01-18.57-6.1-36.93-23.95-43.11l-1.15-0.4l-1.2-0.22c-4.12-0.76-8.22-1.61-12.3-2.54c3.64-4.87,5.78-10.87,5.61-18.1
	c-0.03-1.24-0.1-2.34-0.21-3.27c-1.44-11.9-7.88-19.64-16.42-24.8c-7.5-4.53-16.49-6.78-24.73-8.13
	c-5.95-0.98-12.21-2.63-16.79-5.62c-3.55-2.32-6.1-5.68-6.34-10.59c-0.26-5.31,2.06-9.6,5.72-12.57c2.86-2.33,6.52-3.95,10.48-4.74
	c1.59-0.32,3.23-0.51,4.89-0.55c0.17,0.01,0.35,0.02,0.53,0.02c0.21,0,0.43-0.01,0.64-0.02c2.19,0.03,4.39,0.31,6.55,0.86
	c6.62,1.68,12.65,6.04,15.82,13.6c1.9,4.53,7.12,6.67,11.65,4.77c4.53-1.9,6.67-7.12,4.77-11.66
	c-5.59-13.31-16.23-21.01-27.93-23.97c-0.86-0.22-1.72-0.41-2.59-0.57v-6.9c0-4.92-3.99-8.91-8.91-8.91s-8.91,3.99-8.91,8.91v7.04
	c-6.75,1.36-13.09,4.21-18.19,8.36c-7.85,6.38-12.82,15.64-12.26,27.18c0.56,11.6,6.35,19.38,14.41,24.64
	c7.03,4.59,15.66,6.96,23.61,8.27c6.39,1.05,13.21,2.71,18.4,5.84c4.15,2.5,7.26,6.16,7.93,11.64c0.09,0.73,0.14,1.26,0.14,1.6
	c0.1,4.36-1.98,7.68-5.11,10.06c-1.06,0.81-2.24,1.52-3.51,2.15c-23.01-6.77-44.38-15.54-67.1-22.91
	c-23.72-7.7-45.82,1.01-66.31,12.88l-13.96,8.09c-4.44-24.35-0.44-51.15,14.75-77.82c13.59-23.85,34.18-50.44,61.77-81.06
	c3.46,1.13,7.15,1.74,10.98,1.74h87.43C314.44,148.46,318.13,147.85,321.59,146.72L321.59,146.72z M223.18,132.46h87.43
	c10.78,0,19.6-8.82,19.6-19.6c0-10.78-8.82-19.6-19.6-19.6h-87.43c-10.78,0-19.6,8.82-19.6,19.6
	C203.58,123.64,212.4,132.46,223.18,132.46z M222.46,77.27l-16.1-16.1c-7.83-7.83-7.83-20.65,0-28.48
	c6.66-6.66,17.21-7.79,25.13-2.7c2.94,1.89,6.33,2.19,9.56,0.85c3.23-1.34,5.41-3.94,6.15-7.36c1.97-9.04,10.07-15.86,19.68-15.87
	c9.44,0,17.67,6.65,19.68,15.87c0.75,3.42,2.92,6.02,6.15,7.36c3.23,1.34,6.61,1.04,9.56-0.85c7.79-5,18.34-4.1,25.14,2.7v0
	c7.83,7.83,7.83,20.65,0,28.48l-16.1,16.1c-0.24,0-0.48-0.01-0.71-0.01h-87.43C222.94,77.26,222.7,77.27,222.46,77.27L222.46,77.27z
	 M83.61,354.25l53.37,94.18l20.08-11.59c1.95-1.13,4.25-1.43,6.45-0.84l126.12,27.78c16.68,4.46,32.37,2.26,46.71-6.55l153.15-95.18
	c8.34-5.11,10.89-20.13,5.15-29.75c-8.34-13.93-30.42-12.28-59.1,4.41l-72.52,42.24c-15.09,8.81-31.37,11.67-49.71,8.73
	c-3.35-0.54-6.64-1.11-9.89-1.74c-0.7-0.05-61.7-15.91-68.69-17.79c-4.55-1.21-7.24-5.86-5.99-10.36c1.2-4.53,5.85-7.2,10.34-5.99
	c7.14,1.91,50.41,14.18,66.64,17.33c8.29,0.53,17.93-1.78,21.23-13.99c2.7-10.01-3.2-20.18-13.74-23.83
	c-29.62-5.42-58.25-15.76-81.23-24.08c-8.04-2.9-14.99-5.41-20.98-7.36c-18.88-6.12-36.82,1.91-53.35,11.51L83.61,354.25z
	 M135.05,479.56L53.42,335.32c-0.8-1.41-2.1-2.42-3.7-2.86c-0.55-0.14-1.1-0.22-1.65-0.22c-1.05,0-2.05,0.27-2.95,0.77l-27.78,15.71
	c-2.95,1.66-3.95,5.39-2.3,8.32l81.63,144.24c1.65,2.93,5.4,3.96,8.29,2.31l27.78-15.72c1.4-0.8,2.4-2.11,2.85-3.68
	C136.05,482.61,135.85,480.97,135.05,479.56L135.05,479.56z"/>
</svg>
