<?xml version="1.0" encoding="utf-8"?>
<!-- Generator: Adobe Illustrator 27.3.1, SVG Export Plug-In . SVG Version: 6.00 Build 0)  -->
<svg version="1.1" id="OBJECTS" xmlns="http://www.w3.org/2000/svg" xmlns:xlink="http://www.w3.org/1999/xlink" x="0px" y="0px"
	 viewBox="0 0 500 500" style="enable-background:new 0 0 500 500;" xml:space="preserve">
<style type="text/css">
	.st0{fill:none;stroke:#D4AFAF;stroke-width:0.4848;stroke-miterlimit:10;}
	.st1{fill:#F4E3DE;}
	.st2{fill:#3767E1;}
	.st3{fill:#DF723E;}
	.st4{fill:none;stroke:#D4AFAF;stroke-width:0.3321;stroke-miterlimit:10;}
	.st5{fill:none;stroke:#D4AFAF;stroke-width:0.4562;stroke-miterlimit:10;}
	.st6{fill:none;stroke:#FFFFFF;stroke-width:0.4315;stroke-miterlimit:10;}
	.st7{fill:none;stroke:#262127;stroke-width:0.2744;stroke-miterlimit:10;}
	.st8{fill:#1C1928;}
	.st9{fill:#95614E;}
	.st10{fill:none;stroke:#7C463B;stroke-width:0.4178;stroke-linecap:round;stroke-linejoin:round;stroke-miterlimit:10;}
	.st11{fill:#202020;}
	.st12{fill:#262127;}
	.st13{fill:#171618;}
	.st14{fill:#845142;}
	.st15{fill:#DAAF23;}
	.st16{fill:#70C891;}
	.st17{fill:none;stroke:#FFFFFF;stroke-width:0.4906;stroke-miterlimit:10;}
	.st18{fill:#E9C02F;}
	.st19{fill:#E1A2A4;}
	.st20{fill:none;stroke:#AE7078;stroke-width:0.4151;stroke-linecap:round;stroke-linejoin:round;stroke-miterlimit:10;}
	.st21{fill:#FFFFFF;}
	.st22{fill:#D4642E;}
	.st23{fill:#3057AC;}
	.st24{fill:none;stroke:#FFFFFF;stroke-width:0.5843;stroke-miterlimit:10;}
	.st25{fill:none;stroke:#D4AFAF;stroke-width:0.4417;stroke-miterlimit:10;}
	.st26{fill:none;stroke:#D4AFAF;stroke-width:0.4883;stroke-miterlimit:10;}
</style>
<g>
	<g>
		<g>
			<path class="st0" d="M392.3,334.1H145.4c-3.7,0-6.7-3-6.7-6.7V166.7c0-3.7,3-6.7,6.7-6.7h246.9c3.7,0,6.7,3,6.7,6.7v160.7
				C399,331.1,396,334.1,392.3,334.1z"/>
			<path class="st1" d="M403.1,317.1H156.2c-3.7,0-6.7-3-6.7-6.7V149.7c0-3.7,3-6.7,6.7-6.7h246.9c3.7,0,6.7,3,6.7,6.7v160.7
				C409.8,314.1,406.8,317.1,403.1,317.1z"/>
			<g>
				<path class="st2" d="M176.4,154.3c0,2-1.7,3.7-3.7,3.7s-3.7-1.7-3.7-3.7s1.7-3.7,3.7-3.7C174.7,150.6,176.4,152.3,176.4,154.3z"
					/>
				<path class="st3" d="M188.7,154.3c0,2-1.7,3.7-3.7,3.7s-3.7-1.7-3.7-3.7s1.7-3.7,3.7-3.7C187,150.6,188.7,152.3,188.7,154.3z"/>
				<path class="st4" d="M201,154.3c0,2-1.7,3.7-3.7,3.7s-3.7-1.7-3.7-3.7s1.7-3.7,3.7-3.7C199.3,150.6,201,152.3,201,154.3z"/>
			</g>
		</g>
		<g>
			<path class="st5" d="M267.6,298.5h-95.7c-1.6,0-2.9-1.3-2.9-2.9V182.8c0-1.6,1.3-2.9,2.9-2.9h95.7c1.6,0,2.9,1.3,2.9,2.9v112.8
				C270.6,297.2,269.2,298.5,267.6,298.5z"/>
			<path class="st6" d="M380.3,216.2h-80.7c-1.6,0-2.9-1.3-2.9-2.9v-30.5c0-1.6,1.3-2.9,2.9-2.9h80.7c1.6,0,2.9,1.3,2.9,2.9v30.5
				C383.2,214.8,381.9,216.2,380.3,216.2z"/>
			<path class="st6" d="M248.2,263.1H191c-3.4,0-6.2-2.8-6.2-6.2v-54.2c0-3.4,2.8-6.2,6.2-6.2h57.2c3.4,0,6.2,2.8,6.2,6.2V257
				C254.3,260.4,251.6,263.1,248.2,263.1z"/>
			<line class="st6" x1="187.1" y1="275.3" x2="252.2" y2="275.3"/>
			<line class="st6" x1="187.1" y1="285.5" x2="223.8" y2="285.5"/>
		</g>
	</g>
	<g>
		<line class="st7" x1="45.4" y1="383.7" x2="447.1" y2="383.7"/>
		<line class="st7" x1="172.7" y1="402.1" x2="354" y2="402.1"/>
	</g>
	<g>
		<g>
			<g>
				<path class="st8" d="M98.1,183.7c4.1,2.2,8.9,1.3,10.7-2c1.7-3.3-0.2-7.7-4.4-9.9c-4.1-2.2-8.9-1.3-10.7,2
					C92,177.1,94,181.6,98.1,183.7z"/>
				<path class="st3" d="M103.9,183.3c0.8,2.7,3.7,4.3,6.5,3.4c2.7-0.8,4.3-3.7,3.4-6.5c-0.8-2.7-3.7-4.3-6.5-3.4
					C104.6,177.7,103,180.6,103.9,183.3z"/>
			</g>
			<path class="st8" d="M129.5,187.3c0,7.4-5.8,13.4-12.9,13.4s-12.9-6-12.9-13.4s5.8-12.5,12.9-12.5
				C123.7,174.8,129.5,179.9,129.5,187.3z"/>
			<g>
				<g>
					<path class="st9" d="M116.1,218.5L116.1,218.5c-2.8-0.2-5.6-1.9-5.5-4.7l1.7-18.6l10.1,0.6l-1,18
						C121.3,216.5,118.9,218.7,116.1,218.5z"/>
				</g>
				<path class="st8" d="M114.8,199.1c0,0-0.5,6.9,6.9,9.1l0.2-4.2l-7.9-4.9"/>
			</g>
			<g>
				<path class="st9" d="M123,204.9L123,204.9c-5.2,0-9.5-3.8-9.5-8.5v-15.3l8.8-0.8c3.3,0,7.6,5,7.6,7.9l-0.2,8.4
					C129.8,200.1,127.4,204.9,123,204.9z"/>
				<path class="st9" d="M128.8,189.5l2.5,4.9c0.4,0.5,0,1.2-0.7,1.2h-3.5L128.8,189.5z"/>
			</g>
			<g>
				<path class="st10" d="M126.3,197.2c0,0,1.3,0.8,3.2,0.5"/>
				<path class="st11" d="M128.7,191.4c0,0.4-0.4,0.8-0.8,0.8c-0.4,0-0.8-0.4-0.8-0.8c0-0.4,0.4-0.8,0.8-0.8
					C128.3,190.6,128.7,191,128.7,191.4z"/>
				<path class="st11" d="M124.7,189.5c0.1,0,0.1,0,0.2,0l3.5,0c0.4,0,0.7-0.3,0.7-0.7c0-0.4-0.3-0.7-0.7-0.7l-3.5,0
					c-0.4,0-0.7,0.3-0.7,0.7C124.1,189.2,124.3,189.5,124.7,189.5z"/>
			</g>
			<path class="st8" d="M129.7,187c-1.5-0.8-2.7-3.7-2.7-3.7l-1.4-0.9l-3.9-1.2l-3.9,1.2l-1.4,0.9c0,0,2.6,2.9,1.1,3.7l-2.4,5.6
				c0,0-12.2-7.5-1.9-13.5c1.5-0.9,3.1-1.5,4.4-1.5c1.3,0,2.7,0.5,4.2,1.4C121.9,179,129.9,179.5,129.7,187"/>
			<path class="st8" d="M113.2,187h18.6c0,0,0.6-8.8-8.8-9.8C114,176.3,113.2,187,113.2,187z"/>
			<path class="st11" d="M112,199.9c0,0,2.1,0,2.5-3.9l-4.5-1.6L112,199.9z"/>
			<path class="st9" d="M109.1,193.4c-0.1,2,1.4,3.6,3.4,3.7s3.6-1.4,3.7-3.4c0.1-2-1.4-3.6-3.4-3.7
				C110.8,189.9,109.2,191.4,109.1,193.4z"/>
		</g>
		<g>
			<g>
				<g>
					<polygon class="st9" points="92.9,346.2 87.7,340.4 109.6,324 115.9,331.2 					"/>
					<g>
						<g>
							<g>
								<path id="XMLID_130_" class="st12" d="M88.6,338.8l8.5,9.6l2.8,9.6c0.6,2.2-0.2,4.6-1.9,6.1l0,0l-16.8-19.5L88.6,338.8z"/>
							</g>
						</g>
						<path class="st12" d="M97.5,349.5l1-4.6c0,0-2.3-3.8-5.6-0.4L97.5,349.5z"/>
					</g>
				</g>
				<path class="st13" d="M126,247.9c0,0,10.6,39.6,12.2,47.4c1.6,7.8,4.7,23.4-1.9,29.1c-6.6,5.6-22.1,14.7-22.1,14.7l-11.5-10.7
					l7.6-10.6L126,247.9z"/>
			</g>
			<g>
				<g>
					<polygon class="st9" points="111.5,375.7 103.7,375.7 106,348.4 115.6,348.4 					"/>
					<g>
						<g>
							<g>
								<path id="XMLID_134_" class="st12" d="M103.2,373.9h12.9l9,4.3c2,1.1,3.3,3.2,3.3,5.5l0,0l-25.8-0.3L103.2,373.9z"/>
							</g>
						</g>
						<path class="st12" d="M117.1,374.4l-2.8-3.8c0,0-4.3-0.8-4,3.9L117.1,374.4z"/>
					</g>
				</g>
				<path class="st12" d="M126,247.9l1.1,59.8c0,2.1-0.1,4.3-0.5,6.4l-7.2,40.1h-18.6c0,0,4-28.1-1.1-77.9c0,0-3.6-21.6,6.3-28.2
					L126,247.9z"/>
			</g>
		</g>
		<g>
			<g>
				<g>
					<g>
						<path class="st14" d="M128.2,219.8l13.7,10l13.7-20.2l4.6,2.5c0,0-5.6,18.9-13,28.5c-1.3,1.7-3.5,2.2-5.5,1.5
							c-4-1.6-11.5-5.2-20.8-13.1L128.2,219.8z"/>
						<path class="st15" d="M132.1,222.3l-9.5,15.9l-9.2-7.1c-3.8-2.9-4.7-8.2-2-12.2l0,0c2.9-4.5,9.1-5.5,13.3-2.1L132.1,222.3z"/>
					</g>
					<g>
						<g>
							<path class="st9" d="M155.7,209.6l4.6,2.5l5.7-7.8c0,0-8.7-3.8-8.6-3.7C157.5,200.8,155.7,209.6,155.7,209.6z"/>
							<path class="st9" d="M155.7,209.6c0.1-0.4-1.4-5.8-1.7-7.7c-0.1-0.5,0.3-0.9,0.8-0.9l0,0c0.3,0,0.6,0.2,0.7,0.4l1.8,4
								L155.7,209.6z"/>
							<path class="st9" d="M157.4,200.6l1.1-1.8c0.2-0.5,0.7-0.7,1.1-0.6l0,0c0.4,0.1,0.6,0.5,0.5,0.9l-1.3,3.6L157.4,200.6z"/>
							<path class="st9" d="M159.6,201.5l2.4-2.8c0.2-0.4,0.8-0.6,1.2-0.4l0,0c0.4,0.2,0.5,0.6,0.4,1l-2.2,4L159.6,201.5z"/>
							<path class="st9" d="M161.7,202.9l2.6-3.8c0.3-0.4,0.9-0.6,1.3-0.3l0,0c0.4,0.3,0.5,0.8,0.3,1.2l-2.6,4.4L161.7,202.9z"/>
							<path class="st9" d="M166,204.3l1.5-2.3c0.2-0.3,0.1-0.8-0.2-1l0,0c-0.3-0.2-0.7-0.1-1,0.2l-3,3.1L166,204.3z"/>
						</g>
					</g>
				</g>
				<g>
					<path class="st16" d="M210,256h-58.2c-3.7,0-6.6-3-6.6-6.6V192c0-3.7,3-6.6,6.6-6.6H210c3.7,0,6.6,3,6.6,6.6v57.3
						C216.6,253,213.7,256,210,256z"/>
					<g>
						<polyline class="st17" points="161.1,240.2 176.3,220.8 184.9,226.7 200.4,208 						"/>
						<polyline class="st17" points="196.5,207.7 200.8,207.7 201.2,211.8 						"/>
					</g>
				</g>
			</g>
			<g>
				<g>
					<path class="st18" d="M109.8,211.4c0,0-10.1,9.4-3.7,36.6l20-0.1c0,0,5.7-19.3-1.5-31.4L109.8,211.4z"/>
					<path class="st9" d="M109.8,211.4c0,0,5.6,5.3,14.7,5.1l-6.4-7.5h-7L109.8,211.4z"/>
				</g>
				<path class="st18" d="M124.5,216.4c0,0,13.7,6.2,3.6,16.9c-10.1,10.8-11-8.5-11-8.5L124.5,216.4z"/>
				<g>
					<g>
						<path class="st9" d="M124.9,225.1l10.8,13.1l18.3-16.1l3.8,3.6c0,0-10.1,17-19.6,24.4c-1.7,1.3-4,1.3-5.7,0.1
							c-3.5-2.5-9.8-7.9-16.9-17.9L124.9,225.1z"/>
						<path class="st18" d="M128.1,228.5l-13.2,13l-7.2-9.2c-2.9-3.7-2.5-9.1,1-12.3l0,0c4-3.6,10.2-3,13.4,1.3L128.1,228.5z"/>
					</g>
					<g>
						<g>
							<path class="st9" d="M154.1,222.1l3.8,3.6l7.5-6.2c0,0-7.5-5.9-7.4-5.7C158,214,154.1,222.1,154.1,222.1z"/>
							<path class="st9" d="M154.1,222.1c0.3-0.4,0.1-6,0.3-7.9c0-0.5,0.5-0.8,1-0.7l0,0c0.3,0.1,0.6,0.3,0.6,0.6l0.8,4.3
								L154.1,222.1z"/>
							<path class="st9" d="M157.9,213.8l1.9-3c0.3-0.4,0.8-0.5,1.2-0.3l0,0c0.4,0.2,0.5,0.7,0.3,1l-2.6,4.7L157.9,213.8z"/>
							<path class="st9" d="M159.8,215.2l3.4-3.7c0.3-0.4,0.9-0.4,1.2-0.1l0,0c0.3,0.3,0.4,0.7,0.1,1l-3.6,4.9L159.8,215.2z"/>
							<path class="st9" d="M161.6,217.1l3.4-3.1c0.4-0.4,1-0.3,1.3,0l0,0c0.3,0.3,0.3,0.9,0,1.2l-3.6,3.6L161.6,217.1z"/>
							<path class="st9" d="M165.4,219.5l2-1.9c0.3-0.3,0.3-0.7,0-1l0,0c-0.3-0.3-0.7-0.3-1-0.1l-3.7,2.3L165.4,219.5z"/>
						</g>
					</g>
				</g>
			</g>
		</g>
	</g>
	<g>
		<g>
			<path class="st12" d="M339.3,163.3c3.4-0.2,6.2,2.2,6.8,5.5c0.8-0.6,1.7-0.9,2.8-1c2.8-0.1,5.1,1.1,5.8,3.9
				c16.1-1.7,1,21.9,1,21.9l-1.2-9.1l-0.5-10.2c-0.6,2-2.4,3.6-4.6,3.7c-2.3,0.1-4.4-1.4-5.1-3.5c-1.1,1.1-2.6,1.8-4.3,1.9
				c-3.6,0.2-6.7-2.6-6.8-6.2C333,166.5,335.7,163.4,339.3,163.3z"/>
			<path class="st19" d="M356.4,186.1L356,204c-0.1,3.2-2.6,5.8-5.8,5.9l0,0c-3.4,0.2-6.3-2.5-6.3-5.9l-0.3-15.1L356.4,186.1z"/>
			<path class="st12" d="M355.1,190.2c0,0,0,11.8-11.3,10.3l-0.1-5.4L355.1,190.2z"/>
			<path class="st19" d="M346.4,197.7h0.4c5.5,0,9.9-4.4,9.9-9.9v-11.2c0-1.4-1.2-2.6-2.6-2.6l-13,0c-2.5,0-4.6,2-4.6,4.6v9.2
				C336.4,193.3,340.9,197.7,346.4,197.7z"/>
			<g>
				<path class="st12" d="M346.3,184.7c0,0.5,0.4,0.8,0.9,0.7c0.5,0,0.8-0.4,0.7-0.9c0-0.5-0.4-0.8-0.9-0.7
					C346.6,183.8,346.2,184.2,346.3,184.7z"/>
				<path class="st12" d="M338.3,184.7c0,0.5,0.4,0.8,0.9,0.7c0.5,0,0.8-0.4,0.7-0.9c0-0.5-0.4-0.8-0.9-0.7
					C338.6,183.8,338.2,184.2,338.3,184.7z"/>
				<path class="st20" d="M341.5,185.4l-0.3,1.9c0,0,0.2,1.2,1.9,0.7"/>
				<path class="st12" d="M349.2,181.5c-0.1,0-0.1,0-0.2,0l-3.7-0.1c-0.4,0-0.7-0.4-0.7-0.8c0-0.4,0.4-0.7,0.8-0.7l3.7,0.1
					c0.4,0,0.7,0.4,0.7,0.8C349.8,181.2,349.6,181.5,349.2,181.5z"/>
				<path class="st12" d="M339.8,181.4c-0.1,0-0.1,0-0.2,0l-2.2-0.1c-0.4,0-0.7-0.4-0.7-0.8c0-0.4,0.4-0.7,0.8-0.7l2.2,0.1
					c0.4,0,0.7,0.4,0.7,0.8C340.4,181.1,340.1,181.3,339.8,181.4z"/>
				<path class="st21" d="M340.4,190.2h6.2c0,0-0.2,1.9-3.3,1.8C340.5,191.9,340.4,190.2,340.4,190.2z"/>
			</g>
			<path class="st12" d="M356.4,186.1c0,0-5.7-1.3-4.6-9.9l-14.4-0.3l0.4-3.5l16,0.2c2.3,0,4,2,3.8,4.3L356.4,186.1z"/>
			<path class="st19" d="M354.4,185.8c0,1.8,1.4,3.2,3.2,3.2s3.2-1.4,3.2-3.2c0-1.8-1.4-3.2-3.2-3.2
				C355.8,182.6,354.4,184,354.4,185.8z"/>
		</g>
		<g>
			<g>
				<g>
					<polygon class="st19" points="362.3,374.6 373.3,374.6 371.8,359.3 360.8,359.3 					"/>
					<g>
						<g>
							<g>
								<path id="XMLID_139_" class="st12" d="M373.3,372.8h-13.9l-11.6,4.8c-2.3,1.2-3.7,3.5-3.7,6.1l0,0h31L373.3,372.8z"/>
							</g>
						</g>
						<path class="st12" d="M358.3,373.3l3.1-4.2c0,0,4.9-0.9,4.5,4.4L358.3,373.3z"/>
					</g>
				</g>
				<path class="st3" d="M368.7,256.7c0,0,3.1,9,2.2,23.6l5.8,83.2H356l-6.7-61.1l-3-45.8L368.7,256.7z"/>
			</g>
			<g>
				<g>
					
						<rect x="331.1" y="355" transform="matrix(0.9766 -0.2149 0.2149 0.9766 -70.0251 80.7999)" class="st19" width="11" height="14.8"/>
					<g>
						<g>
							<g>
								<path id="XMLID_138_" class="st12" d="M343.1,366.8l-13.6,3l-10.3,7.2c-2,1.7-2.9,4.3-2.3,6.8l0,0l29.4-6.5L343.1,366.8z"/>
							</g>
						</g>
						<path class="st12" d="M328.5,370.5l2.1-4.8c0,0,4.6-1.9,5.3,3.4L328.5,370.5z"/>
					</g>
				</g>
				<path class="st3" d="M331.6,257.6l-19.6,49c-0.9,2.2-1.2,4.6-0.6,6.9l14.3,48l20.5-4.3l-12.2-44.7l26.7-54.9L331.6,257.6z"/>
				<path class="st22" d="M348.1,283.6l-0.2-10.9c0,0-9.2,17.3-11.4,34.8L348.1,283.6z"/>
			</g>
		</g>
		<g>
			<path class="st23" d="M332.8,205.7c0,0-8.3,4.2-7.5,32.9l11.2,0.7l-1.4-30.9L332.8,205.7z"/>
			<g>
				<path class="st2" d="M350.2,203.2l-16.1,2.1c-2.9,0.4-4.3,5-4.1,6.8l1.7,45.6l37.2-0.1l3.5-44.5c0.5-3.6-1.7-7.9-5-8
					L350.2,203.2z"/>
				<path class="st19" d="M342.6,204.1l7.6-1.4l8.3,1.3c0,0-0.7,6.9-11.1,5.7c-1.6-0.2-3.1-0.8-4.1-1.7
					C342.1,207.1,341.7,206,342.6,204.1z"/>
				<polygon class="st23" points="370.6,234 362.5,221.1 362.5,249.6 				"/>
			</g>
			<g>
				<path class="st16" d="M421.7,282.3H313.3c-3.6,0-6.5-2.9-6.5-6.5v-40.1c0-3.6,2.9-6.5,6.5-6.5h108.4c3.6,0,6.5,2.9,6.5,6.5v40.1
					C428.2,279.3,425.3,282.3,421.7,282.3z"/>
				<g>
					<line class="st24" x1="321.6" y1="244.2" x2="413.2" y2="244.2"/>
					<line class="st24" x1="321.6" y1="254.4" x2="374.4" y2="254.4"/>
					<line class="st24" x1="341.9" y1="266" x2="356.2" y2="266"/>
					<line class="st24" x1="321.6" y1="266" x2="334" y2="266"/>
				</g>
			</g>
			<g>
				<path class="st2" d="M357.5,213.7c0,0,10.1,15,19.1,30.3c1,1.7,3.6,2.8,5.7,2.9l0,0c4.5,0.2,6.8-4.5,5.5-8.5
					c0,0-15.6-31.3-17.6-32C369.9,206.2,357.5,213.7,357.5,213.7z"/>
				<g>
					<polygon class="st19" points="378.5,277 378.8,269.7 387,270.2 386.7,277 					"/>
					<path class="st19" d="M380.2,274.4c3.8-0.8,7.5,1.6,8.3,5.4c0.8,3.8-1.6,7.5-5.4,8.3c-3.8,0.8-7.5-1.6-8.3-5.4
						C374,278.9,376.4,275.2,380.2,274.4z"/>
				</g>
				<path class="st2" d="M375.8,242.8l0.7,28.2l13.2-0.7l-1-29.3c-0.6-4.2-5-6.6-8.9-5l0,0C377,237.1,375.4,239.9,375.8,242.8z"/>
			</g>
		</g>
	</g>
	<g>
		<g>
			<path class="st25" d="M77.7,133.1H58.8c-1,0-1.8,0.8-1.8,1.8v10.6c0,1,0.8,1.8,1.8,1.8h7.7l6.5,7.2v-6.9l4.7-0.1
				c1,0,1.7-0.8,1.7-1.8v-10.8C79.4,133.9,78.7,133.1,77.7,133.1z"/>
			<path class="st26" d="M454.6,214.2c0,2.9-2.4,5.4-5.3,5.4c-2.9,0-5.3-2.4-5.3-5.4c0-2.9,2.4-5.4,5.3-5.4
				C452.2,208.8,454.6,211.2,454.6,214.2z"/>
			<ellipse class="st26" cx="50.2" cy="293.2" rx="3.8" ry="3.9"/>
			<rect x="341.4" y="103.5" class="st26" width="8" height="8.1"/>
		</g>
		<g>
			<g>
				<g>
					<path class="st2" d="M432.9,188.3h-33.3v-16.8c0-1.4,1.1-2.5,2.5-2.5h30.8c1.4,0,2.5,1.1,2.5,2.5v14.3
						C435.4,187.2,434.3,188.3,432.9,188.3z"/>
					<polygon class="st2" points="399.6,184.3 399.6,192.8 406.9,184.3 					"/>
					<g>
						<path class="st21" d="M423.6,178.4c0,0.9,0.7,1.6,1.6,1.6c0.9,0,1.6-0.7,1.6-1.6c0-0.9-0.7-1.6-1.6-1.6
							C424.3,176.8,423.6,177.5,423.6,178.4z"/>
						<path class="st21" d="M416.7,178.4c0,0.9,0.7,1.6,1.6,1.6c0.9,0,1.6-0.7,1.6-1.6c0-0.9-0.7-1.6-1.6-1.6
							C417.4,176.8,416.7,177.5,416.7,178.4z"/>
						<path class="st21" d="M409.7,178.3c0,0.9,0.7,1.6,1.6,1.6c0.9,0,1.6-0.7,1.6-1.6c0-0.9-0.7-1.6-1.6-1.6
							C410.5,176.7,409.7,177.5,409.7,178.3z"/>
					</g>
				</g>
			</g>
			<g>
				<g>
					<path class="st2" d="M307.1,121.3h-80.5c-1.3,0-2.3-1-2.3-2.3v-18.7c0-1.3,1-2.3,2.3-2.3h80.5c1.3,0,2.3,1,2.3,2.3V119
						C309.4,120.3,308.4,121.3,307.1,121.3z"/>
					<g>
						<line class="st6" x1="233.1" y1="106.8" x2="290.7" y2="106.8"/>
						<line class="st6" x1="233.1" y1="112.4" x2="251.3" y2="112.4"/>
					</g>
				</g>
				<polygon class="st2" points="233.1,118.6 233.1,129.4 244.6,118.6 				"/>
			</g>
		</g>
	</g>
</g>
</svg>
