<?xml version="1.0" encoding="utf-8"?>
<!-- Generator: Adobe Illustrator 27.3.1, SVG Export Plug-In . SVG Version: 6.00 Build 0)  -->
<svg version="1.1" id="OBJECTS" xmlns="http://www.w3.org/2000/svg" xmlns:xlink="http://www.w3.org/1999/xlink" x="0px" y="0px"
	 viewBox="0 0 500 500" style="enable-background:new 0 0 500 500;" xml:space="preserve">
<style type="text/css">
	.st0{fill:none;stroke:#D4AFAF;stroke-width:0.4848;stroke-miterlimit:10;}
	.st1{fill:#F4E3DE;}
	.st2{fill:#3767E1;}
	.st3{fill:#DF723E;}
	.st4{fill:none;stroke:#D4AFAF;stroke-width:0.3321;stroke-miterlimit:10;}
	.st5{fill:none;stroke:#D4AFAF;stroke-width:0.4562;stroke-miterlimit:10;}
	.st6{fill:none;stroke:#FFFFFF;stroke-width:0.4315;stroke-miterlimit:10;}
	.st7{fill:none;stroke:#262127;stroke-width:0.2744;stroke-miterlimit:10;}
	.st8{fill:#1C1928;}
	.st9{fill:#95614E;}
	.st10{fill:none;stroke:#7C463B;stroke-width:0.4178;stroke-linecap:round;stroke-linejoin:round;stroke-miterlimit:10;}
	.st11{fill:#202020;}
	.st12{fill:#262127;}
	.st13{fill:#171618;}
	.st14{fill:#845142;}
	.st15{fill:#DAAF23;}
	.st16{fill:#70C891;}
	.st17{fill:none;stroke:#FFFFFF;stroke-width:0.4906;stroke-miterlimit:10;}
	.st18{fill:#E9C02F;}
	.st19{fill:#E1A2A4;}
	.st20{fill:none;stroke:#AE7078;stroke-width:0.4151;stroke-linecap:round;stroke-linejoin:round;stroke-miterlimit:10;}
	.st21{fill:#FFFFFF;}
	.st22{fill:#D4642E;}
	.st23{fill:#3057AC;}
	.st24{fill:none;stroke:#FFFFFF;stroke-width:0.5843;stroke-miterlimit:10;}
	.st25{fill:none;stroke:#D4AFAF;stroke-width:0.4417;stroke-miterlimit:10;}
	.st26{fill:none;stroke:#D4AFAF;stroke-width:0.4883;stroke-miterlimit:10;}
</style>
<g>
	<g>
		<g>
			<path class="st0" d="M402.21,308.8H254.56c-2.21,0-4-1.79-4-4v-96.11c0-2.21,1.79-4,4-4h147.66c2.21,0,4,1.79,4,4v96.11
				C406.21,307.01,404.42,308.8,402.21,308.8z"/>
			<path class="st1" d="M408.69,298.63H261.03c-2.21,0-4-1.79-4-4v-96.11c0-2.21,1.79-4,4-4h147.66c2.21,0,4,1.79,4,4v96.11
				C412.68,296.84,410.89,298.63,408.69,298.63z"/>
			<g>
				<path class="st2" d="M273.09,201.28c0,1.22-0.99,2.21-2.21,2.21c-1.22,0-2.21-0.99-2.21-2.21c0-1.22,0.99-2.21,2.21-2.21
					C272.1,199.07,273.09,200.06,273.09,201.28z"/>
				<path class="st3" d="M280.44,201.28c0,1.22-0.99,2.21-2.21,2.21c-1.22,0-2.21-0.99-2.21-2.21c0-1.22,0.99-2.21,2.21-2.21
					C279.45,199.07,280.44,200.06,280.44,201.28z"/>
				<path class="st4" d="M287.8,201.28c0,1.22-0.99,2.21-2.21,2.21c-1.22,0-2.21-0.99-2.21-2.21c0-1.22,0.99-2.21,2.21-2.21
					C286.81,199.07,287.8,200.06,287.8,201.28z"/>
			</g>
		</g>
		<g>
			<path class="st5" d="M327.65,287.5h-57.23c-0.97,0-1.76-0.79-1.76-1.76v-67.44c0-0.97,0.79-1.76,1.76-1.76h57.23
				c0.97,0,1.76,0.79,1.76,1.76v67.44C329.41,286.71,328.62,287.5,327.65,287.5z"/>
			<path class="st6" d="M395.02,238.27h-48.25c-0.97,0-1.76-0.79-1.76-1.76v-18.21c0-0.97,0.79-1.76,1.76-1.76h48.25
				c0.97,0,1.76,0.79,1.76,1.76v18.21C396.78,237.48,395.99,238.27,395.02,238.27z"/>
			<path class="st6" d="M316.03,266.35h-34.18c-2.03,0-3.68-1.65-3.68-3.68v-32.4c0-2.03,1.65-3.68,3.68-3.68h34.18
				c2.03,0,3.68,1.65,3.68,3.68v32.4C319.71,264.7,318.06,266.35,316.03,266.35z"/>
			<line class="st6" x1="279.48" y1="273.62" x2="318.46" y2="273.62"/>
			<line class="st6" x1="279.48" y1="279.75" x2="301.43" y2="279.75"/>
		</g>
	</g>
	<g>
		<line class="st7" x1="194.77" y1="338.47" x2="435" y2="338.47"/>
		<line class="st7" x1="270.87" y1="349.43" x2="379.3" y2="349.43"/>
	</g>
	<g>
		<g>
			<g>
				<path class="st8" d="M226.3,218.88c2.48,1.31,5.33,0.77,6.37-1.2c1.04-1.97-0.13-4.62-2.61-5.93c-2.48-1.31-5.33-0.77-6.37,1.2
					C222.66,214.92,223.83,217.57,226.3,218.88z"/>
				<path class="st3" d="M229.74,218.61c0.5,1.63,2.24,2.55,3.87,2.04c1.63-0.5,2.55-2.24,2.04-3.87c-0.5-1.63-2.24-2.55-3.87-2.04
					C230.15,215.24,229.23,216.98,229.74,218.61z"/>
			</g>
			<path class="st8" d="M245.04,221.02c0,4.44-3.46,8.04-7.72,8.04c-4.26,0-7.72-3.6-7.72-8.04s3.46-7.46,7.72-7.46
				C241.59,213.56,245.04,216.58,245.04,221.02z"/>
			<g>
				<g>
					<path class="st9" d="M237.06,239.68L237.06,239.68c-1.67-0.09-3.37-1.14-3.28-2.81l0.99-11.11l6.05,0.33l-0.58,10.74
						C240.16,238.48,238.73,239.77,237.06,239.68z"/>
				</g>
				<path class="st8" d="M236.29,228.06c0,0-0.32,4.13,4.12,5.43l0.1-2.53l-4.71-2.91"/>
			</g>
			<g>
				<path class="st9" d="M241.19,231.55L241.19,231.55c-3.13,0-5.67-2.27-5.67-5.06v-9.16l5.24-0.48c1.95,0,4.56,2.99,4.56,4.73
					l-0.09,5.04C245.22,228.65,243.82,231.55,241.19,231.55z"/>
				<path class="st9" d="M244.62,222.35l1.48,2.93c0.22,0.3-0.01,0.7-0.4,0.7l-2.07,0L244.62,222.35z"/>
			</g>
			<g>
				<path class="st10" d="M243.12,226.93c0,0,0.77,0.45,1.92,0.31"/>
				<path class="st11" d="M244.58,223.45c0,0.26-0.21,0.46-0.46,0.46c-0.26,0-0.46-0.21-0.46-0.46c0-0.26,0.21-0.46,0.46-0.46
					C244.37,222.98,244.58,223.19,244.58,223.45z"/>
				<path class="st11" d="M242.17,222.34c0.03,0.01,0.06,0.01,0.09,0.01l2.12-0.01c0.24,0,0.43-0.19,0.43-0.43
					c0-0.24-0.19-0.43-0.43-0.43l-2.12,0.01c-0.24,0-0.43,0.19-0.43,0.43C241.82,222.13,241.97,222.3,242.17,222.34z"/>
			</g>
			<path class="st8" d="M245.2,220.84c-0.91-0.47-1.59-2.19-1.59-2.19l-0.83-0.52l-2.36-0.73l-2.36,0.73l-0.83,0.52
				c0,0,1.58,1.72,0.67,2.19l-1.45,3.36c0,0-7.28-4.49-1.15-8.08c0.89-0.52,1.87-0.91,2.65-0.9c0.79-0.01,1.64,0.32,2.54,0.82
				C240.5,216.05,245.29,216.34,245.2,220.84"/>
			<path class="st8" d="M235.31,220.84h11.15c0,0,0.33-5.25-5.26-5.86C235.79,214.4,235.31,220.84,235.31,220.84z"/>
			<path class="st11" d="M234.57,228.54c0,0,1.23,0,1.48-2.32l-2.69-0.96L234.57,228.54z"/>
			<path class="st9" d="M232.86,224.64c-0.05,1.17,0.86,2.15,2.03,2.2c1.17,0.05,2.15-0.86,2.2-2.03c0.05-1.17-0.86-2.15-2.03-2.2
				C233.89,222.57,232.9,223.48,232.86,224.64z"/>
		</g>
		<g>
			<g>
				<g>
					<polygon class="st9" points="223.15,316.03 220.05,312.53 233.15,302.78 236.94,307.07 					"/>
					<g>
						<g>
							<defs>
								<path id="XMLID_130_" d="M220.63,311.63l5.09,5.76l1.65,5.76c0.34,1.33-0.1,2.74-1.12,3.65l0,0l-10.06-11.66L220.63,311.63z
									"/>
							</defs>
							<use xlink:href="#XMLID_130_"  style="overflow:visible;fill:#262127;"/>
							<clipPath id="XMLID_00000160913100306381668520000003981066117661327795_">
								<use xlink:href="#XMLID_130_"  style="overflow:visible;"/>
							</clipPath>
						</g>
						<path class="st12" d="M225.92,318.02l0.59-2.74c0,0-1.37-2.27-3.34-0.22L225.92,318.02z"/>
					</g>
				</g>
				<path class="st13" d="M242.99,257.22c0,0,6.35,23.69,7.28,28.36c0.93,4.67,2.8,14.01-1.12,17.38
					c-3.92,3.36-13.21,8.79-13.21,8.79l-6.9-6.38l4.55-6.34L242.99,257.22z"/>
			</g>
			<g>
				<g>
					<polygon class="st9" points="234.32,333.64 229.65,333.64 231.01,317.36 236.74,317.36 					"/>
					<g>
						<g>
							<defs>
								<path id="XMLID_134_" d="M229.35,332.6h7.69l5.4,2.58c1.22,0.63,1.99,1.89,1.99,3.26l0,0l-15.4-0.18L229.35,332.6z"/>
							</defs>
							<use xlink:href="#XMLID_134_"  style="overflow:visible;fill:#262127;"/>
							<clipPath id="XMLID_00000109009790070977041920000016995020469091602104_">
								<use xlink:href="#XMLID_134_"  style="overflow:visible;"/>
							</clipPath>
						</g>
						<path class="st12" d="M237.64,332.88l-1.66-2.25c0,0-2.6-0.48-2.38,2.36L237.64,332.88z"/>
					</g>
				</g>
				<path class="st12" d="M242.99,257.22l0.63,35.74c0.02,1.28-0.08,2.56-0.3,3.82l-4.28,23.99h-11.11c0,0,2.37-16.82-0.66-46.6
					c0,0-2.18-12.93,3.79-16.88L242.99,257.22z"/>
			</g>
		</g>
		<g>
			<g>
				<g>
					<g>
						<path class="st14" d="M244.31,240.42l8.2,5.97l8.21-12.05l2.77,1.52c0,0-3.33,11.32-7.76,17.04c-0.77,1-2.12,1.34-3.3,0.88
							c-2.4-0.94-6.87-3.13-12.44-7.86L244.31,240.42z"/>
						<path class="st15" d="M246.62,241.92l-5.71,9.51l-5.52-4.25c-2.25-1.73-2.79-4.91-1.22-7.29v0c1.76-2.68,5.46-3.26,7.95-1.24
							L246.62,241.92z"/>
					</g>
					<g>
						<g>
							<path class="st9" d="M260.73,234.34l2.77,1.52l3.41-4.69c0,0-5.19-2.28-5.16-2.2S260.73,234.34,260.73,234.34z"/>
							<path class="st9" d="M260.73,234.34c0.08-0.26-0.81-3.48-1.01-4.61c-0.05-0.27,0.17-0.53,0.46-0.55l0,0
								c0.19-0.01,0.36,0.09,0.43,0.25l1.09,2.37L260.73,234.34z"/>
							<path class="st9" d="M261.75,228.97l0.67-1.1c0.09-0.27,0.4-0.43,0.67-0.34l0,0c0.24,0.08,0.37,0.32,0.31,0.56l-0.8,2.15
								L261.75,228.97z"/>
							<path class="st9" d="M263.04,229.5l1.41-1.7c0.13-0.25,0.45-0.36,0.7-0.23l0,0c0.22,0.11,0.31,0.35,0.23,0.58l-1.34,2.42
								L263.04,229.5z"/>
							<path class="st9" d="M264.33,230.31l1.54-2.3c0.17-0.26,0.52-0.34,0.78-0.18l0,0c0.24,0.15,0.32,0.45,0.17,0.7l-1.55,2.64
								L264.33,230.31z"/>
							<path class="st9" d="M266.9,231.17l0.88-1.4c0.12-0.2,0.07-0.45-0.12-0.58l0,0c-0.19-0.12-0.44-0.08-0.6,0.09l-1.8,1.88
								L266.9,231.17z"/>
						</g>
					</g>
				</g>
				<g>
					<path class="st16" d="M293.19,262.06h-34.82c-2.19,0-3.97-1.78-3.97-3.97v-34.26c0-2.19,1.78-3.97,3.97-3.97h34.82
						c2.19,0,3.97,1.78,3.97,3.97v34.26C297.15,260.28,295.38,262.06,293.19,262.06z"/>
					<g>
						<polyline class="st17" points="263.96,252.65 273.05,241.02 278.21,244.59 287.44,233.4 						"/>
						<polyline class="st17" points="285.14,233.21 287.72,233.2 287.94,235.66 						"/>
					</g>
				</g>
			</g>
			<g>
				<g>
					<path class="st18" d="M233.28,235.4c0,0-6.04,5.61-2.23,21.88l11.94-0.07c0,0,3.41-11.53-0.92-18.79L233.28,235.4z"/>
					<path class="st9" d="M233.28,235.4c0,0,3.33,3.18,8.79,3.03l-3.82-4.51h-4.19L233.28,235.4z"/>
				</g>
				<path class="st18" d="M242.07,238.43c0,0,8.22,3.7,2.17,10.13c-6.05,6.43-6.57-5.07-6.57-5.07L242.07,238.43z"/>
				<g>
					<g>
						<path class="st9" d="M242.33,243.62l6.46,7.82l10.95-9.63l2.3,2.17c0,0-6.04,10.14-11.75,14.58c-1,0.77-2.39,0.77-3.41,0.03
							c-2.09-1.51-5.88-4.74-10.09-10.7L242.33,243.62z"/>
						<path class="st18" d="M244.2,245.65l-7.89,7.79l-4.29-5.49c-1.75-2.24-1.48-5.45,0.62-7.36l0,0c2.38-2.16,6.1-1.8,8.01,0.78
							L244.2,245.65z"/>
					</g>
					<g>
						<g>
							<path class="st9" d="M259.74,241.81l2.3,2.17l4.46-3.7c0,0-4.46-3.5-4.45-3.41C262.08,236.95,259.74,241.81,259.74,241.81z"
								/>
							<path class="st9" d="M259.74,241.81c0.15-0.23,0.08-3.58,0.16-4.71c0.02-0.27,0.3-0.47,0.58-0.41l0,0
								c0.18,0.04,0.33,0.18,0.36,0.35l0.47,2.57L259.74,241.81z"/>
							<path class="st9" d="M262.06,236.87l1.15-1.82c0.15-0.24,0.49-0.32,0.74-0.16l0,0c0.21,0.14,0.28,0.4,0.16,0.62l-1.55,2.8
								L262.06,236.87z"/>
							<path class="st9" d="M263.19,237.7l2.03-2.21c0.19-0.21,0.52-0.23,0.74-0.05l0,0c0.18,0.16,0.22,0.42,0.07,0.62l-2.13,2.93
								L263.19,237.7z"/>
							<path class="st9" d="M264.23,238.8l2.06-1.85c0.23-0.21,0.59-0.2,0.8,0.02l0,0c0.2,0.2,0.19,0.52-0.01,0.72l-2.16,2.17
								L264.23,238.8z"/>
							<path class="st9" d="M266.51,240.28l1.2-1.13c0.17-0.16,0.18-0.42,0.02-0.59l0,0c-0.15-0.16-0.41-0.19-0.6-0.06l-2.21,1.38
								L266.51,240.28z"/>
						</g>
					</g>
				</g>
			</g>
		</g>
	</g>
	<g>
		<g>
			<path class="st12" d="M370.53,206.64c2.01-0.1,3.73,1.34,4.04,3.28c0.46-0.34,1.03-0.56,1.65-0.59c1.67-0.08,3.05,0.65,3.45,2.31
				c9.6-1.04,0.6,13.08,0.6,13.08l-0.73-5.44l-0.27-6.1c-0.34,1.22-1.43,2.13-2.76,2.2c-1.4,0.07-2.62-0.83-3.02-2.1
				c-0.66,0.67-1.56,1.1-2.58,1.15c-2.15,0.1-3.98-1.56-4.08-3.71C366.72,208.57,368.38,206.74,370.53,206.64z"/>
			<path class="st19" d="M380.73,220.27l-0.21,10.72c-0.04,1.9-1.54,3.45-3.44,3.54l0,0c-2.04,0.1-3.75-1.51-3.79-3.55l-0.16-9
				L380.73,220.27z"/>
			<path class="st12" d="M379.99,222.74c0,0,0,7.03-6.73,6.18l-0.06-3.24L379.99,222.74z"/>
			<path class="st19" d="M374.74,227.25l0.22,0c3.27,0,5.93-2.65,5.93-5.92l0-6.69c0-0.85-0.69-1.53-1.53-1.53l-7.8-0.01
				c-1.51,0-2.74,1.22-2.74,2.74l0,5.48C368.81,224.6,371.47,227.25,374.74,227.25z"/>
			<g>
				<path class="st12" d="M374.7,219.43c0.02,0.27,0.25,0.47,0.52,0.44c0.27-0.02,0.47-0.25,0.44-0.52
					c-0.02-0.27-0.25-0.47-0.52-0.44C374.87,218.93,374.67,219.16,374.7,219.43z"/>
				<path class="st12" d="M369.89,219.43c0.02,0.27,0.25,0.47,0.52,0.44c0.27-0.02,0.47-0.25,0.44-0.52
					c-0.02-0.27-0.25-0.47-0.52-0.44C370.07,218.94,369.87,219.17,369.89,219.43z"/>
				<path class="st20" d="M371.81,219.88l-0.16,1.16c0,0,0.09,0.73,1.12,0.44"/>
				<path class="st12" d="M376.45,217.55c-0.03,0-0.06,0.01-0.09,0.01l-2.19-0.08c-0.24-0.01-0.43-0.21-0.43-0.46
					c0.01-0.24,0.21-0.43,0.46-0.43l2.19,0.08c0.24,0.01,0.43,0.21,0.43,0.46C376.81,217.34,376.65,217.51,376.45,217.55z"/>
				<path class="st12" d="M370.8,217.48c-0.03,0-0.06,0.01-0.09,0.01l-1.34-0.05c-0.24-0.01-0.43-0.21-0.43-0.46
					c0.01-0.24,0.21-0.43,0.46-0.43l1.34,0.05c0.24,0.01,0.43,0.21,0.43,0.46C371.16,217.27,371,217.44,370.8,217.48z"/>
				<path class="st21" d="M371.17,222.74h3.68c0,0-0.13,1.13-1.98,1.08C371.26,223.78,371.17,222.74,371.17,222.74z"/>
			</g>
			<path class="st12" d="M380.73,220.27c0,0-3.4-0.77-2.75-5.93l-8.6-0.15l0.21-2.1l9.54,0.13c1.36,0.02,2.41,1.2,2.28,2.55
				L380.73,220.27z"/>
			<path class="st19" d="M379.54,220.1c0,1.05,0.85,1.91,1.9,1.91s1.91-0.85,1.91-1.9c0-1.05-0.85-1.91-1.9-1.91
				C380.39,218.2,379.54,219.05,379.54,220.1z"/>
		</g>
		<g>
			<g>
				<g>
					<polygon class="st19" points="384.28,332.98 390.84,332.98 389.92,323.84 383.36,323.84 					"/>
					<g>
						<g>
							<defs>
								<path id="XMLID_139_" d="M390.84,331.92h-8.32l-6.92,2.9c-1.37,0.71-2.24,2.12-2.24,3.67l0,0h18.52L390.84,331.92z"/>
							</defs>
							<use xlink:href="#XMLID_139_"  style="overflow:visible;fill:#262127;"/>
							<clipPath id="XMLID_00000049911256285984753620000004394877258211243967_">
								<use xlink:href="#XMLID_139_"  style="overflow:visible;"/>
							</clipPath>
						</g>
						<path class="st12" d="M381.85,332.23l1.87-2.54c0,0,2.93-0.53,2.67,2.65L381.85,332.23z"/>
					</g>
				</g>
				<path class="st3" d="M388.07,262.52c0,0,1.87,5.4,1.31,14.09l3.46,49.74h-12.34l-4.01-36.52l-1.78-27.38L388.07,262.52z"/>
			</g>
			<g>
				<g>
					
						<rect x="365.58" y="321.3" transform="matrix(-0.9766 0.2149 -0.2149 -0.9766 799.1105 564.5719)" class="st19" width="6.56" height="8.86"/>
					<g>
						<g>
							<defs>
								<path id="XMLID_138_" d="M372.79,328.32l-8.12,1.79l-6.13,4.32c-1.19,0.99-1.73,2.55-1.4,4.06l0,0l17.58-3.87L372.79,328.32
									z"/>
							</defs>
							<use xlink:href="#XMLID_138_"  style="overflow:visible;fill:#262127;"/>
							<clipPath id="XMLID_00000067943235520287344990000015941266527031199385_">
								<use xlink:href="#XMLID_138_"  style="overflow:visible;"/>
							</clipPath>
						</g>
						<path class="st12" d="M364.07,330.56l1.28-2.88c0,0,2.75-1.15,3.18,2.01L364.07,330.56z"/>
					</g>
				</g>
				<path class="st3" d="M365.94,263.05l-11.71,29.3c-0.56,1.31-0.69,2.75-0.38,4.14l8.56,28.69l12.27-2.59l-7.3-26.74l15.99-32.83
					L365.94,263.05z"/>
				<path class="st22" d="M375.76,278.61l-0.12-6.51c0,0-5.49,10.34-6.84,20.8L375.76,278.61z"/>
			</g>
		</g>
		<g>
			<path class="st23" d="M366.61,232.03c0,0-4.94,2.5-4.51,19.7l6.67,0.42l-0.85-18.47L366.61,232.03z"/>
			<g>
				<path class="st2" d="M377.01,230.49l-9.64,1.24c-1.73,0.23-2.56,3-2.45,4.06l1.02,27.26L388.2,263l2.09-26.59
					c0.27-2.16-1.03-4.72-3-4.77L377.01,230.49z"/>
				<path class="st19" d="M372.49,231.08l4.52-0.83l4.96,0.8c0,0-0.43,4.13-6.66,3.4c-0.94-0.11-1.84-0.45-2.48-1.03
					C372.19,232.84,371.96,232.2,372.49,231.08z"/>
				<polygon class="st23" points="389.26,248.96 384.36,241.2 384.36,258.26 				"/>
			</g>
			<g>
				<path class="st16" d="M419.76,277.8h-64.81c-2.16,0-3.91-1.75-3.91-3.91v-23.95c0-2.16,1.75-3.91,3.91-3.91h64.81
					c2.16,0,3.91,1.75,3.91,3.91v23.95C423.67,276.05,421.92,277.8,419.76,277.8z"/>
				<g>
					<line class="st24" x1="359.95" y1="255.02" x2="414.69" y2="255.02"/>
					<line class="st24" x1="359.95" y1="261.16" x2="391.49" y2="261.16"/>
					<line class="st24" x1="372.09" y1="268.08" x2="380.61" y2="268.08"/>
					<line class="st24" x1="359.95" y1="268.08" x2="367.32" y2="268.08"/>
				</g>
			</g>
			<g>
				<path class="st2" d="M381.41,236.77c0,0,6.04,8.95,11.42,18.14c0.6,1.03,2.18,1.65,3.38,1.71l0,0c2.69,0.12,4.08-2.67,3.27-5.11
					c0,0-9.35-18.69-10.51-19.11C388.79,232.32,381.41,236.77,381.41,236.77z"/>
				<g>
					<polygon class="st19" points="393.97,274.62 394.13,270.28 399.03,270.56 398.87,274.62 					"/>
					<path class="st19" d="M394.95,273.07c2.26-0.49,4.49,0.95,4.98,3.21c0.49,2.26-0.95,4.49-3.21,4.98
						c-2.26,0.49-4.49-0.95-4.98-3.21C391.25,275.79,392.69,273.56,394.95,273.07z"/>
				</g>
				<path class="st2" d="M392.33,254.21l0.39,16.84l7.88-0.44l-0.61-17.5c-0.37-2.49-2.97-3.97-5.3-3.01l0,0
					C393.06,250.78,392.09,252.46,392.33,254.21z"/>
			</g>
		</g>
	</g>
	<g>
		<g>
			<path class="st25" d="M214.08,188.59H202.8c-0.58,0-1.05,0.47-1.05,1.06v6.34c0,0.59,0.47,1.06,1.05,1.06h4.59l3.86,4.31v-4.15
				l2.84-0.06c0.57-0.01,1.02-0.48,1.02-1.06v-6.44C215.12,189.07,214.66,188.59,214.08,188.59z"/>
			<path class="st26" d="M439.46,237.08c0,1.76-1.41,3.2-3.15,3.2c-1.74,0-3.15-1.43-3.15-3.2c0-1.76,1.41-3.2,3.15-3.2
				C438.05,233.89,439.46,235.32,439.46,237.08z"/>
			<ellipse class="st26" cx="197.61" cy="284.34" rx="2.3" ry="2.33"/>
			<rect x="371.79" y="170.91" class="st26" width="4.77" height="4.83"/>
		</g>
		<g>
			<g>
				<g>
					<path class="st2" d="M426.49,221.6h-19.9v-10.07c0-0.83,0.68-1.51,1.51-1.51h18.39c0.83,0,1.51,0.68,1.51,1.51v8.56
						C428,220.92,427.33,221.6,426.49,221.6z"/>
					<polygon class="st2" points="406.59,219.2 406.57,224.32 410.94,219.22 					"/>
					<g>
						<path class="st21" d="M420.9,215.68c0,0.53,0.43,0.97,0.96,0.97c0.53,0,0.97-0.43,0.97-0.96c0-0.53-0.43-0.97-0.96-0.97
							C421.34,214.71,420.91,215.14,420.9,215.68z"/>
						<path class="st21" d="M416.77,215.66c0,0.53,0.43,0.97,0.96,0.97c0.53,0,0.97-0.43,0.97-0.96c0-0.53-0.43-0.97-0.96-0.97
							C417.2,214.7,416.77,215.13,416.77,215.66z"/>
						<path class="st21" d="M412.63,215.65c0,0.53,0.43,0.97,0.96,0.97c0.53,0,0.97-0.43,0.97-0.96c0-0.53-0.43-0.97-0.96-0.97
							C413.07,214.69,412.64,215.12,412.63,215.65z"/>
					</g>
				</g>
			</g>
			<g>
				<g>
					<path class="st2" d="M351.25,181.53H303.1c-0.76,0-1.38-0.62-1.38-1.38v-11.2c0-0.76,0.62-1.38,1.38-1.38h48.15
						c0.76,0,1.38,0.62,1.38,1.38v11.2C352.63,180.92,352.01,181.53,351.25,181.53z"/>
					<g>
						<line class="st6" x1="307.02" y1="172.88" x2="341.48" y2="172.88"/>
						<line class="st6" x1="307.02" y1="176.23" x2="317.92" y2="176.23"/>
					</g>
				</g>
				<polygon class="st2" points="307.02,179.95 307.02,186.39 313.87,179.95 				"/>
			</g>
		</g>
	</g>
</g>
</svg>
