<?xml version="1.0" encoding="utf-8"?>
<!-- Generator: Adobe Illustrator 27.3.1, SVG Export Plug-In . SVG Version: 6.00 Build 0)  -->
<svg version="1.1" id="OBJECTS" xmlns="http://www.w3.org/2000/svg" xmlns:xlink="http://www.w3.org/1999/xlink" x="0px" y="0px"
	 viewBox="0 0 500 500" style="enable-background:new 0 0 500 500;" xml:space="preserve">
<style type="text/css">
	.st0{fill:none;stroke:#D6B1B1;stroke-width:0.4556;stroke-miterlimit:10;}
	.st1{fill:#F6E5E0;}
	.st2{fill:#3767E3;}
	.st3{fill:#E1723E;}
	.st4{fill:none;stroke:#D6B1B1;stroke-width:0.3121;stroke-miterlimit:10;}
	.st5{fill:none;stroke:#D6B1B1;stroke-width:0.437;stroke-miterlimit:10;}
	.st6{fill:none;stroke:#FFFFFF;stroke-width:0.4227;stroke-miterlimit:10;}
	.st7{fill:none;stroke:#FFFFFF;stroke-width:0.4206;stroke-miterlimit:10;}
	.st8{fill:none;stroke:#D4AFAF;stroke-width:0.4326;stroke-miterlimit:10;}
	.st9{fill:none;stroke:#D4AFAF;stroke-width:0.4783;stroke-miterlimit:10;}
	.st10{fill:#EBC22F;}
	.st11{fill:none;stroke:#FFFFFF;stroke-width:0.5361;stroke-miterlimit:10;}
	.st12{fill:#71CA93;}
	.st13{fill:#FFFFFF;}
	.st14{fill:none;stroke:#FFFFFF;stroke-width:0.4842;stroke-miterlimit:10;}
	.st15{fill:#FDFDFD;}
	.st16{fill:none;stroke:#262127;stroke-width:0.2687;stroke-miterlimit:10;}
	.st17{fill:#1F2326;}
	.st18{fill:#E5A6A8;}
	.st19{fill:#97614E;}
	.st20{fill:#262127;}
	.st21{fill:none;stroke:#7D463B;stroke-width:0.5352;stroke-linecap:round;stroke-linejoin:round;stroke-miterlimit:10;}
	.st22{fill:none;stroke:#7D463B;stroke-width:0.5164;stroke-linecap:round;stroke-linejoin:round;stroke-miterlimit:10;}
	.st23{fill:#D6642E;}
	.st24{fill:#C25225;}
	.st25{fill:#DCB123;}
	.st26{fill:none;stroke:#DCB123;stroke-width:0.5088;stroke-miterlimit:10;}
	.st27{fill:#0C0006;}
	.st28{fill:#2C3236;}
	.st29{fill:none;stroke:#000000;stroke-width:1.0176;stroke-miterlimit:10;}
</style>
<g>
	<g>
		<g>
			<g>
				<path class="st0" d="M407.4,317.3H156.3c-3.2,0-5.7-2.6-5.7-5.7V171.8c0-3.2,2.6-5.7,5.7-5.7h251.1c3.2,0,5.7,2.6,5.7,5.7v139.8
					C413.2,314.7,410.6,317.3,407.4,317.3z"/>
				<path class="st1" d="M421.3,305.2H170.2c-3.2,0-5.7-2.6-5.7-5.7V159.7c0-3.2,2.6-5.7,5.7-5.7h251.1c3.2,0,5.7,2.6,5.7,5.7v139.8
					C427,302.7,424.5,305.2,421.3,305.2z"/>
				<g>
					<path class="st2" d="M187.5,163.7c0,1.8-1.4,3.2-3.2,3.2s-3.2-1.4-3.2-3.2s1.4-3.2,3.2-3.2S187.5,162,187.5,163.7z"/>
					<path class="st3" d="M198,163.7c0,1.8-1.4,3.2-3.2,3.2c-1.8,0-3.2-1.4-3.2-3.2s1.4-3.2,3.2-3.2C196.6,160.5,198,162,198,163.7z
						"/>
					<path class="st4" d="M208.6,163.7c0,1.8-1.4,3.2-3.2,3.2c-1.8,0-3.2-1.4-3.2-3.2s1.4-3.2,3.2-3.2
						C207.2,160.5,208.6,162,208.6,163.7z"/>
				</g>
			</g>
			<g>
				<path class="st5" d="M400.5,278.1h-95.2c-1.4,0-2.6-1.2-2.6-2.6V170.4c0-1.4,1.2-2.6,2.6-2.6h95.2c1.4,0,2.6,1.2,2.6,2.6v105.1
					C403.1,277,401.9,278.1,400.5,278.1z"/>
				<path class="st6" d="M378.5,243.3h-51.1c-3,0-5.5-2.5-5.5-5.5v-53c0-3,2.5-5.5,5.5-5.5h51.1c3,0,5.5,2.5,5.5,5.5v53
					C384,240.8,381.5,243.3,378.5,243.3z"/>
			</g>
			<g>
				<path class="st6" d="M226.5,223.4h-45.1c-3,0-5.5-2.5-5.5-5.5v-19.8c0-3,2.5-5.5,5.5-5.5h45.1c3,0,5.5,2.5,5.5,5.5v19.8
					C232,221,229.5,223.4,226.5,223.4z"/>
				<g>
					<line class="st7" x1="184.5" y1="201.7" x2="223.2" y2="201.7"/>
					<line class="st7" x1="184.5" y1="207.9" x2="197.3" y2="207.9"/>
					<line class="st7" x1="184.5" y1="214.2" x2="210.9" y2="214.2"/>
				</g>
			</g>
		</g>
		<g>
			<g>
				<path class="st8" d="M130.7,133.5h-16.9c-0.9,0-1.6,0.7-1.6,1.6v9.5c0,0.9,0.7,1.6,1.6,1.6h6.9l5.8,6.4v-6.2l4.2-0.1
					c0.9,0,1.5-0.7,1.5-1.6v-9.6C132.2,134.2,131.5,133.5,130.7,133.5z"/>
				<ellipse class="st9" cx="447.1" cy="333.6" rx="4.7" ry="4.8"/>
				<path class="st9" d="M88.9,293.1c0,1.9-1.5,3.5-3.4,3.5c-1.9,0-3.4-1.6-3.4-3.5s1.5-3.5,3.4-3.5
					C87.4,289.7,88.9,291.2,88.9,293.1z"/>
				<rect x="309.1" y="110.9" class="st9" width="7.1" height="7.2"/>
			</g>
			<g>
				<g>
					<g>
						<path class="st10" d="M442.2,255.7h-89c-1.4,0-2.5-1.1-2.5-2.5v-20.6c0-1.4,1.1-2.5,2.5-2.5h89c1.4,0,2.5,1.1,2.5,2.5v20.6
							C444.7,254.5,443.6,255.7,442.2,255.7z"/>
						<g>
							<line class="st11" x1="360.4" y1="240.2" x2="429.4" y2="240.2"/>
							<line class="st11" x1="360.4" y1="246.4" x2="373.1" y2="246.4"/>
						</g>
					</g>
				</g>
				<g>
					<g>
						<path class="st12" d="M95.2,213.6H134V194c0-1.6-1.3-2.9-2.9-2.9H95.2c-1.6,0-2.9,1.3-2.9,2.9v16.7
							C92.3,212.3,93.6,213.6,95.2,213.6z"/>
						<polygon class="st12" points="134,208.9 134.1,218.9 125.5,209 						"/>
						<g>
							<path class="st13" d="M106.1,202.1c0,1-0.8,1.9-1.9,1.9c-1,0-1.9-0.8-1.9-1.9s0.8-1.9,1.9-1.9
								C105.3,200.2,106.1,201,106.1,202.1z"/>
							<path class="st13" d="M114.2,202c0,1-0.8,1.9-1.9,1.9c-1,0-1.9-0.8-1.9-1.9c0-1,0.8-1.9,1.9-1.9
								C113.3,200.2,114.2,201,114.2,202z"/>
							<path class="st13" d="M122.2,202c0,1-0.8,1.9-1.9,1.9c-1,0-1.9-0.8-1.9-1.9s0.8-1.9,1.9-1.9C121.4,200.1,122.2,201,122.2,202
								z"/>
						</g>
					</g>
				</g>
				<g>
					<g>
						<g>
							<path class="st12" d="M407.5,202.7h-69.8c-2.1,0-3.8-1.7-3.8-3.8v-61.3c0-2.1,1.7-3.8,3.8-3.8h69.8c2.1,0,3.8,1.7,3.8,3.8
								v61.3C411.4,201,409.7,202.7,407.5,202.7z"/>
						</g>
						<g>
							<line class="st14" x1="358.8" y1="169.4" x2="376" y2="169.4"/>
							<line class="st14" x1="347.8" y1="177.5" x2="397.3" y2="177.5"/>
							<line class="st14" x1="347.8" y1="159" x2="389.4" y2="159"/>
							<line class="st14" x1="347.8" y1="186.7" x2="362.7" y2="186.7"/>
							<line class="st14" x1="366.5" y1="186.7" x2="377" y2="186.7"/>
							<line class="st14" x1="347.8" y1="169.4" x2="354.5" y2="169.4"/>
							<line class="st14" x1="347.8" y1="150.4" x2="354.5" y2="150.4"/>
						</g>
					</g>
					<g>
						<g>
							<ellipse class="st2" cx="407.5" cy="131.7" rx="12.8" ry="12.8"/>
						</g>
						<path class="st13" d="M412.1,128.5c-1.1-1.1-2.8-1-3.8,0l-0.7,0.7l-0.7-0.7c-1.1-1.1-2.8-1-3.8,0c-1.1,1.1-1,2.8,0,3.8
							l2.6,2.6l0,0c0.4,0.4,0.9,0.7,1.5,0.7c0.8,0.1,1.7-0.1,2.4-0.8l2.6-2.6C413.2,131.3,413.2,129.6,412.1,128.5z"/>
					</g>
				</g>
				<g>
					<g>
						<circle class="st2" cx="221.3" cy="116.9" r="16.6"/>
					</g>
					<g>
						<g>
							<g>
								<path class="st15" d="M218.5,122.8c2.9,0,5.8,0.1,8.4-0.1c0.8-0.1,1.6-1.4,0.5-1.8c0.4-0.2,0.9-0.4,1.1-0.9
									c0.2-0.5,0-1.1-0.5-1.2c1,0.2,1.4-1.3,0.6-1.8c0.4-0.4,0.7-0.8,0.8-1.3s-0.1-1.1-0.6-1.4c-0.3-0.2-0.7-0.2-1-0.2
									c-1.2,0-2.4,0-3.6,0c0.3-1.9,0.4-3.9-0.5-5.5c-0.3-0.5-1.1-1.1-1.7-0.7c-0.6,0.4-0.4,1.2-0.4,1.8c0.1,2.3-1.2,4.7-3.3,5.8
									C218.4,115.3,218.6,120.3,218.5,122.8z"/>
							</g>
						</g>
						<rect x="213.2" y="115.3" class="st15" width="4.3" height="7.5"/>
					</g>
				</g>
			</g>
		</g>
	</g>
	<g>
		<line class="st16" x1="188.8" y1="399.7" x2="351" y2="399.7"/>
		<line class="st16" x1="48.2" y1="383.3" x2="407.6" y2="383.3"/>
	</g>
	<g>
		<g>
			<g>
				<path d="M274.3,324.2h-41.4c-2.4,0-4.4-2-4.4-4.4l0,0c0-2.4,2-4.4,4.4-4.4h41.4c2.4,0,4.4,2,4.4,4.4l0,0
					C278.7,322.2,276.8,324.2,274.3,324.2z"/>
				<g>
					<rect x="246.9" y="373.7" width="55.6" height="5"/>
					<path class="st17" d="M251.7,377.7c0.4,2.6-1.3,5.1-4,5.5c-2.6,0.4-5.1-1.3-5.5-4c-0.4-2.6,1.3-5.1,4-5.5
						C248.8,373.3,251.2,375.1,251.7,377.7z"/>
					<rect x="272" y="321.3" width="5.4" height="55.4"/>
					<path d="M307.3,377.7c0.4,2.6-1.3,5.1-4,5.5c-2.6,0.4-5.1-1.3-5.5-4c-0.4-2.6,1.3-5.1,4-5.5
						C304.3,373.3,306.8,375.1,307.3,377.7z"/>
				</g>
				<path class="st17" d="M302.8,324.2h-48.9c-3.3,0-5.7-3.3-4.8-6.5l23.3-80.5c0.6-2.2,2.6-3.6,4.8-3.6h48.9c3.3,0,5.7,3.3,4.8,6.5
					l-23.3,80.5C307,322.7,305,324.2,302.8,324.2z"/>
				<path class="st18" d="M296.1,324.2h-42.6c-3.3,0-5.7-3.3-4.8-6.5l23.3-80.5c0.6-2.2,2.6-3.6,4.8-3.6h42.6c3.3,0,5.7,3.3,4.8,6.5
					l-23.3,80.5C300.3,322.7,298.3,324.2,296.1,324.2z"/>
				<path class="st17" d="M302.8,324.2h-51.7c-2.4,0-4.4-2-4.4-4.4l0,0c0-2.4,2-4.4,4.4-4.4h51.7c2.4,0,4.4,2,4.4,4.4l0,0
					C307.2,322.2,305.2,324.2,302.8,324.2z"/>
			</g>
			<g>
				<g>
					<g>
						<path class="st19" d="M267.5,205.3L270,226c-0.1,3.7-3,6.6-6.7,6.8l0,0c-3.9,0.2-7.2-3-7.3-6.9l-3.3-17.4L267.5,205.3z"/>
					</g>
					<path class="st20" d="M246.6,190.4c0,0-10.4,0-2.3,13.9l2.3-6.9V190.4z"/>
					<path class="st19" d="M255.8,222.8L255.8,222.8c-6.9,0-12.5-4.2-12.5-11V198c0-3,2.5-5.5,5.5-5.5h14.1c3,0,5.5,2.5,5.5,5.5
						v11.8C268.3,216.7,261.6,222.8,255.8,222.8z"/>
					<path class="st20" d="M266.2,205.2L266.2,205.2c0,0-7.6-4.1-3.4-12.6h7c0,0,1.9-0.5,3.5,1.5c1.5,2-2.2,11-2.2,11L266.2,205.2
						L266.2,205.2z"/>
					<path class="st19" d="M273.8,206.8c0,2.5-2,4.5-4.5,4.5s-4.5-2-4.5-4.5s2-4.5,4.5-4.5S273.8,204.3,273.8,206.8z"/>
					<path class="st20" d="M250.1,182.7c1.3-1,2.9-1.6,4.8-1.6c2,0,3.8,0.7,5.1,1.9c1.2-0.8,2.7-1.3,4.3-1.3c3.7,0,6.7,4.1,7.2,7.3
						c2.3,0.2,4.6,1.5,4.6,4c0,2.7-2.5,4.1-5.1,4.1c-1.8,0-3.4-1.2-4.2-2.8c-0.8,0.3-1.7,0.4-2.6,0.4c-0.9,0-1.8-0.2-2.6-0.4
						c-5.5,0.4-16.8,1.9-20-1.7C234.9,185,245.3,179.1,250.1,182.7z"/>
					<path class="st20" d="M263.6,200.2c0,0,0.9,9.1-1,11.9c-1.9,2.7-2.9-0.7-10.8-0.9c-4.6-0.1-6.9,0.9-8,1.6
						c-0.6,0.4-0.5,1.2-0.3,1.9c0.6,2.4,2.5,7.9,10,8.5c7.4,0.5,15-3.7,13.6-14.2c-1.5-11.8,2.8-16.5,2.8-16.5L263.6,200.2z"/>
					<g>
						<path class="st20" d="M255.2,205.4c0,0.5,0.5,1,1.1,0.9c0.5,0,1-0.5,0.9-1.1c0-0.5-0.5-1-1.1-0.9
							C255.5,204.4,255.1,204.8,255.2,205.4z"/>
						<path class="st20" d="M245.8,205.3c0,0.5,0.5,1,1.1,0.9c0.5,0,1-0.5,0.9-1.1c0-0.5-0.5-1-1.1-0.9
							C246.2,204.3,245.7,204.8,245.8,205.3z"/>
						<path class="st21" d="M249.4,206.3l-0.3,2.7c0,0,0.2,1.5,2.3,0.9"/>
						<path class="st20" d="M258.8,202.4c-0.1,0-0.1,0-0.2,0l-4.5-0.2c-0.5,0-0.9-0.4-0.9-0.9c0-0.5,0.4-0.9,0.9-0.9l4.5,0.2
							c0.5,0,0.9,0.4,0.9,0.9C259.6,202,259.2,202.3,258.8,202.4z"/>
						<path class="st20" d="M247.7,202.2c-0.1,0-0.1,0-0.2,0l-2.7-0.1c-0.5,0-0.9-0.4-0.9-0.9c0-0.5,0.4-0.9,0.9-0.9l2.7,0.1
							c0.5,0,0.9,0.4,0.9,0.9C248.4,201.7,248.1,202.1,247.7,202.2z"/>
						<path class="st22" d="M251,213.9c0,0,1.8,0.6,3.6-0.5"/>
					</g>
				</g>
				<g>
					<g>
						<g>
							
								<rect x="193.5" y="357.2" transform="matrix(0.5074 -0.8617 0.8617 0.5074 -213.715 353.0866)" class="st19" width="16.9" height="12.5"/>
							<g>
								<g>
									<g>
										<path id="XMLID_135_" class="st20" d="M204.1,372.2l-13.7-8.1l-14.2-1.9c-2.9-0.2-5.7,1.3-7.2,3.9l0,0l30.6,17.2
											L204.1,372.2z"/>
									</g>
								</g>
								<path class="st20" d="M189,364l5.5-2.4c0,0,5.3,2,1.8,6.9L189,364z"/>
							</g>
						</g>
						<g>
							<path class="st23" d="M250.6,288.3h-16.9c-7.8,0-14.9,4.5-18.2,11.5l-22.1,54l21.8,9.2l21-47.8l35.9,0.3l10.6-27.3
								L250.6,288.3L250.6,288.3z"/>
							
								<rect x="201.4" y="340.9" transform="matrix(0.3866 -0.9222 0.9222 0.3866 -200.4196 407.1752)" class="st24" width="9" height="26.7"/>
						</g>
					</g>
					<g>
						<g>
							
								<rect x="254.5" y="355.7" transform="matrix(1 -4.229774e-03 4.229774e-03 1 -1.5381 1.1064)" class="st19" width="12.5" height="16.9"/>
							<g>
								<g>
									<g>
										<path id="XMLID_133_" class="st20" d="M267.1,370.6l-15.9,0.1l-13.2,5.6c-2.6,1.4-4.3,4.1-4.2,7l0,0l34.9-0.1L267.1,370.6
											z"/>
									</g>
								</g>
								<path class="st20" d="M249.9,371.3l3.6-4.9c0,0,5.6-1,5.1,5L249.9,371.3z"/>
							</g>
						</g>
						<g>
							<path class="st3" d="M295.6,288.2l0.9,5.4c1.9,11.5-7,22-18.7,22h-5.6v47.6l-23.2,0.3l-1.3-58.4c-0.2-9.3,7.3-16.9,16.6-16.9
								L295.6,288.2z"/>
							<rect x="246.8" y="354.5" class="st23" width="26.7" height="9"/>
						</g>
					</g>
				</g>
				<g>
					<g>
						<path class="st10" d="M241,230.1c0,0-11.5,15.8-19.7,34.4c-0.9,2.1-0.7,4.5,0.5,6.4l0,0c2.8,4.3,10.3,3.3,13.1-0.7
							c0,0,21.9-30,20.9-31.3C255.6,238.6,241,230.1,241,230.1z"/>
						<path class="st10" d="M227.4,259l-31.6-6.3l-2.5,14.9l32.9,6.2c4.8,0.4,8.6-3.9,7.8-8.6l0,0
							C233.5,261.8,230.8,259.3,227.4,259z"/>
						<path class="st25" d="M245.4,255.4l-1.7-7.5c0,0-6,18.4-5.8,18.2C238,265.9,245.4,255.4,245.4,255.4z"/>
					</g>
					<g>
						<path class="st10" d="M263.3,226.1l-19.8,2.6c-2,0.3-3.5,2.1-3.3,4.1l12.8,55.6l42.6-0.1l-6.7-55.4c0.2-2.1-1.2-4-3.3-4.2
							L263.3,226.1z"/>
						<path class="st19" d="M256.4,226.9l-4.8,0.6c0,0-0.7,6.2,8.1,7.3c8.8,1.1,13.1-3.2,14.8-7.6l-10.6-2.1L256.4,226.9z"/>
						<path class="st26" d="M248.9,227.9c0,0-0.7,10,12.2,10c14.6,0,15.9-10.3,15.9-10.3"/>
						<polygon class="st25" points="276.1,246.5 286.5,265.1 266.6,265.4 280.1,262.8 						"/>
					</g>
					<g>
						<g>
							<g>
								<polygon class="st19" points="259.5,269.1 267.8,269.2 267.6,278.6 259.8,278.5 								"/>
								<path class="st19" d="M262.5,270.9c1.1,4.3-1.5,8.6-5.8,9.7c-4.3,1.1-8.6-1.5-9.7-5.8c-1.1-4.3,1.5-8.6,5.8-9.7
									C257.1,264,261.4,266.6,262.5,270.9z"/>
							</g>
							<path class="st10" d="M298.8,265.1l-32.2,0.3l0.6,15.1l33.5-0.7c4.8-0.6,7.7-5.6,5.9-10.1l0,0
								C305.3,266.6,302.1,264.7,298.8,265.1z"/>
						</g>
						<path class="st10" d="M272.1,239c0,0,10.4,20.6,22.2,37.3c1.3,1.9,4.4,2.8,6.7,2.7l0,0c5.1-0.2,7.3-5.8,5.4-10.3
							c0,0-17-38.9-19.3-39.6C286.8,229,272.1,239,272.1,239z"/>
					</g>
				</g>
			</g>
		</g>
		<g>
			<g>
				<path class="st27" d="M252.3,277.1h-36.8V273h36.8c1.1,0,2.1,0.9,2.1,2.1l0,0C254.3,276.2,253.4,277.1,252.3,277.1z"/>
				<g>
					<path class="st28" d="M220.3,277.1h-48.8c-2.8,0-5.3-1.9-6-4.6l-9.5-34.2c-0.8-3,1.4-6,4.6-6h44.8c1.9,0,3.5,1.3,4,3.1
						L220.3,277.1z"/>
					<path class="st13" d="M190.6,256.7c0,2.6-2.1,4.6-4.6,4.6s-4.6-2.1-4.6-4.6c0-2.6,2.1-4.6,4.6-4.6
						C188.5,252.1,190.6,254.1,190.6,256.7z"/>
				</g>
			</g>
			<g>
				<g>
					<line class="st29" x1="133.4" y1="279" x2="102.6" y2="383.3"/>
					<line class="st29" x1="166.1" y1="279" x2="135.3" y2="383.3"/>
				</g>
				<g>
					<line class="st29" x1="318.6" y1="279" x2="349.4" y2="383.3"/>
					<line class="st29" x1="285.9" y1="279" x2="316.7" y2="383.3"/>
				</g>
				<rect x="113.2" y="277.1" class="st17" width="233.3" height="3.7"/>
			</g>
		</g>
	</g>
</g>
</svg>
