<?xml version="1.0" encoding="utf-8"?>
<!-- Generator: Adobe Illustrator 27.3.1, SVG Export Plug-In . SVG Version: 6.00 Build 0)  -->
<svg version="1.1" id="svg1299" xmlns="http://www.w3.org/2000/svg" xmlns:xlink="http://www.w3.org/1999/xlink" x="0px" y="0px"
	 viewBox="0 0 682.67 682.67" style="enable-background:new 0 0 682.67 682.67;" xml:space="preserve">
<style type="text/css">
	.st0{fill:none;stroke:#3767E3;stroke-width:40;stroke-linecap:round;stroke-linejoin:round;stroke-miterlimit:13.3333;}
</style>
<g id="g1315" transform="translate(354,256)">
	<path id="path1317" class="st0" d="M-143.33,85.33h262.22 M-38.44-19.56L-143.33,85.33l104.89,104.89 M-269.31,353.14l-11.16-11.16
		c-30.01-30-46.86-70.7-46.86-113.14V-58.17c0-42.43,16.86-83.13,46.86-113.14l11.16-11.16c30-30.01,70.7-46.86,113.14-46.86h287.01
		c42.43,0,83.13,16.86,113.14,46.86l11.16,11.16c30.01,30,46.86,70.7,46.86,113.14v287.01c0,42.43-16.86,83.13-46.86,113.14
		l-11.16,11.16c-30,30.01-70.7,46.86-113.14,46.86h-287.01C-198.61,400-239.3,383.14-269.31,353.14L-269.31,353.14z"/>
</g>
</svg>
