<?xml version="1.0" encoding="utf-8"?>
<!-- Generator: Adobe Illustrator 27.3.1, SVG Export Plug-In . SVG Version: 6.00 Build 0)  -->
<svg version="1.1" id="svg1299" xmlns="http://www.w3.org/2000/svg" xmlns:xlink="http://www.w3.org/1999/xlink" x="0px" y="0px"
	 viewBox="0 0 682.67 682.67" style="enable-background:new 0 0 682.67 682.67;" xml:space="preserve">
<style type="text/css">
	.st0{fill:#3767E3;}
</style>
<path class="st0" d="M609.14,84.69l-11.17-11.16c-30-30.01-70.7-46.86-113.13-46.86H197.83c-42.44,0-83.13,16.85-113.14,46.86
	L73.53,84.69c-30.01,30.01-46.86,70.7-46.86,113.14v287.01c0,42.43,16.85,83.13,46.86,113.13l11.16,11.17
	c30.01,30,70.7,46.86,113.14,46.86h287.01c42.43,0,83.13-16.86,113.13-46.86l11.17-11.17c30-30,46.86-70.7,46.86-113.13V197.83
	C656,155.39,639.14,114.7,609.14,84.69z M492.37,342.92c0,0.13-0.02,0.26-0.03,0.39c-0.03,0.32-0.07,0.65-0.12,0.97
	c-0.05,0.33-0.1,0.65-0.17,0.97c-0.19,0.96-0.45,1.91-0.78,2.83c-0.11,0.3-0.23,0.61-0.35,0.91c-0.25,0.6-0.53,1.19-0.84,1.76
	c-0.62,1.17-1.36,2.27-2.21,3.3c-0.41,0.5-0.84,0.97-1.29,1.42v0.01L381.69,460.37c-3.9,3.9-9.02,5.85-14.14,5.85
	s-10.24-1.95-14.14-5.86c-7.81-7.81-7.81-20.47,0-28.28l70.75-70.75H210.22c-11.05,0-20-8.95-20-20c0-11.04,8.95-20,20-20h213.94
	l-70.75-70.74c-7.81-7.81-7.81-20.48,0-28.29s20.47-7.81,28.28,0l104.89,104.89c1.41,1.41,2.58,3,3.5,4.73
	c0.31,0.57,0.59,1.16,0.84,1.76c0.12,0.3,0.24,0.6,0.35,0.91c0.11,0.31,0.21,0.61,0.31,0.93c0.28,0.93,0.5,1.89,0.64,2.86
	c0.05,0.32,0.09,0.65,0.12,0.97c0.01,0.12,0.02,0.24,0.03,0.36c0.05,0.53,0.07,1.07,0.07,1.62
	C492.44,341.87,492.42,342.4,492.37,342.92z"/>
</svg>
