<?xml version="1.0" encoding="utf-8"?>
<!-- Generator: Adobe Illustrator 27.3.1, SVG Export Plug-In . SVG Version: 6.00 Build 0)  -->
<svg version="1.1" id="Layer_1" xmlns="http://www.w3.org/2000/svg" xmlns:xlink="http://www.w3.org/1999/xlink" x="0px" y="0px"
	 viewBox="0 0 500 500" style="enable-background:new 0 0 500 500;" xml:space="preserve">
<style type="text/css">
	.st0{fill:none;stroke:#DED8D5;stroke-width:1.9678;stroke-miterlimit:10;}
	.st1{fill:#006BE3;}
	.st2{fill:#FB7341;}
	.st3{fill:#13C992;}
	.st4{fill:none;stroke:#FFFFFF;stroke-width:1.6466;stroke-linecap:round;stroke-linejoin:round;stroke-miterlimit:10;}
	.st5{fill:#FFFFFF;}
	.st6{fill:#FFB1A5;}
	.st7{fill:none;stroke:#FFFFFF;stroke-width:1.1803;stroke-miterlimit:10;}
	.st8{fill:#231B22;}
	.st9{fill:none;stroke:#100E11;stroke-miterlimit:10;}
	.st10{fill:#A6614E;}
	.st11{fill:#372F5F;}
	.st12{fill:#261B43;}
	.st13{fill:#E6E6E6;}
	.st14{fill:#F7C12D;}
	.st15{fill:none;stroke:#E9B023;stroke-miterlimit:10;}
	.st16{fill:#171223;}
	.st17{fill:#282828;}
	.st18{fill:none;stroke:#8B453A;stroke-width:1.5;stroke-linecap:round;stroke-linejoin:round;stroke-miterlimit:10;}
	.st19{fill:none;stroke:#ECE8ED;stroke-width:1.3423;stroke-miterlimit:9.9999;}
	.st20{fill:none;stroke:#ECE8ED;stroke-width:1.3423;stroke-miterlimit:10;}
	.st21{fill:#F3978E;}
	.st22{fill:none;stroke:#282828;stroke-width:0.9928;stroke-linecap:round;stroke-linejoin:round;stroke-miterlimit:10;}
	.st23{fill:none;stroke:#282828;stroke-width:1.2298;stroke-linecap:round;stroke-linejoin:round;stroke-miterlimit:10;}
	.st24{fill:none;stroke:#0459AE;stroke-miterlimit:10;}
	.st25{fill:#E9B023;}
	.st26{fill:none;stroke:#E9B023;stroke-width:2;stroke-miterlimit:10;}
	.st27{fill:none;stroke:#282828;stroke-width:1.3968;stroke-linecap:round;stroke-linejoin:round;stroke-miterlimit:10;}
	.st28{fill:none;stroke:#FFFFFF;stroke-width:1.9514;stroke-miterlimit:10;}
	.st29{fill:none;}
	.st30{fill:none;stroke:#E1B2B2;stroke-width:0.4898;stroke-miterlimit:10;}
</style>
<g>
	<g>
		<g>
			<line class="st0" x1="91.1" y1="177.7" x2="408.3" y2="177.7"/>
			<path class="st0" d="M404.2,353.2h-309c-2.3,0-4.1-1.9-4.1-4.1V161c0-2.3,1.9-4.1,4.1-4.1h309c2.3,0,4.1,1.9,4.1,4.1v188
				C408.3,351.3,406.5,353.2,404.2,353.2z"/>
			<g>
				<path class="st1" d="M112,167.5c0,1.6-1.3,2.9-2.9,2.9c-1.6,0-2.9-1.3-2.9-2.9s1.3-2.9,2.9-2.9C110.7,164.6,112,165.9,112,167.5
					z"/>
				<path class="st2" d="M123.2,167.5c0,1.6-1.3,2.9-2.9,2.9s-2.9-1.3-2.9-2.9s1.3-2.9,2.9-2.9S123.2,165.9,123.2,167.5z"/>
				<path class="st3" d="M134.5,167.5c0,1.6-1.3,2.9-2.9,2.9c-1.6,0-2.9-1.3-2.9-2.9s1.3-2.9,2.9-2.9
					C133.2,164.6,134.5,165.9,134.5,167.5z"/>
			</g>
		</g>
	</g>
	<g>
		<g>
			<g>
				<g>
					<path class="st0" d="M449.5,247.7H375c-2.1,0-3.8-1.7-3.8-3.8v-69c0-2.1,1.7-3.8,3.8-3.8h74.6c2.1,0,3.8,1.7,3.8,3.8v69
						C453.3,246,451.6,247.7,449.5,247.7z"/>
				</g>
			</g>
		</g>
		<g>
			<g>
				<g>
					<g>
						<path class="st3" d="M393,227.8h38.8c2.1,0,3.8-1.7,3.8-3.8v-31.8c0-2.1-1.7-3.8-3.8-3.8H393c-2.1,0-3.8,1.7-3.8,3.8V224
							C389.2,226.1,390.9,227.8,393,227.8z"/>
					</g>
				</g>
			</g>
			<g>
				<polygon class="st4" points="423,214.6 404.8,214.6 401.5,214.6 401.5,200.3 423,200.3 423,203.9 				"/>
				<polyline class="st4" points="401.5,200.3 412.2,208.7 423,200.3 				"/>
			</g>
		</g>
	</g>
	<path class="st0" d="M121.4,305.5H50.3c-2,0-3.6-1.6-3.6-3.6v-62c0-2,1.6-3.6,3.6-3.6h71.1c2,0,3.6,1.6,3.6,3.6v62
		C125,303.8,123.4,305.5,121.4,305.5z"/>
	<g>
		<path class="st1" d="M104.1,292.1H67.2c-2.3,0-4.2-1.9-4.2-4.2v-35.6c0-2.3,1.9-4.2,4.2-4.2h36.9c2.3,0,4.2,1.9,4.2,4.2v35.6
			C108.3,290.2,106.4,292.1,104.1,292.1z"/>
		<g>
			<path class="st5" d="M76.9,261.4c-5,5-5,13.1,0,18.1s13.1,5,18.1,0s5-13.1,0-18.1S81.9,256.5,76.9,261.4z M95,263.3h-4.1
				c-0.4-1.3-0.9-2.6-1.6-3.9C91.6,260.1,93.5,261.5,95,263.3z M81.2,269.7c0-1.7,0.2-3.3,0.6-5H90c0.4,1.7,0.6,3.3,0.6,5H81.2z
				 M90.6,271.2c-0.1,1.7-0.4,3.3-0.9,5h-7.5c-0.5-1.7-0.8-3.3-0.9-5H90.6z M85.9,258.9c0.6,0,1.2,0.1,1.8,0.1
				c0.8,1.4,1.4,2.8,1.9,4.2h-7.3c0.5-1.4,1.1-2.8,1.9-4.2C84.7,259,85.3,258.9,85.9,258.9z M82.6,259.4c-0.6,1.3-1.2,2.6-1.6,3.9
				h-4.1C78.4,261.5,80.3,260.1,82.6,259.4z M75.9,264.8h4.7c-0.4,1.7-0.6,3.3-0.7,5h-5.5C74.5,267.9,75,266.3,75.9,264.8z
				 M75.9,276.2c-0.8-1.5-1.4-3.2-1.5-5h5.5c0.1,1.7,0.3,3.3,0.8,5H75.9z M76.9,277.7h4.3c0.4,1.3,1,2.6,1.6,3.9
				C80.4,280.9,78.4,279.6,76.9,277.7z M85.9,282.1c-0.5,0-1,0-1.5-0.1c-0.7-1.4-1.3-2.8-1.8-4.2h6.6c-0.5,1.4-1.1,2.8-1.8,4.2
				C87,282,86.5,282.1,85.9,282.1z M89.1,281.6c0.6-1.3,1.2-2.6,1.6-3.9H95C93.5,279.6,91.5,280.9,89.1,281.6z M96,276.2h-4.8
				c0.4-1.7,0.7-3.3,0.8-5h5.5C97.4,273,96.8,274.7,96,276.2z M97.5,269.7H92c0-1.7-0.2-3.3-0.7-5H96
				C96.8,266.3,97.4,267.9,97.5,269.7z"/>
		</g>
	</g>
	<g>
		<g>
			<path class="st6" d="M360.5,136.3h-63.6c-1.1,0-1.9-0.9-1.9-1.9v-15.5c0-1.1,0.9-1.9,1.9-1.9h63.6c1.1,0,1.9,0.9,1.9,1.9v15.5
				C362.4,135.4,361.6,136.3,360.5,136.3z"/>
			<g>
				<line class="st7" x1="304.2" y1="123.8" x2="349.4" y2="123.8"/>
				<line class="st7" x1="304.2" y1="128.4" x2="322.6" y2="128.4"/>
			</g>
		</g>
		<polygon class="st6" points="302.4,134.1 302.4,141.6 311.8,134.1 		"/>
	</g>
	<g>
		<g>
			<g>
				<g>
					<g>
						<g>
							<path class="st3" d="M204.3,137.4h-30.8c-3,0-5.4-2.4-5.4-5.4v-28.6c0-2.3,1.8-4.1,4.1-4.1h32.1c2.3,0,4.1,1.8,4.1,4.1v29.9
								C208.4,135.6,206.6,137.4,204.3,137.4z"/>
						</g>
					</g>
				</g>
			</g>
		</g>
		<g>
			<path class="st5" d="M197.6,121.2l-2.3-2.3c-0.4-0.5-0.9-0.7-1.5-0.7s-1.1,0.2-1.5,0.7l-1.3,1.3c-0.1,0-0.2-0.1-0.2-0.1
				c-0.2-0.1-0.3-0.1-0.4-0.2c-1.2-0.8-2.3-1.8-3.4-3.1c-0.5-0.6-0.9-1.2-1.1-1.7c0.3-0.3,0.6-0.6,0.9-0.9c0.1-0.1,0.2-0.2,0.4-0.4
				c0.5-0.5,0.7-1,0.7-1.5c0-0.5-0.2-1.1-0.7-1.5l-1.1-1.1c-0.1-0.1-0.2-0.2-0.4-0.4c-0.2-0.2-0.5-0.5-0.8-0.8
				c-0.4-0.4-0.9-0.7-1.5-0.7s-1,0.2-1.5,0.7l-1.4,1.4c-0.5,0.5-0.9,1.2-0.9,2c-0.1,1.2,0.2,2.4,0.5,3.1c0.7,1.9,1.7,3.6,3.2,5.4
				c1.8,2.2,4,3.9,6.6,5.1c0.9,0.5,2.3,1,3.7,1.1c0.1,0,0.2,0,0.3,0c1,0,1.8-0.4,2.5-1.1c0,0,0,0,0,0c0.2-0.2,0.5-0.5,0.7-0.7
				c0.2-0.2,0.4-0.4,0.5-0.5C198.5,123.3,198.5,122,197.6,121.2z M196.7,123.3c-0.2,0.2-0.3,0.3-0.5,0.5c-0.3,0.2-0.5,0.5-0.8,0.8
				c-0.4,0.4-0.9,0.6-1.5,0.6c-0.1,0-0.1,0-0.2,0c-1.2-0.1-2.4-0.6-3.2-1c-2.3-1.1-4.4-2.7-6.1-4.8c-1.4-1.7-2.3-3.3-3-5
				c-0.4-1-0.6-1.8-0.5-2.5c0-0.5,0.2-0.9,0.6-1.2l1.4-1.4c0.1-0.1,0.3-0.3,0.6-0.3c0.2,0,0.4,0.1,0.6,0.3c0.2,0.2,0.5,0.5,0.7,0.7
				c0.1,0.1,0.2,0.3,0.4,0.4l1.1,1.1c0.1,0.1,0.3,0.4,0.3,0.6c0,0.2-0.2,0.5-0.3,0.6s-0.2,0.2-0.4,0.4c-0.4,0.4-0.7,0.7-1,1
				c0,0,0,0,0,0c-0.4,0.4-0.3,0.8-0.2,1v0c0.3,0.7,0.7,1.4,1.4,2.2c1.1,1.4,2.4,2.5,3.7,3.4c0.2,0.1,0.4,0.2,0.5,0.3
				c0.2,0.1,0.3,0.1,0.4,0.2l0,0c0.4,0.2,0.8,0.1,1.1-0.2l1.4-1.4c0.1-0.1,0.3-0.3,0.6-0.3c0.2,0,0.4,0.2,0.5,0.3l2.3,2.3
				C197.1,122.5,197.1,122.9,196.7,123.3z"/>
		</g>
	</g>
	<g>
		<path class="st8" d="M338.2,281.8l-23.2-3.1l0.2,2.3l-19.8,2.6c0,0-12.8,32.1-1.5,102.6H310l5.8-71.5h2.1l5.6,71.5h16.1
			C350.8,315.7,338.2,281.8,338.2,281.8z"/>
		<line class="st9" x1="308.4" y1="314.7" x2="325.2" y2="314.7"/>
	</g>
	<g>
		<g>
			<g>
				<path class="st10" d="M351.7,248c-2-3.2-13.1-3.1-13.7-3.1c-3-0.4,1.9,23.6,8.2,44.6c1.2,4,5.6,6.1,9.5,4.5c0,0,0.1,0,0.1-0.1
					c3.1-1.3,4.8-4.5,4.2-7.8C357,270.2,354,251.6,351.7,248z"/>
			</g>
			<polygon class="st10" points="354.4,256.6 340.2,262.2 338.8,255.4 353.6,251.7 			"/>
			<path class="st10" d="M357.1,270.1c0,0-6.7,9.1-6.4,8.6c0.3-0.4,5.3-14.6,5.3-14.6L357.1,270.1z"/>
		</g>
		<g>
			<path class="st10" d="M366.7,258l-19.3,25c-2.5,3.3-1.7,8,1.8,10.3l0,0c3.5,2.3,8.1,1.1,10.1-2.6l16.1-29.7L366.7,258z"/>
			<g>
				<path class="st10" d="M371.7,264.4c-4.2-1.4-6.5-5.8-5.1-10c1.4-4.2,5.8-6.5,10-5.1c4.2,1.4,6.5,5.8,5.1,10
					C380.4,263.5,375.9,265.8,371.7,264.4z"/>
				<path class="st10" d="M380,252c0,0,2.2-2.3-1.7-3.9c-3.9-1.6-8.7-1.2-11.7,6.2L380,252z"/>
			</g>
			<g>
				<path class="st11" d="M384,236.2l8.1,3.5c0.5,0.2,0.6,0.7,0.4,1.2l-10.6,19.9c-0.2,0.5-0.8,0.7-1.3,0.5l-8.1-3.5
					c-0.5-0.2-0.6-0.7-0.4-1.2l10.6-19.9C383,236.2,383.5,236,384,236.2z"/>
				<path class="st12" d="M383.2,235.9l8.1,3.5c0.5,0.2,0.6,0.7,0.4,1.2L381,260.4c-0.2,0.5-0.8,0.7-1.3,0.5l-8.1-3.5
					c-0.5-0.2-0.6-0.7-0.4-1.2l10.6-19.9C382.2,235.9,382.8,235.7,383.2,235.9z"/>
				<polygon class="st13" points="382.3,237.9 389.4,241 380.7,257.2 373.6,254.1 				"/>
				<polygon class="st5" points="389.4,241 373.6,254.1 382.3,237.9 				"/>
			</g>
			<path class="st10" d="M376,247.5c0,0,1.8,0.3,3.4,1.3c0.7,0.4,1.1,1.2,0.9,2l0,0c-0.2,0.7-0.8,1.3-1.5,1.4l-4.2,0.5
				c0,0-2.2,3.8-5.1,4.2l2.6-6.6L376,247.5z"/>
		</g>
	</g>
	<path class="st14" d="M322.2,216.4c-0.5,0,29.8,4.2,34.8,38.7l-15.7,2.4l-3.2,26.1h-43.9l-8.7-48.2c0,0,9.7-13.9,27.8-19
		L322.2,216.4L322.2,216.4z"/>
	<line class="st15" x1="341.4" y1="257.6" x2="342.7" y2="242.5"/>
	<path class="st10" d="M325.1,216.9v-12h-14.1v12.1c-0.7,0.2-1.9,0.6-3.8,1.5l11,6.5l11.2-6.5C329.5,218.6,327.7,217.6,325.1,216.9z
		"/>
	<path class="st16" d="M310.9,206.4c0,0,2.5,6.7,9.3,6.1c6.2-0.5,5.2-9.8,5.2-9.8L310.9,206.4z"/>
	<g>
		<path class="st10" d="M304.8,197.5c-2.2,2-7.1-5.6-5-7.7c2.1-2.1,3.8,1.2,3.8,1.2l1,2.3l0.7,3.1l0.2,0.8L304.8,197.5z"/>
	</g>
	<g>
		<path class="st10" d="M330.9,197.3c2,2.2,7.6-5,5.6-7.3c-1.9-2.3-3.8,0.9-3.8,0.9l-1.1,2.2l-1,3l-0.2,0.8L330.9,197.3z"/>
	</g>
	<g>
		<path class="st17" d="M300.9,182.6c0,10,7.6,14.8,17.1,14.8c9.4,0,17.1-4.8,17.1-14.8s-7.6-16.9-17.1-16.9
			C308.6,165.7,300.9,172.5,300.9,182.6z"/>
	</g>
	<path class="st10" d="M303.3,183.2c0,6.2,0.9,11.5,1.7,15.2c0.9,3.7,3.2,6.3,6.6,8.4l0.6,0.4c3.6,2.2,8.2,2.2,11.8,0.1l0,0
		c3.7-2.1,6.2-5,7-8.9c1.4-7.2,1.6-15.2,1.6-15.2s1.4-15.6-14.5-15.2C302.3,168.3,303.3,183.2,303.3,183.2z"/>
	<g>
		<path class="st18" d="M317,192.1v2.2c0,0.1,0,0.2,0.1,0.4c0.2,0.4,0.7,0.6,1.1,0.5l1-0.3"/>
		<path class="st17" d="M314.5,183.8l-7.9,1.8c0,0,0.4-2,3.6-2.7C313.4,182.2,314.5,183.8,314.5,183.8z"/>
		<path class="st17" d="M321.5,183.8l7.6,1.8c0,0-0.3-2-3.5-2.7S321.5,183.8,321.5,183.8z"/>
		<ellipse class="st17" cx="311.5" cy="189.6" rx="1.3" ry="1.3"/>
		<path class="st17" d="M325.4,189.6c0,0.7-0.6,1.3-1.3,1.3c-0.7,0-1.3-0.6-1.3-1.3c0-0.7,0.6-1.3,1.3-1.3
			C324.8,188.2,325.4,188.8,325.4,189.6z"/>
		<path class="st5" d="M312.8,197.7h10.3C323.1,197.7,318.5,203.2,312.8,197.7z"/>
		<g>
			
				<ellipse transform="matrix(0.7071 -0.7071 0.7071 0.7071 -43.3435 275.5404)" class="st19" cx="310.9" cy="190.1" rx="5.7" ry="5.7"/>
			
				<ellipse transform="matrix(0.7071 -0.7071 0.7071 0.7071 -39.2755 285.3669)" class="st19" cx="324.8" cy="190.1" rx="5.7" ry="5.7"/>
			<path class="st20" d="M316.6,190.1c0,0,1.3-1.3,2.6,0"/>
			<line class="st20" x1="305.3" y1="190.1" x2="303.5" y2="190"/>
			<line class="st20" x1="330.5" y1="190.1" x2="332.3" y2="190"/>
		</g>
	</g>
	<path class="st17" d="M332.5,188.4c0,0-6.3-8.6-4.9-17.3c0,0,4.7,2.4,5.9,8.5C334.8,185.7,332.5,188.4,332.5,188.4z"/>
	<path class="st17" d="M303.3,189c0,0,7.4-9.7,5.9-18.4c0,0-5.1,3-6.3,9.1C301.6,185.7,303.3,189,303.3,189z"/>
	<path class="st17" d="M332,174.6c0,0-8.2,8.9-30.4,7.4c0,0,3.4-13.1,14.2-14.5C315.7,167.5,328.2,166,332,174.6z"/>
	<ellipse class="st17" cx="331.4" cy="164.1" rx="10.6" ry="10.6"/>
	<g>
		<path class="st2" d="M201.4,281.8l-19.8-2.6l0.2-2.3l-23.2,3.1c0,0-12.7,33.9-1.4,104.4h16.1l5.6-71.5h2.1l5.8,71.5H203
			C214.2,313.8,201.4,281.8,201.4,281.8z"/>
		<g>
			<path class="st17" d="M199.9,185.3c-2.7-3.2-4.8-6.8-6.7-12c-2-5.5-8.4-3.3-8.4-3.3s-5.3-6.9-13.4-4.5c-8,2.4-10.8,8.1-11,14.9
				s-5.5,7.9-9.6,15.7c-7.3,13.9,5,25.6,27.3,22.4l0-0.2c2.2,0.7,4.9,1,8.2,0.8C213.1,217.5,210.5,197.8,199.9,185.3z"/>
			<g>
				<path class="st21" d="M191.1,195.6c2.2,2,7.1-5.6,5-7.7c-2.1-2.1-3.8,1.2-3.8,1.2l-1,2.3l-0.7,3.1l-0.2,0.8L191.1,195.6z"/>
				<g>
					<g>
						<path class="st22" d="M195.1,190.6c0,0-1.7-0.7-3.2,1.7"/>
					</g>
				</g>
			</g>
			<g>
				<path class="st21" d="M165,195.4c-2,2.2-7.6-5-5.6-7.3s3.8,0.9,3.8,0.9l1.1,2.2l1,3l0.2,0.8L165,195.4z"/>
				<g>
					<g>
						<path class="st22" d="M160.6,190.7c0,0,1.6-0.9,3.3,1.4"/>
					</g>
				</g>
			</g>
			<g>
				<path class="st17" d="M194.9,180.7c0,10-7.6,14.8-17.1,14.8c-9.4,0-17.1-4.8-17.1-14.8s7.6-16.9,17.1-16.9
					C187.3,163.8,194.9,170.6,194.9,180.7z"/>
			</g>
			<rect x="170.8" y="203.1" class="st6" width="14.1" height="18.2"/>
			<path class="st17" d="M168.7,201.9c0,0,3.9,7.8,8.7,9c1.3,0.3,2.7,0.2,3.9-0.2c1.8-0.6,4.1-3.3,4.5-6.3l0.2-1.7
				C186,202.7,177.5,207.4,168.7,201.9z"/>
			<path class="st6" d="M192.6,181.4c0,6.2-0.9,11.5-1.7,15.2c-0.9,3.7-3.2,6.3-6.6,8.4l-0.6,0.4c-3.6,2.2-8.2,2.2-11.8,0.1l0,0
				c-3.7-2.1-6.2-5-7-8.9c-1.4-7.2-1.6-15.2-1.6-15.2s-1.4-15.6,14.5-15.2C193.6,166.4,192.6,181.4,192.6,181.4z"/>
			<g>
				<path class="st23" d="M176.8,191.1v1.3c0,0.1,0,0.2,0.1,0.4c0.2,0.4,0.7,0.6,1.1,0.5l1-0.3"/>
				<path class="st17" d="M180.1,182.7l8.4,2c0,0-0.4-2.2-3.8-3C181.3,180.9,180.1,182.7,180.1,182.7z"/>
				<path class="st17" d="M175.7,182.7l-8.6,2c0,0,0.4-2.2,3.9-3C174.5,180.9,175.7,182.7,175.7,182.7z"/>
				<path class="st17" d="M172.6,187.9c0,0.7-0.6,1.3-1.3,1.3c-0.7,0-1.3-0.6-1.3-1.3s0.6-1.3,1.3-1.3
					C172,186.6,172.6,187.2,172.6,187.9z"/>
				<path class="st17" d="M185.2,187.9c0,0.7-0.6,1.3-1.3,1.3c-0.7,0-1.3-0.6-1.3-1.3s0.6-1.3,1.3-1.3
					C184.6,186.6,185.2,187.2,185.2,187.9z"/>
				<path class="st5" d="M171.7,195.5h11.7c0,0-0.8,3.2-6.1,3.2C173.3,198.7,171.7,195.5,171.7,195.5z"/>
			</g>
			<path class="st17" d="M163.4,186.5c0,0,6.3-8.6,4.9-17.3c0,0-4.7,2.4-5.9,8.5C161.1,183.9,163.4,186.5,163.4,186.5z"/>
			<path class="st17" d="M192.6,186.2c0,0-7.4-8.9-5.9-17.6c0,0,5.1,3,6.3,9.1C194.3,183.9,192.6,186.2,192.6,186.2z"/>
			<path class="st17" d="M163.9,172.7c0,0,7.3,9.8,29.6,8.3c0,0-2.5-14-13.4-15.3C180.2,165.6,167.7,164.1,163.9,172.7z"/>
		</g>
		<g>
			<g>
				<g>
					<path class="st6" d="M143.6,324.8c-0.3,0.5,18.6-82.1,13-80.9c-0.5,0.1-10.3,1-11.8,4c-4.2,8.6-7.3,76.3-7.3,76.3L143.6,324.8z
						"/>
					<path class="st6" d="M137.5,324.2c0,0-3,14.1,8.5,15.7c0.8,0.1,1.5-0.3,1.7-1.1l0-0.1c0.3-0.8-0.1-1.7-0.9-2
						c-1.9-0.8-4.8-3-3.3-7.8c0,0,1.7-0.2,2.6,2.9c0.2,0.8,1.1,1.2,1.9,0.8l0,0c0.5-0.3,0.8-0.8,0.7-1.4c-0.3-2.2-1.4-7.4-5.6-8.8
						L137.5,324.2z"/>
				</g>
				<path class="st21" d="M141.4,267.8c0,0,10.9,15.3,10.9,15c0.1-0.3,3.8-21.5,3.8-21.5l-13.2-5.7L141.4,267.8z"/>
			</g>
			<g>
				<path class="st1" d="M171.6,218.3c0.5,0-26.9,0.5-31.9,35l15.7,2.4l3.2,26.1h43.9l8.7-48.2c0,0-6.2-10.4-24.2-15.5L171.6,218.3z
					"/>
				<path class="st6" d="M158.2,222.4c0,0,3.9,5.1,19.7,5.1c15.7,0,19.7-5.4,19.7-5.4s-9.3-5.2-20-6.8
					C177.7,215.3,168.1,217,158.2,222.4z"/>
			</g>
		</g>
	</g>
	<g>
		<polygon class="st1" points="212,331.8 212.1,400.7 246.1,400.7 248.8,331.8 		"/>
		<polygon class="st1" points="286,331.8 286,400.7 251.9,400.7 249.3,331.8 		"/>
		<rect x="232.2" y="331.8" class="st1" width="35.2" height="23.9"/>
	</g>
	<line class="st24" x1="237.1" y1="355.8" x2="261.4" y2="355.8"/>
	<g>
		<g>
			<path class="st6" d="M307.5,271.7c2.4,29.2,0.3,50.5,1.4,104.3l-20.3,0.9l-3.9-100.7L307.5,271.7z"/>
			<path class="st25" d="M287.2,290c0,0,12.6-1.1,21.2-6.8l-0.2-5l-21,2.9L287.2,290z"/>
		</g>
		<path class="st14" d="M267,218c0,0,40,10.1,47.2,60.8c0,0-19.6,8.5-39.2,4.8l4.4-17L267,218z"/>
	</g>
	<g>
		<g>
			<path class="st6" d="M147.5,239.1l29.8,35.2l-9.1,25.7c0,0-22.6-31.5-32.8-55.8L147.5,239.1z"/>
			<g>
				<g>
					<g>
						<path class="st6" d="M148.5,240.4c0,0-10.5,5.9-13.1,3.8c-4.7-3.7-8.5-17.4-8.5-17.4s19.6-7.4,19.4-7.1
							C146.1,220,148.5,240.4,148.5,240.4z"/>
						<path class="st6" d="M148.5,240.4c-0.2-1.1,3.9-12.4,5.3-16.7c0.3-1-0.4-2.2-1.5-2.4l0,0c-0.7-0.1-1.9-0.1-2.4,1l-4.9,8.4
							L148.5,240.4z"/>
						<path class="st6" d="M148.1,228.1l-3.4-16.8c-0.2-1.1-1.3-1.9-2.4-1.7l0,0c-1,0.2-1.6,1-1.5,2l1.5,12.5L148.1,228.1z"/>
						<path class="st6" d="M141.4,221.9l-4.6-12c-0.4-1-1.6-1.6-2.6-1.3l0,0c-0.9,0.3-1.4,1.2-1.2,2.1l3.4,13.8L141.4,221.9z"/>
						<path class="st6" d="M136.5,225.5l-5.8-11.8c-0.5-1.1-1.9-1.6-2.9-1.1l0,0c-1,0.4-1.5,1.6-1,2.6l4.6,11.1L136.5,225.5z"/>
						<path class="st6" d="M126.9,226.8l-4.5-7.2c-0.4-0.8,0-1.8,0.8-2.2l0,0c0.8-0.4,1.8-0.1,2.3,0.7l6,8.3L126.9,226.8z"/>
					</g>
				</g>
				<path class="st6" d="M147.2,226.9c0,0-6.8-0.7-7.5,8.4"/>
			</g>
		</g>
		<g>
			<g>
				<path class="st6" d="M162.1,288c0,0,5.6,19.4,16.8,16.8c11.2-2.6,28.6-26.4,28.6-26.4l-3.9-40.7l-31.3,38.6L162.1,288z"/>
				<path class="st14" d="M182,264.2c0,0,10.6,16,19.6,21.6l5.9-7.5l-22.8-17.6L182,264.2z"/>
			</g>
			<path class="st14" d="M228.2,217.1c0,0-31.1,7-47.6,43.1c0,0,10,15.1,26,21.8l10.7-13.1L228.2,217.1z"/>
		</g>
	</g>
	<path class="st14" d="M228.2,217c-12.1,6.2-19.8,14.5-19.8,14.5l2.4,105.5h76.4l-0.2-105c0,0-9.6-9.4-20.1-14
		C258.1,214.1,236.9,212.6,228.2,217z"/>
	<path class="st26" d="M264.4,268.4L264.4,268.4c-5.9,0-10.6-4.8-10.6-10.6v-10.6H275v10.6C275,263.7,270.3,268.4,264.4,268.4z"/>
	<line class="st15" x1="287.2" y1="284.1" x2="288.2" y2="249.6"/>
	<line class="st15" x1="209.7" y1="278.3" x2="208" y2="248.4"/>
	<g>
		<path class="st17" d="M229.1,178.5l-3.2-15.8c-0.2-1.3-0.7-3.3-0.1-5.1c1-3.1,4.7-9,11.1-6.3l1.4,6.2c0,0-6.6,1.3-9.2,9.9
			L229.1,178.5z"/>
		<path class="st17" d="M236.5,154.6c-0.1,2.1-1.9,11.1-8.4,14.4C228.1,169,222.5,156.9,236.5,154.6z"/>
		<path class="st6" d="M259,214.1L259,214.1v-26.8h-24.7v26.8l-7.3,3.3c0,0,1.7,11.1,19.9,11.3S267,218,267,218L259,214.1z"/>
		<path class="st17" d="M236.9,151.3c0,0,4.5-12,18.5-5.6c8.5,3.8,10.8,9,11.8,12.6c0.3,1.2,0.5,3.1,0.4,4.3l-3.4,15.9l-13.2-22
			l-12.8,1L236.9,151.3z"/>
		<g>
			<path class="st21" d="M264.3,178.5c0,0,1.7-2.6,5.1-1.3c3.4,1.3,1.9,9.6-3.3,10.7c0,0-1.8,0.4-3.3-0.9
				C262.8,187,264.1,180.8,264.3,178.5z"/>
			<g>
				<g>
					<path class="st27" d="M268.7,180.1c0,0-2.9-1-4.9,3.3"/>
				</g>
			</g>
		</g>
		<g>
			<path class="st21" d="M229.1,178.5c0,0-1.7-2.6-5.1-1.3c-3.4,1.3-1.9,9.6,3.3,10.7c0,0,1.8,0.4,3.3-0.9
				C230.6,187,229.3,180.8,229.1,178.5z"/>
			<g>
				<g>
					<path class="st27" d="M224.7,180.1c0,0,2.9-1,4.9,3.3"/>
				</g>
			</g>
		</g>
		<path class="st6" d="M264.6,170.6c0,5-0.5,15.5-3.6,21.8c-2.9,5.9-7.7,9-14,9.2c-6.3,0.2-11-2.2-14.7-9.8s-3.6-21-3.6-21
			s0-17.9,17.7-17.9C265.2,152.7,264.6,170.6,264.6,170.6z"/>
		<path class="st17" d="M234.5,195.5c0,0,2.1,10.5,11.2,11.7c10.5,1.4,13.3-11.4,13.3-11.4s-4.6,5.8-12,5.8
			C238.8,201.6,234.5,195.5,234.5,195.5z"/>
		<g>
			<path class="st27" d="M245.4,178v4.2c0,0.2,0,0.3,0.1,0.5c0.2,0.6,1,0.9,1.6,0.7l1.4-0.4"/>
			<path class="st17" d="M240.2,176c0,0.9-0.7,1.6-1.6,1.6c-0.9,0-1.6-0.7-1.6-1.6s0.7-1.6,1.6-1.6S240.2,175.2,240.2,176z"/>
			<path class="st17" d="M255.3,176c0,0.9-0.7,1.6-1.6,1.6s-1.6-0.7-1.6-1.6s0.7-1.6,1.6-1.6S255.3,175.2,255.3,176z"/>
			<path class="st17" d="M249.6,168l10.9,2.8c0,0-0.5-3-4.9-4.2C251,165.6,249.6,168,249.6,168z"/>
			<path class="st17" d="M242.8,168l-10.9,2.8c0,0,0.5-3,4.9-4.2C241.3,165.6,242.8,168,242.8,168z"/>
			<path class="st27" d="M240.6,186.4c0,0,1.6,1.2,5.8,1.2c3.8,0,6.2-1.2,6.2-1.2"/>
			<g>
				<circle class="st28" cx="238.1" cy="176.5" r="6.9"/>
				<circle class="st28" cx="255" cy="176.5" r="6.9"/>
				<path class="st28" d="M245,176.5c0,0,1.6-1.5,3.1,0"/>
				<line class="st28" x1="231.3" y1="176.5" x2="229" y2="176.5"/>
				<line class="st28" x1="261.8" y1="176.5" x2="264.4" y2="176.5"/>
			</g>
		</g>
		<path class="st17" d="M234.5,155c0,0,3.3,9.4,18.2,9.1c10.1-0.2,12.5,7.1,12.5,7.1s-1.8-16.3-2.2-16.2c-0.5,0.2-15.4-4-15.4-4
			L234.5,155z"/>
	</g>
	<rect x="120.3" y="141.3" class="st29" width="291.8" height="211.4"/>
	<ellipse class="st30" cx="65.7" cy="342.2" rx="4.4" ry="4.5"/>
	<rect x="423" y="321.4" class="st30" width="6.7" height="6.8"/>
</g>
</svg>
