<?xml version="1.0" encoding="utf-8"?>
<!-- Generator: Adobe Illustrator 27.3.1, SVG Export Plug-In . SVG Version: 6.00 Build 0)  -->
<svg version="1.1" id="OBJECTS" xmlns="http://www.w3.org/2000/svg" xmlns:xlink="http://www.w3.org/1999/xlink" x="0px" y="0px"
	 viewBox="0 0 500 500" style="enable-background:new 0 0 500 500;" xml:space="preserve">
<style type="text/css">
	.st0{fill:#E0A2A5;}
	.st1{fill:#262127;}
	.st2{fill:#090909;}
	.st3{fill:#E1A4A7;}
	.st4{fill:#202020;}
	.st5{fill:#DBAF37;}
	.st6{fill:#EFC22E;}
	.st7{fill:none;stroke:#D3AFAF;stroke-width:0.4231;stroke-miterlimit:10;}
	.st8{fill:none;stroke:#D3AFAF;stroke-width:0.4679;stroke-miterlimit:10;}
	.st9{fill:#73CB93;}
	.st10{fill:#FFFFFF;}
	.st11{fill:#EAC140;}
	.st12{fill:#FDFDFD;}
	.st13{fill:#3C6ADE;}
	.st14{fill:none;stroke:#FFFFFF;stroke-width:0.6125;stroke-miterlimit:10;}
	.st15{fill:none;stroke:#29262B;stroke-width:0.2687;stroke-miterlimit:10;}
	.st16{fill:#578CEA;}
	.st17{fill:#3259AA;}
	.st18{fill:#2A4A78;}
	.st19{clip-path:url(#XMLID_00000173152426396029956420000018138740775143381691_);}
	.st20{fill:none;stroke:#D5B2B2;stroke-width:0.4983;stroke-miterlimit:10;}
	.st21{fill:none;stroke:#FFFFFF;stroke-width:0.4758;stroke-miterlimit:10;}
	.st22{fill:#3C6BE0;}
	.st23{fill:#DF7246;}
	.st24{clip-path:url(#XMLID_00000101067435305897950430000012855985383870821043_);fill:#C5DFF5;}
</style>
<g>
	<g>
		<g>
			<g>
				<g>
					<polygon class="st0" points="67.96,366.41 59.9,362.49 69.78,346.89 77.84,350.81 					"/>
					<g>
						<g>
							<defs>
								<path id="XMLID_153_" d="M60.53,361.18l10.22,4.97l6.77,7.7c1.27,1.69,1.48,3.95,0.56,5.84l0,0l-22.75-11.07L60.53,361.18z"
									/>
							</defs>
							<use xlink:href="#XMLID_153_"  style="overflow:visible;fill:#262127;"/>
							<clipPath id="XMLID_00000067197280540629476600000002694468949551517111_">
								<use xlink:href="#XMLID_153_"  style="overflow:visible;"/>
							</clipPath>
						</g>
						<path class="st1" d="M71.4,366.94l-0.78-4.23c0,0-3.28-2.41-4.87,1.66L71.4,366.94z"/>
					</g>
				</g>
				<polygon class="st2" points="110.9,259.58 106.77,305.67 76.94,359.04 61.69,351.04 89.12,294.59 100.21,259.32 				"/>
			</g>
			<g>
				<g>
					<polygon class="st0" points="96.83,372 87.87,372 89.13,359.51 98.09,359.51 					"/>
					<g>
						<g>
							<defs>
								<path id="XMLID_152_" d="M87.87,370.55h11.36l9.45,3.96c1.88,0.96,3.06,2.9,3.06,5.01l0,0H86.44L87.87,370.55z"/>
							</defs>
							<use xlink:href="#XMLID_152_"  style="overflow:visible;fill:#262127;"/>
							<clipPath id="XMLID_00000015348452137680037090000004867013162562912185_">
								<use xlink:href="#XMLID_152_"  style="overflow:visible;"/>
							</clipPath>
						</g>
						<path class="st1" d="M100.16,370.97l-2.56-3.46c0,0-4-0.73-3.65,3.62L100.16,370.97z"/>
					</g>
				</g>
				<path class="st1" d="M107.17,262.07l-0.4,43.59c-0.02,1.6-0.21,3.2-0.57,4.76l-6.12,52.07H84.16l0.07-55.3l-0.33-53.12
					L107.17,262.07z"/>
			</g>
		</g>
		<g>
			<path class="st1" d="M108.45,173.81c0,0,5.95-3.15,11.55,1.74c3.96,3.45,3.23,8.25,2.91,10.36c-0.13,0.81-0.46,1.57-0.96,2.22
				l-5.21,6.29l-0.63-14.47l-6.62-2.94L108.45,173.81z"/>
			<path class="st3" d="M95.45,211.42L95.45,211.42c-3.03-1.65-4.15-5.44-2.51-8.47l8.09-14.9l10.97,5.96l-8.1,14.9
				C102.27,211.95,98.48,213.07,95.45,211.42z"/>
			<g>
				<path class="st3" d="M107.14,202.65L107.14,202.65c-4.13-2.25-5.61-7.51-3.3-11.76l7.56-13.91l7.31,3.02
					c2.57,1.4,3.54,7.81,2.11,10.45l-5.19,9.56C113.94,203.1,110.14,204.28,107.14,202.65z"/>
				<path class="st3" d="M119.17,193.17l-0.09,4.45c0.06,0.58-0.55,1-1.07,0.72l-3.36-1.83L119.17,193.17z"/>
			</g>
			<path class="st1" d="M120.7,181.46c-4.43-5.05-6.88-6.63-6.88-6.63c-1.3-1.45-2.36-0.67-4.2-0.86c0,0-4.27-2.32-7.9,0.24
				c-5.74,4.05-3.46,12.6-3.46,12.6l-2.7,6.51c7.09,2.23,9.13-2.21,9.13-2.21l4.05-4.56l2.08-4.21l2.93-2.36l3.19,1
				C116.94,180.97,125.13,186.51,120.7,181.46z"/>
			<path class="st3" d="M107.5,189.7c-0.82,1.54-2.74,2.13-4.29,1.3c-1.54-0.82-2.13-2.74-1.3-4.29c0.82-1.54,2.74-2.13,4.29-1.3
				C107.74,186.24,108.33,188.16,107.5,189.7z"/>
			<g>
				<path class="st1" d="M116.33,198.69c-2.81-1.83-6.16-0.66-6.16-0.66c-1.14-2.25-1.33-5.38-1.06-6.82
					c0.03-0.15,0.23-3.8,2.29-8.64l-3.12-1.7l-1.62,10.21l-3.18,2.88c-1.11,1.33-1.27,3.4-0.87,5.08c0.36,1.53,1.07,2.9,1.87,4.07
					c1.35,1.97,2.95,2.56,5.33,2.8C114.88,206.45,116.33,198.69,116.33,198.69z"/>
			</g>
			<g>
				<path class="st4" d="M116.32,193.35c-0.2,0.38-0.68,0.52-1.05,0.31c-0.38-0.2-0.52-0.68-0.31-1.05c0.2-0.38,0.68-0.52,1.05-0.31
					C116.38,192.5,116.52,192.97,116.32,193.35z"/>
				<path class="st1" d="M114.69,189.84c0.04,0.03,0.08,0.06,0.13,0.08l3.27,1.6c0.37,0.18,0.81,0.03,0.98-0.34
					c0.18-0.37,0.03-0.8-0.34-0.98l-3.27-1.6c-0.37-0.18-0.81-0.03-0.98,0.34C114.32,189.26,114.42,189.63,114.69,189.84z"/>
			</g>
			<path class="st1" d="M108.85,181.98c0,0,3.09,4.95,5.19,4.67c0,0,0.78-0.05,1.18-1.21c0,0,3.85,7,8.05,4.37
				c0,0,1.04-0.67-1.08-1.59c0,0,4.46,1.04,6.91-2.5c2.45-3.54-1.32-6.42-3.17-6.75c-1.85-0.33-1.79,0.16-4.6-1.44
				c-2.81-1.6-7.2-8.01-12.38-2.2L108.85,181.98z"/>
		</g>
		<g>
			<g>
				<g>
					<g>
						<path class="st3" d="M118.31,228.04c-2.32,2.34-2.3,6.12,0.04,8.44c2.34,2.32,6.12,2.3,8.44-0.04
							c2.32-2.34,2.3-6.12-0.04-8.44C124.41,225.69,120.63,225.7,118.31,228.04z"/>
						<path class="st3" d="M126.97,228.24l5.53,3.34c0.49,0.25,0.69,0.86,0.46,1.34l0,0c-0.2,0.42-0.68,0.61-1.12,0.45l-6.5-2.51
							L126.97,228.24z"/>
					</g>
					<polygon class="st3" points="120.17,226.78 110.22,230.32 110.81,238.14 121.12,232.76 					"/>
				</g>
				<polygon class="st5" points="112.44,227.2 115.19,239.05 96.93,247.23 93.76,235.2 				"/>
			</g>
			<g>
				<g>
					<g>
						<g>
							<path class="st6" d="M105.65,213.75c0,0-1.72-5.85-3.4-7.31c-1.2-1.04-5.46-3.55-7.68-4.12c-0.66-0.17-1.35-0.02-1.89,0.39
								c-2.39,1.82-8.89,7.62-11.27,18.3c-2.29,10.29-1.49,47.4-1.49,47.4c10.04,5.15,32.56-2.4,32.56-2.4
								C110.22,248.4,109.55,230.04,105.65,213.75z"/>
						</g>
					</g>
				</g>
				<path class="st3" d="M92.68,202.71c0,0,4.52,9.93,11.68,10.1c0.49,0.01,0.86-0.44,0.75-0.91c-0.36-1.44-1.32-4.41-3.6-6.92
					C98.36,201.52,95.51,200.19,92.68,202.71z"/>
			</g>
			<g>
				<g>
					<g>
						<polygon class="st3" points="119.18,245.17 128.83,245.52 131.12,251.13 118.21,251.63 						"/>
						<path class="st3" d="M140.14,245.17c-0.72,3.08-5.9,6.05-9.02,5.96c-3.12-0.09-5.09-2.5-4.94-5.66
							c0.15-3.16,2.81-5.65,5.93-5.55S141.27,240.32,140.14,245.17z"/>
					</g>
					<g>
						<path class="st5" d="M111.55,253.47l-24.9-13.56l-0.36,12.05c0.14,3.3,2.88,5.89,6.18,5.86l19.45-1.16L111.55,253.47z"/>
						<g>
							<g>
								<g>
									<g>
										<path class="st6" d="M100.2,214.76l0.01,2.53l0.1,24.37l23.72,1.13l-0.1,10.27l-30.32,1.02
											c-1.32-0.11-2.57-0.58-3.62-1.32c-1.43-1.02-2.3-2.65-2.47-4.4l-2.81-27.74L100.2,214.76z"/>
									</g>
								</g>
							</g>
						</g>
						<polygon class="st5" points="98.6,216.27 100.48,240.65 98.69,240.64 						"/>
						<polygon class="st5" points="98.6,216.27 100.48,240.65 98.69,240.64 						"/>
					</g>
				</g>
				<g>
					<path d="M140.18,242.86l-33.14,1.3c-1.02,0.04-1.87-0.75-1.91-1.77l0,0c-0.04-1.02,0.75-1.87,1.77-1.91l33.14-1.3
						c1.02-0.04,1.87,0.75,1.91,1.77l0,0C141.99,241.96,141.2,242.82,140.18,242.86z"/>
					<path d="M139.58,241.19c0.19-0.04,0.36-0.16,0.46-0.34l14.53-25.93c0.19-0.33,0.07-0.75-0.26-0.94
						c-0.33-0.19-0.75-0.07-0.94,0.26l-14.53,25.93c-0.19,0.33-0.07,0.75,0.26,0.94C139.25,241.21,139.42,241.23,139.58,241.19z"/>
				</g>
			</g>
		</g>
	</g>
	<g>
		<path class="st7" d="M204.47,150.58h-18.04c-0.92,0-1.67,0.76-1.67,1.7v10.15c0,0.94,0.75,1.7,1.67,1.7h7.35l6.18,6.9v-6.64
			l4.54-0.09c0.91-0.02,1.64-0.77,1.64-1.7v-10.31C206.14,151.34,205.39,150.58,204.47,150.58z"/>
		<path class="st8" d="M459.74,234.87c0,2.82-2.26,5.11-5.04,5.11c-2.78,0-5.04-2.29-5.04-5.11c0-2.82,2.26-5.11,5.04-5.11
			C457.48,229.76,459.74,232.05,459.74,234.87z"/>
		<path class="st8" d="M52.6,295.62c0,2.06-1.64,3.72-3.67,3.72c-2.03,0-3.67-1.67-3.67-3.72c0-2.06,1.64-3.73,3.67-3.73
			C50.95,291.89,52.6,293.56,52.6,295.62z"/>
		<rect x="345.1" y="117.44" class="st8" width="7.63" height="7.73"/>
	</g>
	<g>
		<g>
			<g>
				<path class="st9" d="M52.64,172.44h28.81v-29.06c0-0.94-0.77-1.71-1.71-1.71h-27.1c-0.94,0-1.71,0.77-1.71,1.71v27.35
					C50.93,171.67,51.69,172.44,52.64,172.44z"/>
				<polygon class="st9" points="81.45,167.48 81.45,178.2 72.33,167.48 				"/>
			</g>
		</g>
		<path class="st10" d="M72.76,152.86c-1.56-1.53-4.05-1.5-5.58,0.06l-1,1.03l-1.03-1.02c-1.55-1.53-4.05-1.51-5.58,0.04
			c-1.53,1.55-1.51,4.05,0.04,5.58l3.84,3.78c0.01,0.01,0.01,0.02,0.02,0.03c0.61,0.6,1.37,0.96,2.16,1.08
			c1.21,0.19,2.5-0.19,3.42-1.14l3.77-3.85C74.34,156.88,74.32,154.38,72.76,152.86z"/>
	</g>
	<g>
		<g>
			<circle class="st11" cx="412.23" cy="157.79" r="21.48"/>
		</g>
		<g>
			<g>
				<g>
					<path class="st12" d="M408.6,165.38c3.72,0.06,7.49,0.11,10.91-0.12c1.08-0.07,2.02-1.8,0.7-2.34
						c0.55-0.28,1.11-0.56,1.36-1.18c0.23-0.59-0.05-1.38-0.66-1.54c1.29,0.32,1.8-1.73,0.79-2.39c0.53-0.45,0.98-1.05,1.09-1.74
						c0.11-0.69-0.17-1.47-0.78-1.8c-0.4-0.22-0.88-0.23-1.34-0.23c-1.55-0.01-3.09-0.02-4.64-0.03c0.42-2.42,0.54-5.06-0.69-7.19
						c-0.37-0.64-1.37-1.41-2.16-0.92c-0.74,0.46-0.54,1.61-0.5,2.33c0.15,3.01-1.56,6.04-4.22,7.46
						C408.47,155.69,408.64,162.11,408.6,165.38z"/>
				</g>
			</g>
			<rect x="401.63" y="155.69" class="st12" width="5.62" height="9.68"/>
		</g>
	</g>
	<g>
		<g>
			<path class="st13" d="M441.14,310.97H339.86c-1.05,0-1.9-0.85-1.9-1.9v-28.29c0-1.05,0.85-1.9,1.9-1.9h101.28
				c1.05,0,1.9,0.85,1.9,1.9v28.29C443.04,310.12,442.19,310.97,441.14,310.97z"/>
			<g>
				<line class="st14" x1="350.13" y1="291.08" x2="415.94" y2="291.08"/>
				<line class="st14" x1="350.13" y1="298.78" x2="365.99" y2="298.78"/>
			</g>
		</g>
		<polygon class="st13" points="350.13,307.34 350.13,322.14 365.86,307.34 		"/>
	</g>
	<g>
		<line class="st15" x1="204.45" y1="398.98" x2="393.77" y2="398.98"/>
		<line class="st15" x1="40.26" y1="379.83" x2="459.74" y2="379.83"/>
	</g>
	<g>
		<g>
			<g>
				<g>
					<path class="st13" d="M408.72,379.83l-244.35-0.43c-9.25-0.02-16.74-7.53-16.73-16.79l0,0l277.87,0.49l0,0
						C425.49,372.36,417.97,379.85,408.72,379.83z"/>
					<path class="st16" d="M408.73,374.06l-244.35-0.43c-7.22-0.01-13.35-4.6-15.7-11.02l-1.04,0c-0.02,9.25,7.47,16.77,16.73,16.79
						l244.35,0.43c9.25,0.02,16.77-7.47,16.79-16.73l-1.04,0C422.1,369.5,415.95,374.07,408.73,374.06z"/>
					<path class="st17" d="M302.35,368.49l-31.57-0.06c-3.1-0.01-5.61-2.52-5.6-5.62l0,0l42.79,0.08l0,0
						C307.96,365.99,305.44,368.5,302.35,368.49z"/>
				</g>
				<path class="st18" d="M411.21,363.08l-249.27-0.44l0.27-150.46c0.02-8.63,7.02-15.62,15.66-15.6l218.01,0.39
					c8.63,0.02,15.62,7.02,15.6,15.66L411.21,363.08z"/>
			</g>
			<g>
				<defs>
					
						<rect id="XMLID_150_" x="175.06" y="209.77" transform="matrix(1 1.767965e-03 -1.767965e-03 1 0.4952 -0.5065)" width="223.31" height="140.09"/>
				</defs>
				<use xlink:href="#XMLID_150_"  style="overflow:visible;fill:#F6E5E0;"/>
				<clipPath id="XMLID_00000014615459268909171070000008152186451914772408_">
					<use xlink:href="#XMLID_150_"  style="overflow:visible;"/>
				</clipPath>
				<g style="clip-path:url(#XMLID_00000014615459268909171070000008152186451914772408_);">
					<path class="st10" d="M250.69,291.84c-16.78,0-31.36,9.4-38.77,23.21c-3.47-1.93-7.46-3.03-11.71-3.03
						c-10.06,0-18.68,6.17-22.3,14.93c-1.29-0.27-2.62-0.42-3.99-0.42c-10.68,0-19.34,8.66-19.34,19.34
						c0,10.68,8.66,19.34,19.34,19.34c6.26,0,11.81-2.99,15.34-7.6c3.29,1.68,7,2.63,10.94,2.63c4.36,0,8.44-1.16,11.97-3.18
						c7.49,13.56,21.93,22.74,38.52,22.74c24.29,0,43.98-19.69,43.98-43.98C294.67,311.53,274.98,291.84,250.69,291.84z"/>
				</g>
				<g style="clip-path:url(#XMLID_00000014615459268909171070000008152186451914772408_);">
					<path class="st10" d="M322.18,291.84c16.78,0,31.36,9.4,38.77,23.21c3.47-1.93,7.46-3.03,11.71-3.03
						c10.06,0,18.68,6.17,22.3,14.93c1.29-0.27,2.62-0.42,3.99-0.42c10.68,0,19.34,8.66,19.34,19.34c0,10.68-8.66,19.34-19.34,19.34
						c-6.26,0-11.81-2.99-15.34-7.6c-3.29,1.68-7,2.63-10.94,2.63c-4.36,0-8.44-1.16-11.97-3.18
						c-7.49,13.56-21.93,22.74-38.52,22.74c-24.29,0-43.98-19.69-43.98-43.98C278.19,311.53,297.88,291.84,322.18,291.84z"/>
				</g>
			</g>
			<g>
				<g>
					<path class="st20" d="M307.66,282.22H189.42c-1.08,0-1.95-0.87-1.95-1.95v-36.16c0-1.08,0.87-1.95,1.95-1.95h118.24
						c1.08,0,1.95,0.87,1.95,1.95v36.16C309.61,281.35,308.74,282.22,307.66,282.22z"/>
					<line class="st21" x1="198.93" y1="255.81" x2="267.63" y2="255.81"/>
					<line class="st21" x1="198.93" y1="268.58" x2="236.73" y2="268.58"/>
					<path class="st21" d="M377.17,268.53h-49.92c-1.08,0-1.95-0.87-1.95-1.95v-38.68c0-1.08,0.87-1.95,1.95-1.95h49.92
						c1.08,0,1.95,0.87,1.95,1.95v38.68C379.12,267.66,378.25,268.53,377.17,268.53z"/>
				</g>
				<g>
					<path class="st22" d="M195.15,224c0,1.82-1.47,3.29-3.29,3.29c-1.82,0-3.29-1.47-3.29-3.29s1.47-3.29,3.29-3.29
						C193.68,220.71,195.15,222.19,195.15,224z"/>
					<path class="st23" d="M206.09,224c0,1.82-1.47,3.29-3.29,3.29c-1.82,0-3.29-1.47-3.29-3.29s1.47-3.29,3.29-3.29
						C204.62,220.71,206.09,222.19,206.09,224z"/>
					<circle class="st20" cx="213.74" cy="224" r="3.29"/>
				</g>
			</g>
		</g>
		<g>
			<path class="st10" d="M295.92,231.86l-9.8-13.97l-9.8,13.97c0,0,5.2,42.8-4.71,94.07h14.51h14.51
				C290.72,274.66,295.92,231.86,295.92,231.86z"/>
			<g>
				<path class="st13" d="M260.35,189.16l-20.62,23.01c-1.95,2.18-2.71,5.18-2.02,8.02l8.68,36.05c0.35,1.43,1.77,2.33,3.22,2.02
					l0,0c1.13-0.25,1.98-1.17,2.12-2.32c0.83-7.03,4.62-31.49,17.94-38.52L260.35,189.16z"/>
				<path class="st13" d="M312.31,189.16l20.62,23.01c1.95,2.18,2.71,5.18,2.03,8.02l-8.68,36.05c-0.35,1.43-1.77,2.33-3.22,2.02
					l0,0c-1.13-0.25-1.98-1.17-2.12-2.32c-0.83-7.03-4.62-31.49-17.94-38.52L312.31,189.16z"/>
				<g>
					<g>
						<defs>
							<path id="XMLID_149_" d="M257.4,176.34c0.05,3.63,0.73,28,9.66,46.88c0.71,1.49,2.19,2.47,3.84,2.47l14.54,0h0.67l14.54,0
								c1.65,0,3.13-0.97,3.84-2.47c8.82-18.67,9.59-42.7,9.65-46.75c0.01-0.37,0-0.74-0.02-1.11c-1.01-17.28-4.07-31.28-7.83-42.4
								h-41.03c-3.76,11.14-6.82,25.16-7.83,42.48C257.4,175.74,257.39,176.04,257.4,176.34z"/>
						</defs>
						<use xlink:href="#XMLID_149_"  style="overflow:visible;fill:#D3E8FD;"/>
						<clipPath id="XMLID_00000163756482287916439830000016928542607978715526_">
							<use xlink:href="#XMLID_149_"  style="overflow:visible;"/>
						</clipPath>
						<polyline style="clip-path:url(#XMLID_00000163756482287916439830000016928542607978715526_);fill:#C5DFF5;" points="
							290.39,194.19 314.13,220.35 303,232.51 289.31,232.51 290.39,194.19 						"/>
					</g>
					<path class="st13" d="M280.11,103.83c-4.24,5.59-10.11,15.05-14.86,29.14h41.03c-4.75-14.09-10.62-23.55-14.86-29.14
						C288.58,100.09,282.95,100.09,280.11,103.83z"/>
				</g>
				<g>
					<circle class="st13" cx="285.77" cy="164.76" r="15.22"/>
					<circle class="st11" cx="285.46" cy="164.76" r="11.42"/>
					<path class="st10" d="M274.56,168.07c0,0,6.53,1.06,10.38-5.43c2.62-4.41,0.55-9.29,0.55-9.29s-6.86-0.26-10.32,6.53
						C275.16,159.88,273.11,163.35,274.56,168.07z"/>
				</g>
				<path class="st16" d="M298.79,232.51h-25.94c-1.76,0-3.19-1.43-3.19-3.19v-3.63h32.32v3.63
					C301.99,231.08,300.56,232.51,298.79,232.51z"/>
				<polygon class="st13" points="288.49,261.69 282.98,261.69 281.14,194.19 290.39,194.19 				"/>
			</g>
		</g>
	</g>
</g>
</svg>
