<?xml version="1.0" encoding="utf-8"?>
<!-- Generator: Adobe Illustrator 27.3.1, SVG Export Plug-In . SVG Version: 6.00 Build 0)  -->
<svg version="1.1" id="Layer_1" xmlns="http://www.w3.org/2000/svg" xmlns:xlink="http://www.w3.org/1999/xlink" x="0px" y="0px"
	 viewBox="0 0 500 500" style="enable-background:new 0 0 500 500;" xml:space="preserve">
<style type="text/css">
	.st0{fill:none;stroke:#E1B2B2;stroke-width:0.4429;stroke-miterlimit:10;}
	.st1{fill:#FBE5E0;}
	.st2{fill:#006BE3;}
	.st3{fill:#FB7341;}
	.st4{fill:none;stroke:#E1B2B2;stroke-width:0.3034;stroke-miterlimit:10;}
	.st5{fill:none;stroke:#E1B2B2;stroke-width:0.4575;stroke-miterlimit:10;}
	.st6{fill:none;stroke:#FFFFFF;stroke-width:0.4328;stroke-miterlimit:10;}
	.st7{fill:none;stroke:#E1B2B2;stroke-width:0.4898;stroke-miterlimit:10;}
	.st8{fill:#FCFCFC;}
	.st9{fill:#13C992;}
	.st10{fill:none;stroke:#FFFFFF;stroke-width:0.478;stroke-miterlimit:10;}
	.st11{fill:none;stroke:#FFFFFF;stroke-width:0.3929;stroke-miterlimit:10;}
	.st12{fill:#171E21;}
	.st13{fill:#F6A7AA;}
	.st14{fill:#F4A4A8;}
	.st15{fill:#231B22;}
	.st16{fill:#F06532;}
	.st17{fill:#E6AA9F;}
	.st18{fill:#0459AE;}
	.st19{fill:#050001;}
	.st20{fill:#243033;}
	.st21{fill:#FFFFFF;}
	.st22{fill:none;stroke:#C2717A;stroke-width:0.402;stroke-linecap:round;stroke-linejoin:round;stroke-miterlimit:10;}
	.st23{fill:#171223;}
	.st24{fill:#A6614E;}
	.st25{fill:none;stroke:#8B453A;stroke-width:0.3985;stroke-linecap:round;stroke-linejoin:round;stroke-miterlimit:10;}
	.st26{fill:#100E11;}
	.st27{fill:#F7C12D;}
	.st28{fill:#E9B023;}
	.st29{fill:#050505;}
	.st30{fill:none;stroke:#C2717A;stroke-width:0.3938;stroke-linecap:round;stroke-linejoin:round;stroke-miterlimit:10;}
	.st31{fill:none;stroke:#231B22;stroke-width:0.2821;stroke-miterlimit:10;}
</style>
<g>
	<g>
		<g>
			<path class="st0" d="M394.26,323.87H135c-2.02,0-3.65-1.63-3.65-3.65V158.45c0-2.02,1.63-3.65,3.65-3.65h259.26
				c2.02,0,3.65,1.63,3.65,3.65v161.77C397.91,322.24,396.27,323.87,394.26,323.87z"/>
			<path class="st1" d="M408.98,311.09H149.72c-2.02,0-3.65-1.63-3.65-3.65V145.67c0-2.02,1.63-3.65,3.65-3.65h259.26
				c2.02,0,3.65,1.63,3.65,3.65v161.77C412.63,309.46,411,311.09,408.98,311.09z"/>
			<g>
				<circle class="st2" cx="167.17" cy="152.32" r="3.37"/>
				<circle class="st3" cx="178.39" cy="152.32" r="3.37"/>
				<circle class="st4" cx="189.6" cy="152.32" r="3.37"/>
			</g>
		</g>
		<g>
			<path class="st5" d="M372.56,288.93h-83.11c-0.98,0-1.77-0.79-1.77-1.77V240c0-0.98,0.79-1.77,1.77-1.77h83.11
				c0.98,0,1.77,0.79,1.77,1.77v47.16C374.33,288.13,373.54,288.93,372.56,288.93z"/>
			<g>
				<path class="st5" d="M257.22,287.26h-88.11c-0.98,0-1.77-0.79-1.77-1.77V180.28c0-0.98,0.79-1.77,1.77-1.77h88.11
					c0.98,0,1.77,0.79,1.77,1.77v105.21C258.99,286.47,258.2,287.26,257.22,287.26z"/>
				<path class="st6" d="M235.1,245.99h-49.32c-1.43,0-2.59-1.16-2.59-2.59v-46.35c0-1.43,1.16-2.59,2.59-2.59h49.32
					c1.43,0,2.58,1.16,2.58,2.59v46.35C237.68,244.83,236.52,245.99,235.1,245.99z"/>
				<g>
					<line class="st6" x1="183.19" y1="255.96" x2="236.28" y2="255.96"/>
					<line class="st6" x1="183.19" y1="264.84" x2="210.43" y2="264.84"/>
					<line class="st6" x1="183.19" y1="273.72" x2="222.88" y2="273.72"/>
				</g>
			</g>
			<g>
				<path class="st6" d="M350.24,222.94h-58.86c-0.95,0-1.71-0.77-1.71-1.71v-58.5c0-0.95,0.77-1.71,1.71-1.71h58.86
					c0.95,0,1.71,0.77,1.71,1.71v58.5C351.96,222.18,351.19,222.94,350.24,222.94z"/>
				<g>
					<path class="st6" d="M338.76,204.61h-36.89c-1.59,0-2.87-1.29-2.87-2.87l0,0c0-1.59,1.29-2.87,2.87-2.87h36.89
						c1.59,0,2.87,1.29,2.87,2.87l0,0C341.63,203.32,340.34,204.61,338.76,204.61z"/>
					<g>
						<path class="st6" d="M338.76,185.7h-36.89c-1.59,0-2.87-1.29-2.87-2.87l0,0c0-1.59,1.29-2.87,2.87-2.87h36.89
							c1.59,0,2.87,1.29,2.87,2.87l0,0C341.63,184.41,340.34,185.7,338.76,185.7z"/>
						<path class="st2" d="M314.8,182.82c0,2.67-2.16,4.83-4.83,4.83c-2.67,0-4.83-2.16-4.83-4.83c0-2.67,2.16-4.83,4.83-4.83
							C312.64,177.99,314.8,180.15,314.8,182.82z"/>
					</g>
				</g>
			</g>
		</g>
	</g>
	<g>
		<g>
			<path class="st0" d="M89.91,157.14H71.04c-0.97,0-1.75,0.79-1.75,1.77v10.61c0,0.98,0.78,1.77,1.75,1.77h7.69l6.46,7.21v-6.95
				l4.75-0.1c0.95-0.02,1.71-0.81,1.71-1.77v-10.78C91.66,157.93,90.88,157.14,89.91,157.14z"/>
			<ellipse class="st7" cx="57.8" cy="305.76" rx="5.27" ry="5.35"/>
			<path class="st7" d="M459.4,243.07c0,2.15-1.72,3.9-3.84,3.9s-3.84-1.74-3.84-3.9c0-2.15,1.72-3.9,3.84-3.9
				S459.4,240.92,459.4,243.07z"/>
			<rect x="270.71" y="100.3" class="st7" width="7.98" height="8.09"/>
		</g>
		<g>
			<g>
				<g>
					<path class="st2" d="M327.56,255.47h24.92v-25.14c0-1.04-0.84-1.88-1.88-1.88h-23.04c-1.04,0-1.88,0.84-1.88,1.88v23.26
						C325.68,254.63,326.52,255.47,327.56,255.47z"/>
					<polygon class="st2" points="352.49,251.11 352.49,260.53 344.47,251.11 					"/>
				</g>
				<g>
					<g>
						<g>
							<path class="st8" d="M337.15,246.63c2.27,0.04,4.57,0.07,6.66-0.07c0.66-0.05,1.23-1.1,0.43-1.43
								c0.34-0.17,0.68-0.34,0.83-0.72c0.14-0.36-0.03-0.85-0.4-0.94c0.79,0.2,1.1-1.06,0.48-1.46c0.33-0.28,0.6-0.64,0.66-1.07
								c0.07-0.42-0.1-0.9-0.48-1.1c-0.25-0.13-0.54-0.14-0.82-0.14c-0.95-0.01-1.89-0.01-2.83-0.02c0.26-1.48,0.33-3.09-0.42-4.39
								c-0.23-0.39-0.83-0.86-1.32-0.56c-0.45,0.28-0.33,0.98-0.3,1.43c0.09,1.84-0.95,3.69-2.58,4.56
								C337.07,240.72,337.18,244.63,337.15,246.63z"/>
						</g>
					</g>
					<rect x="332.89" y="240.72" class="st8" width="3.43" height="5.91"/>
				</g>
			</g>
			<g>
				<g>
					<g>
						<path class="st9" d="M197.34,208.17h-35.63c-2.11,0-3.82-1.71-3.82-3.82v-35.97c0-1.64,1.33-2.98,2.98-2.98h36.47
							c1.64,0,2.98,1.33,2.98,2.98v36.81C200.32,206.84,198.99,208.17,197.34,208.17z"/>
					</g>
				</g>
				<g>
					<polyline class="st10" points="163.73,194.41 175.35,185.12 179.59,189.82 191.25,180.99 					"/>
					<polyline class="st10" points="189.04,180.27 191.57,180.86 191.21,183.32 					"/>
				</g>
			</g>
			<g>
				<g>
					<path class="st9" d="M438.25,197.97h-71.19c-1.24,0-2.24-1-2.24-2.24v-70.21c0-1.24,1-2.24,2.24-2.24h71.19
						c1.24,0,2.24,1,2.24,2.24v70.21C440.49,196.97,439.49,197.97,438.25,197.97z"/>
				</g>
				<g>
					<line class="st6" x1="389.15" y1="166.86" x2="405.9" y2="166.86"/>
					<line class="st6" x1="378.44" y1="174.74" x2="426.71" y2="174.74"/>
					<line class="st6" x1="378.44" y1="183.81" x2="392.96" y2="183.81"/>
					<line class="st6" x1="396.67" y1="183.81" x2="406.95" y2="183.81"/>
					<line class="st6" x1="378.44" y1="166.86" x2="384.94" y2="166.86"/>
				</g>
				<g>
					<g>
						<path class="st6" d="M397.6,139.63v10.34c0,0.83,0.9,1.35,1.62,0.94l8.95-5.17c0.72-0.42,0.72-1.46,0-1.88l-8.95-5.17
							C398.5,138.27,397.6,138.79,397.6,139.63z"/>
					</g>
					
						<ellipse transform="matrix(0.7071 -0.7071 0.7071 0.7071 15.301 326.5313)" class="st11" cx="401.81" cy="144.8" rx="13.98" ry="13.98"/>
				</g>
			</g>
		</g>
	</g>
	<g>
		<g>
			<path d="M400.8,343.13h-28.8c-1.68,0-3.04-1.36-3.04-3.04l0,0c0-1.68,1.36-3.04,3.04-3.04h28.8c1.68,0,3.04,1.36,3.04,3.04l0,0
				C403.84,341.77,402.48,343.13,400.8,343.13z"/>
			<g>
				
					<rect x="399.32" y="359.97" transform="matrix(6.123234e-17 -1 1 6.123234e-17 21.7796 780.3638)" class="st12" width="3.51" height="38.64"/>
				<path class="st12" d="M385.05,380.34c0.3,1.82-0.93,3.54-2.75,3.85c-1.82,0.3-3.54-0.93-3.85-2.75
					c-0.3-1.82,0.93-3.54,2.75-3.85C383.03,377.29,384.75,378.52,385.05,380.34z"/>
				<rect x="399.18" y="341.13" class="st12" width="3.78" height="38.52"/>
				<path class="st12" d="M423.69,380.34c0.3,1.82-0.93,3.54-2.75,3.85c-1.82,0.3-3.54-0.93-3.85-2.75
					c-0.3-1.82,0.93-3.54,2.75-3.85C421.66,377.29,423.39,378.52,423.69,380.34z"/>
			</g>
			<path class="st12" d="M420.62,343.13h-33.98c-2.32,0-3.98-2.27-3.33-4.53l16.23-55.94c0.44-1.5,1.79-2.53,3.33-2.53h33.98
				c2.32,0,3.98,2.27,3.33,4.53l-16.23,55.94C423.51,342.1,422.15,343.13,420.62,343.13z"/>
			<path class="st13" d="M415.94,343.13h-29.6c-2.32,0-3.98-2.27-3.33-4.53l16.23-55.94c0.44-1.5,1.79-2.53,3.33-2.53h29.6
				c2.32,0,3.98,2.27,3.33,4.53l-16.23,55.94C418.83,342.1,417.48,343.13,415.94,343.13z"/>
			<path class="st12" d="M420.61,343.13h-35.97c-1.68,0-3.04-1.36-3.04-3.04l0,0c0-1.68,1.36-3.04,3.04-3.04h35.97
				c1.68,0,3.04,1.36,3.04,3.04l0,0C423.64,341.77,422.28,343.13,420.61,343.13z"/>
		</g>
		<g>
			<g>
				<g>
					<g>
						
							<rect x="365.29" y="355.78" transform="matrix(0.866 -0.5 0.5 0.866 -131.5058 233.5049)" class="st14" width="9.44" height="12.77"/>
						<g>
							<g>
								<defs>
									<path id="XMLID_66_" d="M376.53,364.01L366.16,370l-5.49,7.99c-1.21,1.87-1.26,4.26-0.15,6.19l0,0l20.75-11.98
										L376.53,364.01z"/>
								</defs>
								<use xlink:href="#XMLID_66_"  style="overflow:visible;fill:#231B22;"/>
								<clipPath id="XMLID_00000097463074742672927550000011422235228852299145_">
									<use xlink:href="#XMLID_66_"  style="overflow:visible;"/>
								</clipPath>
							</g>
							<path class="st15" d="M365.54,370.88l0.51-4.51c0,0,3.27-2.78,5.24,1.38L365.54,370.88z"/>
						</g>
					</g>
					<g>
						<g>
							<path class="st16" d="M360.21,309.89c0,0-24.98-1.26-22.83,8.28c2.14,9.55,18.38,48.45,18.38,48.45l20.89-5.38l-15.8-29.4
								l30.61-11.5L360.21,309.89z"/>
						</g>
					</g>
				</g>
				<g>
					<g>
						<rect x="354.17" y="363.48" class="st14" width="9.44" height="12.77"/>
						<g>
							<g>
								<defs>
									<path id="XMLID_79_" d="M363.62,374.73h-11.98l-8.75,4.17c-1.98,1.02-3.22,3.06-3.22,5.28l0,0h23.96V374.73z"/>
								</defs>
								<use xlink:href="#XMLID_79_"  style="overflow:visible;fill:#231B22;"/>
								<clipPath id="XMLID_00000082333027935671088510000018374241459291903891_">
									<use xlink:href="#XMLID_79_"  style="overflow:visible;"/>
								</clipPath>
							</g>
							<path class="st15" d="M350.66,375.17l2.7-3.65c0,0,4.22-0.77,3.85,3.82L350.66,375.17z"/>
						</g>
					</g>
					<g>
						<path class="st3" d="M383.83,316.29l-29.24,0.45c-2.53,0.04-4.87,1.46-5.92,3.76c-0.83,1.8-1.44,4.45-1.32,8.35
							c0.31,10.83,3.5,37.74,3.5,37.74h17.55l-2.36-28.44l32.2-0.4c6.61-0.08,12.79-3.76,15.58-9.75c1.16-2.5,1.77-5.33,1.09-8.33
							L383.83,316.29z"/>
					</g>
				</g>
			</g>
			<g>
				<g>
					<g>
						<path class="st17" d="M353.3,309.81c0.01,3.05-2.06,3.51-5.12,3.52c-3.05,0.01-5.93-0.45-5.94-3.5
							c-0.01-3.05,2.46-5.53,5.52-5.54C350.82,304.28,353.29,306.75,353.3,309.81z"/>
						<path class="st17" d="M357.18,312.93l-6.39,0.01c-1.67,0-3.04-1.36-3.04-3.03l0,0c0-1.67,1.36-3.04,3.03-3.04l6.39-0.01
							c1.67,0,3.04,1.36,3.04,3.03l0,0C360.21,311.55,358.85,312.92,357.18,312.93z"/>
					</g>
					<path class="st18" d="M356.94,313.57l-2.13-10.46l24.64-5.76l4.78-27.02c0.53-2.79,3.82-5.74,6.61-5.22l0,0
						c2.79,0.53,5.35,3.77,4.82,6.56l-3.08,35.21c-0.38,1.98-1.87,3.56-3.83,4.04L356.94,313.57z"/>
				</g>
				<g>
					<path class="st2" d="M411.6,264.77c6.54,0.29,9.4,7.07,9.61,11.6l-6.3,43.29c-27.21-0.24-31.08-3.37-31.08-3.37v-43.63
						c0.33-4.2,2.26-8.15,7.04-8.55l9.78-0.91L411.6,264.77z"/>
					<path class="st14" d="M392.49,263.96l7.01-1.06l7.8,1.25c0,0-0.67,6.49-10.48,5.34c-1.48-0.17-2.9-0.71-3.9-1.63
						C391.91,266.97,391.67,265.74,392.49,263.96z"/>
				</g>
				<g>
					<polygon class="st18" points="391.04,302.99 405.44,298.07 407.1,283.77 408.07,300.3 					"/>
					<path class="st18" d="M416.08,311.63c-0.1-0.01-0.71,4.9-0.71,4.9s-29.77,2.68-34.1-0.29L416.08,311.63z"/>
					<g>
						<g>
							<path class="st17" d="M379.44,313.23c0.21,3.05-1.83,3.64-4.87,3.85c-3.05,0.21-5.95-0.05-6.16-3.1
								c-0.21-3.05,2.09-5.68,5.14-5.89C376.59,307.88,379.23,310.18,379.44,313.23z"/>
							<path class="st17" d="M383.52,316.08l-6.37,0.44c-1.66,0.11-3.12-1.15-3.23-2.82l0,0c-0.11-1.67,1.15-3.12,2.82-3.24
								l6.37-0.44c1.66-0.11,3.12,1.15,3.24,2.82l0,0C386.45,314.51,385.18,315.97,383.52,316.08z"/>
						</g>
						<path class="st2" d="M383.31,316.75l-2.82-11.85l27.57-4.6l-1.38-23.43c-1.11-5.2,3.68-9.75,7.38-9.14l0,0
							c3.54-0.05,6.45,2.68,7.14,7.99l1.91,32c-0.24,2-1.63,3.68-3.56,4.28L383.31,316.75z"/>
					</g>
				</g>
				<g>
					<path class="st19" d="M333.79,281.39l31.23,2.94c1.03,0.1,1.85,0.9,1.97,1.92l3.28,28.14c0.16,1.38-0.99,2.56-2.38,2.43
						l-31.75-2.99c-1.04-0.1-1.87-0.92-1.97-1.96l-2.76-28.09C331.28,282.41,332.42,281.26,333.79,281.39z"/>
					<path class="st20" d="M331.99,281.22l31.23,2.94c1.03,0.1,1.85,0.9,1.97,1.92l3.28,28.14c0.16,1.38-0.99,2.56-2.38,2.43
						l-31.75-2.99c-1.04-0.1-1.87-0.92-1.97-1.96l-2.76-28.09C329.48,282.24,330.62,281.09,331.99,281.22z"/>
					<path class="st19" d="M369.4,314.59l21.34,2.01c0.65,0.06,1.13,0.64,1.07,1.29l0,0c-0.06,0.65-0.64,1.13-1.29,1.07l-22.63-2.05
						L369.4,314.59z"/>
					<path class="st21" d="M349.89,298.29c-0.18,1.88-1.84,3.26-3.72,3.08c-1.88-0.18-3.26-1.84-3.08-3.72
						c0.18-1.88,1.84-3.26,3.72-3.08C348.69,294.74,350.07,296.41,349.89,298.29z"/>
				</g>
			</g>
			<g>
				<path class="st19" d="M388.73,224.88c3.24-0.16,6.03,2.17,6.52,5.31c0.75-0.55,1.67-0.9,2.67-0.95c2.7-0.13,4.92,1.05,5.57,3.73
					c15.51-1.69,0.97,21.13,0.97,21.13l-1.18-8.79l-0.43-9.85c-0.56,1.96-2.31,3.45-4.46,3.55c-2.26,0.11-4.23-1.34-4.89-3.4
					c-1.07,1.08-2.53,1.78-4.17,1.86c-3.47,0.17-6.43-2.51-6.59-5.99C382.57,228,385.25,225.05,388.73,224.88z"/>
				<path class="st14" d="M405.35,247.2l-0.32,16.86c-0.06,2.99-2.43,5.43-5.41,5.57l0,0c-3.21,0.15-5.9-2.37-5.96-5.58l-0.25-14.16
					L405.35,247.2z"/>
				<path class="st19" d="M404.19,251.1c0,0,0,11.06-10.58,9.72l-0.09-5.09L404.19,251.1z"/>
				<path class="st14" d="M395.52,258.19l0.36,0c5.29,0,9.58-4.28,9.58-9.57l0.01-10.81c0-1.37-1.11-2.48-2.48-2.48l-12.6-0.01
					c-2.44,0-4.43,1.98-4.43,4.42l-0.01,8.86C385.95,253.9,390.24,258.19,395.52,258.19z"/>
				<g>
					<path class="st19" d="M395.46,245.55c0.03,0.43,0.41,0.75,0.84,0.72s0.75-0.41,0.72-0.84c-0.03-0.43-0.41-0.75-0.84-0.72
						C395.74,244.74,395.42,245.12,395.46,245.55z"/>
					<path class="st19" d="M387.69,245.56c0.03,0.43,0.41,0.75,0.84,0.72c0.43-0.03,0.75-0.41,0.72-0.84
						c-0.03-0.43-0.41-0.75-0.84-0.72C387.98,244.75,387.66,245.13,387.69,245.56z"/>
					<path class="st22" d="M390.79,246.28l-0.26,1.87c0,0,0.14,1.18,1.82,0.72"/>
					<path class="st19" d="M398.29,242.51c-0.05,0.01-0.1,0.01-0.15,0.01l-3.53-0.13c-0.39-0.02-0.7-0.35-0.69-0.74
						c0.01-0.39,0.34-0.7,0.74-0.69l3.53,0.13c0.39,0.02,0.7,0.35,0.69,0.74C398.88,242.18,398.62,242.46,398.29,242.51z"/>
					<path class="st19" d="M389.16,242.39c-0.05,0.01-0.1,0.01-0.14,0.01l-2.16-0.08c-0.4-0.01-0.7-0.35-0.69-0.74
						c0.01-0.4,0.35-0.7,0.74-0.69l2.16,0.08c0.4,0.01,0.7,0.35,0.69,0.74C389.75,242.06,389.49,242.34,389.16,242.39z"/>
					<path class="st22" d="M389.52,251.08c0,0,2.44,1.43,5.5,0.12"/>
				</g>
				<path class="st19" d="M405.21,246.9c0,0-5.49-1.25-4.45-9.58l-13.9-0.24l0.34-3.39l15.42,0.21c2.2,0.03,3.9,1.94,3.68,4.13
					L405.21,246.9z"/>
				<path class="st14" d="M403.28,246.64c0,1.7,1.38,3.08,3.08,3.08c1.7,0,3.08-1.38,3.08-3.08c0-1.7-1.38-3.08-3.08-3.08
					C404.66,243.56,403.28,244.93,403.28,246.64z"/>
			</g>
		</g>
	</g>
	<g>
		<g>
			<g>
				<path class="st23" d="M279.97,189.99c-3.15,3.15-7.74,3.68-10.24,1.17c-2.5-2.5-1.98-7.09,1.17-10.24
					c3.15-3.15,7.74-3.68,10.24-1.17C283.65,182.25,283.13,186.84,279.97,189.99z"/>
				<path class="st3" d="M274.63,191.19c0,2.72-2.21,4.93-4.93,4.93s-4.93-2.21-4.93-4.93s2.21-4.93,4.93-4.93
					S274.63,188.47,274.63,191.19z"/>
			</g>
			<path class="st23" d="M248.37,199.28c0.29,7.26,7.09,13.65,14.34,13.36c7.26-0.29,13.44-6.99,13.15-14.24s-6.3-13.71-14.54-12.27
				C254.17,187.39,248.08,192.03,248.37,199.28z"/>
			<g>
				<g>
					<path class="st24" d="M267.77,219.83l-0.59-15.64l-9.65,0.43l0.59,15.64c0.12,2.67,2.37,4.73,5.04,4.61l0,0
						C265.83,224.75,267.89,222.49,267.77,219.83z"/>
				</g>
				<path class="st23" d="M267.56,204.89c0,0-0.56,11.58-9.49,11.75l-0.25-5.78L267.56,204.89z"/>
			</g>
			<path class="st24" d="M259.68,214.58L259.68,214.58c-5.17,0.21-9.53-2.75-9.73-7.92l-0.35-8.89c-0.15-3.82,3.86-8,6.11-8.09
				l8.39,2c2.25-0.09,4.17,1.68,4.26,3.93l0.35,8.86C268.9,209.64,264.04,214.41,259.68,214.58z"/>
			<g>
				<path class="st15" d="M258.59,202.29c0.05,0.41,0.41,0.7,0.82,0.66c0.41-0.05,0.7-0.41,0.66-0.82c-0.05-0.41-0.41-0.7-0.82-0.66
					C258.84,201.51,258.54,201.88,258.59,202.29z"/>
				<path class="st15" d="M251.77,202.51c0.05,0.41,0.41,0.7,0.82,0.66c0.41-0.05,0.7-0.41,0.66-0.82s-0.41-0.7-0.82-0.66
					S251.72,202.1,251.77,202.51z"/>
				<path class="st25" d="M254.72,203.49l-0.12,2.14c0,0,0.17,1.12,1.76,0.62"/>
				<path class="st15" d="M261.24,199.95c-0.04,0.01-0.09,0.01-0.14,0.01l-3.37-0.01c-0.38,0-0.68-0.31-0.68-0.68
					c0-0.38,0.31-0.68,0.68-0.68l3.37,0.01c0.38,0,0.68,0.31,0.68,0.68C261.79,199.62,261.56,199.89,261.24,199.95z"/>
				<path class="st15" d="M253.12,200.09c-0.04,0.01-0.09,0.01-0.14,0.01l-2.06-0.01c-0.38,0-0.68-0.31-0.68-0.68
					c0-0.38,0.31-0.68,0.68-0.68l2.06,0.01c0.38,0,0.68,0.31,0.68,0.68C253.66,199.76,253.43,200.03,253.12,200.09z"/>
				<path class="st21" d="M253.39,207.92l6.03,0c0,0-0.56,2.28-3.63,2.05C253.69,209.82,253.39,207.92,253.39,207.92z"/>
			</g>
			<path class="st23" d="M264.12,196.93c0,0,0.11,5.74,3.37,6.22l2.21-6.42L264.12,196.93z"/>
			<path class="st24" d="M272.78,202.94c0.07,1.86-1.37,3.43-3.23,3.5c-1.86,0.07-3.43-1.37-3.5-3.23c-0.07-1.86,1.37-3.43,3.23-3.5
				C271.14,199.63,272.71,201.08,272.78,202.94z"/>
			<path class="st23" d="M264.1,185.91c0,0-17.55-1.11-17.39,11.65h24.11l-3.26-8.68L264.1,185.91z"/>
		</g>
		<g>
			<g>
				<g>
					<polygon class="st24" points="270.16,376.41 262.72,376.41 264.44,350.52 273.55,350.52 					"/>
					<g>
						<g>
							<defs>
								<path id="XMLID_117_" d="M262.25,374.77h12.24l8.6,4.1c1.94,1,3.17,3,3.17,5.19l0,0l-24.51-0.29L262.25,374.77z"/>
							</defs>
							<use xlink:href="#XMLID_117_"  style="overflow:visible;fill:#231B22;"/>
							<clipPath id="XMLID_00000147899983621846724410000017231657857722775182_">
								<use xlink:href="#XMLID_117_"  style="overflow:visible;"/>
							</clipPath>
						</g>
						<path class="st15" d="M275.45,375.21l-2.65-3.59c0,0-4.14-0.76-3.78,3.75L275.45,375.21z"/>
					</g>
				</g>
				<path class="st15" d="M275.43,252.67c0,0,14.59,10.36,8.53,44.9l-8.53,58.36h-12.75l0.74-92.32l-0.74-10.95H275.43z"/>
			</g>
			<g>
				<g>
					<polygon class="st24" points="225.55,376.41 232.99,376.41 240.43,350.52 231.32,350.52 					"/>
					<g>
						<g>
							<defs>
								<path id="XMLID_116_" d="M233.46,374.77h-12.24l-8.6,4.1c-1.94,1-3.17,3-3.17,5.19l0,0l24.51-0.29L233.46,374.77z"/>
							</defs>
							<use xlink:href="#XMLID_116_"  style="overflow:visible;fill:#231B22;"/>
							<clipPath id="XMLID_00000177484979231838567830000012456102009093723792_">
								<use xlink:href="#XMLID_116_"  style="overflow:visible;"/>
							</clipPath>
						</g>
						<path class="st15" d="M220.26,375.21l2.65-3.59c0,0,4.14-0.76,3.78,3.75L220.26,375.21z"/>
					</g>
				</g>
				<g>
					<path class="st15" d="M252.15,252.77c0,0-6.48,5.89-11.25,31.77c-4.76,25.88-13.52,70.46-13.52,70.46l12.18,0.94l26.25-80.46
						l1.76-22.7H252.15z"/>
					<polygon class="st26" points="263.25,283.33 257.05,274.37 254.6,308.55 					"/>
				</g>
			</g>
		</g>
		<g>
			<g>
				<g>
					<path class="st24" d="M233.59,238.48c0.44,0.01,1.38-0.11,1.82-0.2l26.15-5.54c3.72-0.55,9.16-6.01,7.58-9.42
						c-1.16-2.51-3.97-3.8-6.63-3.05l-26.74,9.04L233.59,238.48z"/>
					<path class="st24" d="M236.93,229.83L213.7,214l-3.24,4.11l19.14,18.96c3.34,2.92,9.65,1.07,11.05-3.13l0,0
						C241.62,231.03,239.66,231.22,236.93,229.83z"/>
					<g>
						<path class="st24" d="M213.63,215.75c-1.13,2.68-4.21,3.93-6.89,2.81c-2.68-1.13-3.93-4.21-2.81-6.89
							c1.13-2.68,4.21-3.93,6.89-2.81C213.5,209.99,214.75,213.08,213.63,215.75z"/>
						<path class="st24" d="M210.56,208.77l-4.58-3.39c-0.37-0.31-0.93-0.28-1.25,0.08l0,0c-0.27,0.31-0.27,0.76,0.01,1.06
							l4.23,4.45L210.56,208.77z"/>
					</g>
				</g>
				<g>
					<path class="st27" d="M253.34,221.23c-5.12,1.14-12.2,4.17-12.2,4.17l7.92,10.77l2.72-0.69L253.34,221.23z"/>
					<path class="st28" d="M248.48,235.53c0,0-0.79-4.07,0-8.98l-4.06,3.31L248.48,235.53z"/>
				</g>
			</g>
			<g>
				<path class="st24" d="M297.66,255.7l2.36-4.32l-11.9-19.79c-1.53-2.65-8.57-7.49-10.68-5.27c-1.55,1.63-1.61,6.66-0.25,8.45
					l14.59,19.47L297.66,255.7z"/>
				<path class="st24" d="M292.02,255.23l6.89,27.54l5.24-0.56l-3.3-28.24c-0.06-3.21-3.37-5.33-6.31-4.04v0
					C292.51,250.83,291.44,253.08,292.02,255.23z"/>
				<path class="st27" d="M273.46,220.78c0,0,8.76,1.22,14.49,8.49L275.44,241c0,0-8.08-7.41-2.69-14.45L273.46,220.78z"/>
				<g>
					<path class="st24" d="M297.98,282.01c2.25-1.77,5.5-1.38,7.27,0.87c1.77,2.25,1.38,5.5-0.87,7.27s-5.5,1.38-7.27-0.87
						C295.34,287.03,295.73,283.78,297.98,282.01z"/>
				</g>
			</g>
			<g>
				<g>
					<g>
						<path class="st27" d="M263.05,219.05c0,0-5.8-0.43-14.43,4.48c0,0-1.73,14.59,2.88,19.99l0.66,9.26l23.27-0.1
							c0,0,1.29-16.51,6.08-20.69l-1.6-8.22C279.91,223.76,272.81,218.88,263.05,219.05z"/>
					</g>
				</g>
				<path class="st24" d="M253.33,221.28c0,0,8.69-4.78,20.14-0.5l-3.89,2.44C264.61,226.33,257.74,225.13,253.33,221.28
					L253.33,221.28z"/>
				<path class="st28" d="M277.98,238.62l-0.76,0.71c0,0-3.17-2.15-5.24-5.41l3.69,16.36L277.98,238.62z"/>
			</g>
		</g>
	</g>
	<g>
		<g>
			<path class="st14" d="M132.86,279.4c0,0,5.48,6.91,2.62,15.27c-2.86,8.36-10.79-0.6-10.79-0.6L132.86,279.4z"/>
			<path class="st28" d="M133.66,218.49c0,0-0.63-2.63-6.47-5.13l4.12,32.37l0.39-1.96l-3.15,40.65l9.24-0.54
				C139.75,234.82,133.66,218.49,133.66,218.49z"/>
		</g>
		<g>
			<g>
				<path class="st27" d="M115.87,209.61c0,0-10.01,0.41-17.44,4.95l-1.53,53.56h35.14v-47.34c0-2.91-0.79-5.36-1.84-5.88
					C127.85,213.72,121.61,210.16,115.87,209.61z"/>
				<polygon class="st28" points="97.7,240.23 102.74,233.22 102.74,247.56 97.7,246.56 				"/>
				<path class="st28" d="M97.08,261.81c0,0.1,9.38,0,9.38,0v-2.16h2.04c0,0,9.83,2.2,13.14-6.7l-7.98-1.85l-16.3,3.73L97.08,261.81
					z"/>
			</g>
			<g>
				<g>
					<path class="st27" d="M109.75,223.64c0,0-9.35,12.42-19.21,26.89c-1.1,1.62-3.77,2.47-5.73,2.42l0,0
						c-4.43-0.11-6.39-4.85-4.78-8.75c0,0,11.35-23.93,18.4-29.64C98.67,214.36,109.75,223.64,109.75,223.64z"/>
				</g>
				<g>
					<g>
						<path class="st29" d="M120.33,240.24l-8.46,11.07c-0.83,1.09-0.23,2.68,1.12,2.94l6.83,1.32c0.69,0.13,1.39-0.13,1.81-0.69
							l8.53-11.06c0.84-1.09,0.24-2.68-1.11-2.94l-6.9-1.34C121.47,239.42,120.76,239.69,120.33,240.24z"/>
					</g>
					<g>
						<g>
							<polygon class="st14" points="108.5,250.95 97.63,251.1 95.44,256.21 107.64,255.6 							"/>
							<path class="st14" d="M108.5,250.95l7.15-5.05c0.36-0.26,0.85-0.22,1.18,0.07v0c0.37,0.34,0.41,0.9,0.09,1.29l-1.56,1.92
								l5.39,0.58c0.69,0.09,1.09,0.83,0.78,1.46l-0.82,1.65c-0.72,1.47-2.08,2.53-3.68,2.87c-2.77,0.6-6.92,1.35-9.4-0.15
								L108.5,250.95z"/>
						</g>
						<g>
							<path class="st27" d="M80.75,242.71c0,0-4.14,6.93-1.27,10.87c2.89,3.97,15.42,6.19,26.05,5.18l0.44-10.55l-12.46-2.48
								L80.75,242.71z"/>
						</g>
					</g>
				</g>
			</g>
		</g>
		<g>
			<g>
				<path class="st14" d="M111.2,193.52l-1.11,16.82c-0.2,2.98,1.95,5.61,4.92,6.01l0,0c3.18,0.43,6.08-1.86,6.41-5.05l1.45-14.08
					L111.2,193.52z"/>
				<path class="st15" d="M111.66,198.48c0,0-2.86,12.04,9.83,12.08l0.66-6.4L111.66,198.48z"/>
			</g>
			<g>
				<path class="st15" d="M115.93,178.88c0,0-7.85,1.17-7.65,6.19c0.2,5.02,0.88,10.33,0.88,10.33l4.3-8.21L115.93,178.88z"/>
				<path class="st15" d="M129.99,183.74c0,0,5.76,7.86-2.51,11.36l-1.37-0.69c0,0-2.49-6.12,0.79-9.36L129.99,183.74z"/>
				<path class="st14" d="M119.34,207.73l-0.36-0.02c-5.32-0.27-9.42-4.8-9.15-10.12l0.55-10.88c0.07-1.38,1.24-2.44,2.62-2.37
					l12.68,0.64c2.46,0.12,4.35,2.22,4.23,4.68l-0.45,8.92C129.19,203.91,124.66,208,119.34,207.73z"/>
				<g>
					<path class="st12" d="M120.5,196.3c-0.06,0.43-0.45,0.74-0.88,0.68c-0.43-0.06-0.74-0.45-0.68-0.88
						c0.06-0.43,0.45-0.74,0.88-0.68C120.25,195.48,120.56,195.87,120.5,196.3z"/>
					<path class="st12" d="M127.22,196.62c-0.06,0.43-0.45,0.74-0.88,0.68c-0.43-0.06-0.74-0.45-0.68-0.88
						c0.06-0.43,0.45-0.74,0.88-0.68C126.97,195.8,127.28,196.19,127.22,196.62z"/>
					<path class="st30" d="M123.83,197.63l0.09,2.23c0,0-0.2,1.18-1.87,0.63"/>
					<path class="st12" d="M117.73,193.79c0.05,0.01,0.1,0.02,0.15,0.02l3.56,0.05c0.4,0.01,0.72-0.31,0.73-0.71
						c0.01-0.4-0.31-0.72-0.71-0.73l-3.56-0.05c-0.4-0.01-0.72,0.31-0.73,0.71C117.16,193.42,117.41,193.72,117.73,193.79z"/>
					<path class="st12" d="M125.84,194.05c0.05,0.01,0.1,0.02,0.14,0.02l2.18,0.03c0.4,0.01,0.73-0.31,0.73-0.71
						c0.01-0.4-0.31-0.73-0.71-0.73l-2.18-0.03c-0.4-0.01-0.73,0.31-0.73,0.71C125.27,193.69,125.51,193.98,125.84,194.05z"/>
					<path class="st30" d="M118.12,201.16c0,0,3.05,2.92,7.42,0.46"/>
				</g>
				<path class="st15" d="M109.72,196.52c0,0,6.41-2.96,6.04-13.18l-5.87-0.74l-0.08,1.48L109.72,196.52z"/>
				<path class="st14" d="M112.41,195.57c-0.09,1.79-1.62,3.18-3.41,3.08c-1.79-0.09-3.18-1.62-3.09-3.41
					c0.09-1.79,1.62-3.18,3.41-3.09C111.12,192.25,112.5,193.78,112.41,195.57z"/>
				<path class="st15" d="M114.25,188.79l3.68-1.86c0,0,8.44,4.34,12.16,0.83c4.02-3.79,3.81-11.97-3.59-13.26
					c-6.43-1.12-11.62,3.13-12.58,7C112.95,185.36,114.25,188.79,114.25,188.79z"/>
			</g>
		</g>
		<g>
			<polygon class="st2" points="96.9,268.11 96.99,279.78 132,279.78 132.04,268.11 			"/>
			<g>
				<g>
					<rect x="102.22" y="363.01" class="st14" width="9.5" height="12.84"/>
					<g>
						<g>
							<defs>
								<path id="XMLID_107_" d="M111.71,374.31H99.67l-8.8,4.2c-1.99,1.02-3.24,3.07-3.24,5.31l0,0h24.08V374.31z"/>
							</defs>
							<use xlink:href="#XMLID_107_"  style="overflow:visible;fill:#231B22;"/>
							<clipPath id="XMLID_00000129191618682616303740000010072170330307228304_">
								<use xlink:href="#XMLID_107_"  style="overflow:visible;"/>
							</clipPath>
						</g>
						<path class="st15" d="M98.69,374.76l2.71-3.67c0,0,4.24-0.77,3.87,3.84L98.69,374.76z"/>
					</g>
				</g>
				<g>
					<polygon class="st2" points="116.17,273.3 112.44,365.38 98.23,365.38 96.9,273.3 					"/>
					<polygon class="st18" points="96.36,359.45 112.68,359.45 112.44,365.38 96.36,365.38 					"/>
				</g>
			</g>
			<g>
				<g>
					<rect x="120.12" y="363.01" class="st14" width="9.5" height="12.84"/>
					<g>
						<g>
							<defs>
								<path id="XMLID_106_" d="M120.12,374.31h12.04l8.8,4.2c1.99,1.02,3.24,3.07,3.24,5.31l0,0h-24.08V374.31z"/>
							</defs>
							<use xlink:href="#XMLID_106_"  style="overflow:visible;fill:#231B22;"/>
							<clipPath id="XMLID_00000003091179681489201510000007367457195115526842_">
								<use xlink:href="#XMLID_106_"  style="overflow:visible;"/>
							</clipPath>
						</g>
						<path class="st15" d="M133.15,374.76l-2.71-3.67c0,0-4.24-0.77-3.87,3.84L133.15,374.76z"/>
					</g>
				</g>
				<g>
					<g>
						<polygon class="st2" points="132.04,275.3 131.26,365.38 116.17,365.38 115.15,276.75 						"/>
						<polygon class="st18" points="115.19,280.14 119.93,280.14 115.78,331.65 						"/>
					</g>
					<polygon class="st18" points="133.15,359.45 116.02,359.45 116.08,365.38 133.15,365.38 					"/>
				</g>
			</g>
		</g>
	</g>
	<g>
		<line class="st31" x1="40.6" y1="384.23" x2="445" y2="384.23"/>
		<line class="st31" x1="127.9" y1="399.7" x2="313.87" y2="399.7"/>
	</g>
</g>
</svg>
