<?xml version="1.0" encoding="utf-8"?>
<!-- Generator: Adobe Illustrator 27.3.1, SVG Export Plug-In . SVG Version: 6.00 Build 0)  -->
<svg version="1.1" id="Layer_1" xmlns="http://www.w3.org/2000/svg" xmlns:xlink="http://www.w3.org/1999/xlink" x="0px" y="0px"
	 viewBox="0 0 500 500" style="enable-background:new 0 0 500 500;" xml:space="preserve">
<style type="text/css">
	.st0{fill:none;stroke:#E3B2B2;stroke-width:0.4336;stroke-miterlimit:10;}
	.st1{fill:#FBE5E0;}
	.st2{fill:#0067E6;}
	.st3{fill:#FD7338;}
	.st4{fill:none;stroke:#E3B2B2;stroke-width:0.297;stroke-miterlimit:10;}
	.st5{fill:none;stroke:#E3B2B2;stroke-width:0.4544;stroke-miterlimit:10;}
	.st6{fill:none;stroke:#FFFFFF;stroke-width:0.459;stroke-miterlimit:10;}
	.st7{fill:none;stroke:#FFFFFF;stroke-width:0.459;stroke-miterlimit:9.9996;}
	.st8{enable-background:new    ;}
	.st9{fill:#FFFFFF;}
	.st10{fill:#00CA90;}
	.st11{fill:none;stroke:#FFFFFF;stroke-width:0.8626;stroke-miterlimit:10;}
	.st12{fill:none;stroke:#E3B2B2;stroke-width:0.4983;stroke-miterlimit:10;}
	.st13{fill:#F26425;}
	.st14{fill:#EA5F2A;}
	.st15{fill:#F6A4A7;}
	.st16{fill:#231B22;}
	.st17{fill:none;stroke:#C37179;stroke-width:0.8442;stroke-linecap:round;stroke-linejoin:round;stroke-miterlimit:10;}
	.st18{fill:#3F90E6;}
	.st19{fill:#0056A1;}
	.st20{fill:none;stroke:#231B22;stroke-width:0.2821;stroke-miterlimit:10;}
</style>
<g>
	<g>
		<g>
			<g>
				<path class="st0" d="M416.1,310.2H155.7c-2.8,0-5.1-2.3-5.1-5.1V159.5c0-2.8,2.3-5.1,5.1-5.1h260.4c2.8,0,5.1,2.3,5.1,5.1v145.7
					C421.2,308,418.9,310.2,416.1,310.2z"/>
				<path class="st1" d="M430.4,297.8H170c-2.8,0-5.1-2.3-5.1-5.1V147.1c0-2.8,2.3-5.1,5.1-5.1h260.4c2.8,0,5.1,2.3,5.1,5.1v145.7
					C435.5,295.6,433.2,297.8,430.4,297.8z"/>
			</g>
			<g>
				<g>
					<circle class="st2" cx="185.4" cy="152" r="3.3"/>
					<path class="st3" d="M199.6,152c0,1.8-1.5,3.3-3.3,3.3c-1.8,0-3.3-1.5-3.3-3.3c0-1.8,1.5-3.3,3.3-3.3
						C198.1,148.8,199.6,150.2,199.6,152z"/>
					<circle class="st4" cx="207.2" cy="152" r="3.3"/>
				</g>
				<g>
					<path class="st5" d="M258.6,192.8h-67.7c-5.5,0-9.9-4.5-9.9-9.9l0,0c0-5.5,4.5-9.9,9.9-9.9h67.7c5.5,0,9.9,4.5,9.9,9.9l0,0
						C268.5,188.3,264.1,192.8,258.6,192.8z"/>
					<path class="st6" d="M207,182.9c0,1.7-1.4,3.1-3.1,3.1s-3.1-1.4-3.1-3.1s1.4-3.1,3.1-3.1S207,181.1,207,182.9z"/>
					<path class="st6" d="M228.3,182.9c0,1.7-1.4,3.1-3.1,3.1s-3.1-1.4-3.1-3.1s1.4-3.1,3.1-3.1S228.3,181.1,228.3,182.9z"/>
					<path class="st6" d="M248,182.9c0,1.7-1.4,3.1-3.1,3.1s-3.1-1.4-3.1-3.1s1.4-3.1,3.1-3.1S248,181.1,248,182.9z"/>
				</g>
				<g>
					<path class="st5" d="M413,276.1H294.4c-1.4,0-2.5-1.1-2.5-2.5V164.9c0-1.4,1.1-2.5,2.5-2.5H413c1.4,0,2.5,1.1,2.5,2.5v108.6
						C415.5,275,414.4,276.1,413,276.1z"/>
					<path class="st6" d="M400.2,261.5h-92.8c-1.4,0-2.6-1.1-2.6-2.6v-47.5c0-1.4,1.1-2.6,2.6-2.6h92.8c1.4,0,2.6,1.1,2.6,2.6V259
						C402.7,260.4,401.6,261.5,400.2,261.5z"/>
				</g>
				
					<ellipse transform="matrix(0.2285 -0.9735 0.9735 0.2285 -72.8225 383.4467)" class="st7" cx="205.5" cy="237.7" rx="21.3" ry="21.3"/>
			</g>
		</g>
		<g>
			<g>
				<g>
					<rect x="330.2" y="244" class="st2" width="36.9" height="37.2"/>
					<polygon class="st2" points="330.2,275.2 330.2,288.1 341.2,275.2 					"/>
				</g>
				<g>
					<g class="st8">
						<path class="st9" d="M347,270.8c0-0.6,0.1-1,0.4-1.2c0.3-0.2,0.6-0.4,1-0.4c0.4,0,0.7,0.1,1,0.4s0.4,0.6,0.4,1.2
							c0,0.6-0.1,1-0.4,1.2c-0.3,0.3-0.6,0.4-1,0.4c-0.4,0-0.8-0.1-1-0.4C347.1,271.8,347,271.4,347,270.8z M349.1,267.2h-1.3
							l-0.6-12.8h2.4L349.1,267.2z"/>
					</g>
				</g>
			</g>
			<g>
				<g>
					<path class="st10" d="M444.4,184.8H330.6c-2.5,0-4.4-2-4.4-4.4v-58.9c0-2.5,2-4.4,4.4-4.4h113.8c2.5,0,4.4,2,4.4,4.4v58.9
						C448.8,182.8,446.8,184.8,444.4,184.8z"/>
				</g>
				<g>
					<polyline class="st11" points="345.6,172.7 378.7,146.3 390.7,159.7 423.9,134.5 					"/>
					<polyline class="st11" points="417.6,132.5 424.8,134.2 423.8,141.2 					"/>
				</g>
			</g>
		</g>
		<g>
			<path class="st12" d="M62.9,293.5c0,3-2.4,5.4-5.3,5.4s-5.3-2.4-5.3-5.4s2.4-5.4,5.3-5.4S62.9,290.5,62.9,293.5z"/>
			<path class="st12" d="M426.7,345.3c0,2.2-1.7,3.9-3.9,3.9c-2.1,0-3.9-1.8-3.9-3.9c0-2.2,1.7-3.9,3.9-3.9
				C425,341.4,426.7,343.2,426.7,345.3z"/>
			<rect x="267" y="99.5" class="st12" width="8" height="8.2"/>
			<path class="st12" d="M129.5,127.1h-21.5c-1.1,0-2,0.9-2,2v12.1c0,1.1,0.9,2,2,2h8.8l7.3,8.2v-7.9l5.4-0.1c1.1,0,1.9-0.9,1.9-2
				v-12.3C131.5,128,130.7,127.1,129.5,127.1z"/>
		</g>
	</g>
	<g>
		<g>
			<g>
				<g>
					<path class="st13" d="M198.4,380.5l9.7-79.1c0-0.1,0-0.3,0.1-0.4v0l0,0c1.3-5.7,5.5-10.5,11.5-12.3c8.8-2.6,18,2.5,20.6,11.2
						c0.8,2.7,0.9,5.3,0.3,7.9h0l0,0.1c0,0.1,0,0.2-0.1,0.3l-9.7,60.7c-1.9,8-9.7,13.1-17.8,11.6l0,0L198.4,380.5z"/>
				</g>
				<g>
					<polygon class="st3" points="261.4,284.4 221.4,288.2 218.1,382.7 300.9,382.9 304.8,288.8 					"/>
					<path class="st14" d="M261.7,302.4c-0.4,0-0.7,0-1,0c-12.8-0.9-15.9-10.8-15.8-15.8c0-1.4,1.2-2.5,2.9-2.5
						c1.6,0,2.8,1.2,2.8,2.6c0,1,0.2,9.9,10.6,10.6c1.1,0.1,11.3,0.3,12.5-10.7c0.2-1.4,1.5-2.5,3.1-2.3c1.5,0.1,2.7,1.4,2.5,2.8
						C277.9,299.3,267.7,302.4,261.7,302.4z"/>
					<polygon class="st13" points="300.9,382.9 301.6,365.5 251.2,370.7 250,382.7 					"/>
					<polygon class="st13" points="302.4,344.8 289.7,317.9 286.9,351.9 302.3,349.5 					"/>
				</g>
				<g>
					<path class="st3" d="M340.9,353.8l-24.3-56.3c-0.1-0.1-0.1-0.2-0.2-0.3l0,0l0,0c-2.8-5.1-8.3-8.6-14.5-8.6
						c-9.2,0-16.6,7.4-16.6,16.6c0,2.8,0.7,5.4,1.9,7.7h0l0.1,0.1c0,0.1,0.1,0.2,0.1,0.2l26.3,55.5c4.1,7.1,13,9.8,20.4,6.1l0,0
						C341.9,371,344.9,361.5,340.9,353.8z"/>
					<g>
						<g>
							<polygon class="st15" points="247.6,366.5 286.4,360.9 276.5,376.5 245.4,379.5 							"/>
							<path class="st15" d="M245,364.6c5.8,3.7,7.7,9.3,2.1,13.7c-5.5,4.5-14.7,5.1-20.5,1.3c-5.8-3.7-6-9.3-0.5-13.7
								C231.7,361.4,239.2,360.8,245,364.6z"/>
						</g>
						<path class="st3" d="M254.7,356.9l69-10.7c7.7-1.3,16.8,4.8,18.6,12.3l0,0c2.1,8.7-3.9,17.2-12.8,18.1l-70.5,4.7L254.7,356.9z
							"/>
					</g>
				</g>
			</g>
			<g>
				<g>
					<path class="st15" d="M278.7,252.6l-5,34.8c-0.9,6.2-6.4,10.6-12.6,10.1l0,0c-6.7-0.5-11.6-6.4-10.9-13.1l3.1-29.4L278.7,252.6
						z"/>
					<path class="st16" d="M276.3,259.2c0,0-4.6,26-25.4,18.6l1.1-10.6L276.3,259.2z"/>
				</g>
				<g>
					<path class="st16" d="M244.5,221.1c0,0-12.4,7-3.7,19.3c8.8,12.3,10.9-18.4,10.9-18.4L244.5,221.1z"/>
					<path class="st16" d="M282,251.4c0,0,18.1-20.1-2.7-28.2l-1.8,28.9L282,251.4z"/>
					<path class="st15" d="M256.4,272.9l0.7,0.1c10.7,1.3,20.4-6.2,21.7-16.9l2.7-21.8c0.3-2.8-1.6-5.3-4.4-5.6l-25.4-3.2
						c-4.9-0.6-9.4,2.9-10,7.8l-2.2,17.9C238.2,261.9,245.7,271.6,256.4,272.9z"/>
					<g>
						<path class="st16" d="M259.5,247.5c0,0.9,0.6,1.6,1.5,1.7c0.9,0,1.6-0.6,1.7-1.5c0-0.9-0.6-1.6-1.5-1.7
							C260.3,245.9,259.6,246.6,259.5,247.5z"/>
						<path class="st16" d="M244.7,245.6c0,0.9,0.6,1.6,1.5,1.7c0.9,0,1.6-0.6,1.7-1.5c0-0.9-0.6-1.6-1.5-1.7
							C245.5,244.1,244.7,244.8,244.7,245.6z"/>
						<path class="st17" d="M250.6,249l-1,3.7c0,0,0,2.4,3.5,1.9"/>
						<path class="st16" d="M266,242.1c-0.1,0-0.2,0-0.3,0l-7.1-1.1c-0.8-0.1-1.3-0.9-1.2-1.7c0.1-0.8,0.9-1.3,1.7-1.2l7.1,1.1
							c0.8,0.1,1.3,0.9,1.2,1.7C267.3,241.5,266.7,242,266,242.1z"/>
						<path class="st16" d="M248.4,239.6c-0.1,0-0.2,0-0.3,0l-4.3-0.7c-0.8-0.1-1.3-0.9-1.2-1.7c0.1-0.8,0.9-1.3,1.7-1.2l4.3,0.7
							c0.8,0.1,1.3,0.9,1.2,1.7C249.7,239.1,249.1,239.6,248.4,239.6z"/>
						<path class="st9" d="M246.2,256.6l12.8,2c0,0-2,4.6-8.9,2.9C246.2,260.6,246.2,256.6,246.2,256.6z"/>
					</g>
					<path class="st16" d="M278.9,223.7l0.3-0.5c0,0-4.3-1.4-5.9-6.8c-0.2-1.1-0.6-2.4-1.2-3.8c-3.6-8.8-18.5-10.7-25.2-5.1
						c-6.7,5.6-6.6,15.3-0.2,22.1c5.2,5.5,15.9,3.3,19.7,2.3c0.9-0.2,1.9-0.2,2.8,0l2.1,0.6c-1.2,5.7,2.3,10.1,2.3,10.1l-1,8.7
						l2.1,0.3l5-1.9l5.8-15.8C285.7,233.9,283.9,223.1,278.9,223.7z"/>
					<path class="st15" d="M274.9,251.6c-0.4,3.4,2,6.6,5.4,7c3.4,0.4,6.6-2,7-5.4c0.4-3.4-2-6.6-5.4-7
						C278.4,245.7,275.3,248.2,274.9,251.6z"/>
				</g>
			</g>
		</g>
		<g>
			<g>
				<path class="st2" d="M232.5,378.3h-53.7c-1.2,0-2.2,1-2.2,2.2l0,0c0,1.2,1,2.2,2.2,2.2h53.7c1.2,0,2.2-1,2.2-2.2l0,0
					C234.7,379.3,233.7,378.3,232.5,378.3z"/>
				<path class="st18" d="M254.4,378.3h-33c-1.2,0-2.2,1-2.2,2.2l0,0c0,1.2,1,2.2,2.2,2.2h33c1.2,0,2.2-1,2.2-2.2l0,0
					C256.6,379.3,255.6,378.3,254.4,378.3z"/>
			</g>
			<g>
				<path class="st18" d="M226.1,362H111.2c-2.4,0-4.3-1.9-4.3-4.3v-72c0-2.4,1.9-4.3,4.3-4.3h114.8c2.4,0,4.3,1.9,4.3,4.3v72
					C230.4,360.1,228.5,362,226.1,362z"/>
				<path class="st2" d="M223.3,362H108.5c-2.4,0-4.3-1.9-4.3-4.3v-72c0-2.4,1.9-4.3,4.3-4.3h114.8c2.4,0,4.3,1.9,4.3,4.3v72
					C227.7,360.1,225.7,362,223.3,362z"/>
			</g>
			<g>
				<polygon class="st19" points="173.9,317.9 203.5,362 160.9,362 				"/>
				<g>
					<path class="st10" d="M152.7,316.7h19c1.7,0,3,1.6,2.6,3.2l-12.3,60.5c-0.3,1.3-1.4,2.2-2.6,2.2h-20c-1.7,0-3-1.6-2.6-3.3
						l13.2-60.5C150.3,317.6,151.4,316.7,152.7,316.7z"/>
					<path class="st10" d="M180.5,378.3h-35.1v4.3h35.1c1.2,0,2.2-1,2.2-2.2l0,0C182.6,379.3,181.7,378.3,180.5,378.3z"/>
				</g>
			</g>
		</g>
	</g>
	<g>
		<line class="st20" x1="235" y1="400.5" x2="356.8" y2="400.5"/>
		<line class="st20" x1="49.9" y1="382.9" x2="450.1" y2="382.9"/>
	</g>
</g>
</svg>
