<?xml version="1.0" encoding="utf-8"?>
<!-- Generator: Adobe Illustrator 27.3.1, SVG Export Plug-In . SVG Version: 6.00 Build 0)  -->
<svg version="1.1" id="Layer_1" xmlns="http://www.w3.org/2000/svg" xmlns:xlink="http://www.w3.org/1999/xlink" x="0px" y="0px"
	 viewBox="0 0 500 500" style="enable-background:new 0 0 500 500;" xml:space="preserve">
<style type="text/css">
	.st0{fill:none;stroke:#231B22;stroke-width:0.3032;stroke-miterlimit:10;}
	.st1{fill:none;stroke:#E1B2B2;stroke-width:0.4866;stroke-miterlimit:10;}
	.st2{fill:#FBE5E0;}
	.st3{fill:none;stroke:#E1B2B2;stroke-width:0.5026;stroke-miterlimit:10;}
	.st4{fill:none;stroke:#FFFFFF;stroke-width:0.4755;stroke-miterlimit:10;}
	.st5{fill:#006BE3;}
	.st6{fill:#F7C12D;}
	.st7{fill:#13C992;}
	.st8{fill:none;stroke:#FFFFFF;stroke-width:0.4919;stroke-miterlimit:10;}
	.st9{fill:#FB7341;}
	.st10{fill:none;stroke:#E1B2B2;stroke-width:0.5207;stroke-miterlimit:10;}
	.st11{fill:#FFFFFF;}
	.st12{fill:none;stroke:#FFFFFF;stroke-width:0.4991;stroke-miterlimit:10;}
	.st13{enable-background:new    ;}
	.st14{fill:none;stroke:#10BD83;stroke-width:0.5412;stroke-miterlimit:10;}
	.st15{fill:none;stroke:#10BD83;stroke-width:0.5811;stroke-miterlimit:9.9998;}
	.st16{fill:#F4A4A8;}
	.st17{fill:#231B22;}
	.st18{fill:#F06532;}
	.st19{fill:none;stroke:#F06532;stroke-width:0.5;stroke-miterlimit:10;}
	.st20{fill:#A6614E;}
	.st21{fill:none;stroke:#8B453A;stroke-width:0.5259;stroke-linecap:round;stroke-linejoin:round;stroke-miterlimit:10;}
	.st22{fill:#E9B023;}
	.st23{fill:none;stroke:#E9B023;stroke-width:0.5;stroke-miterlimit:10;}
</style>
<g>
	<g>
		<line class="st0" x1="60" y1="385.4" x2="431.1" y2="385.4"/>
		<line class="st0" x1="198.7" y1="400.5" x2="360.9" y2="400.5"/>
	</g>
	<g>
		<g>
			<path class="st1" d="M366.8,333.9H102.4c-3.5,0-6.3-2.8-6.3-6.3V164.4c0-3.5,2.8-6.3,6.3-6.3h264.4c3.5,0,6.3,2.8,6.3,6.3v163.1
				C373.1,331,370.3,333.9,366.8,333.9z"/>
			<path class="st2" d="M382.1,320.6H117.7c-3.5,0-6.3-2.8-6.3-6.3V151.2c0-3.5,2.8-6.3,6.3-6.3h264.4c3.5,0,6.3,2.8,6.3,6.3v163.1
				C388.4,317.8,385.6,320.6,382.1,320.6z"/>
		</g>
		<g>
			<path class="st3" d="M248.3,295.5H131.3c-1.7,0-3.1-1.4-3.1-3.1V178.6c0-1.7,1.4-3.1,3.1-3.1h117.1c1.7,0,3.1,1.4,3.1,3.1v113.8
				C251.4,294.1,250,295.5,248.3,295.5z"/>
			<path class="st4" d="M375.9,203.9v71c0,2.2-1.8,4-4,4h-62.8c-2.2,0-4-1.8-4-4v-71c0-2.2,1.8-4,4-4h62.8
				C374.1,199.9,375.9,201.7,375.9,203.9z"/>
			<g>
				<path class="st4" d="M232.5,280.1h-86.9c-1.6,0-3-1.3-3-3v-47.7c0-1.6,1.3-3,3-3h86.9c1.6,0,3,1.3,3,3v47.7
					C235.4,278.8,234.1,280.1,232.5,280.1z"/>
				<g>
					<rect x="156.3" y="234.1" class="st5" width="11.7" height="40.1"/>
					<rect x="174.2" y="251.6" class="st6" width="11.7" height="22.5"/>
					<rect x="192.1" y="238.3" class="st5" width="11.7" height="35.8"/>
					<rect x="210" y="248.5" class="st7" width="11.7" height="25.6"/>
				</g>
				<g>
					<line class="st8" x1="142.6" y1="207.6" x2="213.9" y2="207.6"/>
					<line class="st8" x1="142.6" y1="216.8" x2="182.8" y2="216.8"/>
				</g>
			</g>
			<g>
				<path class="st5" d="M136.8,155.5c0,1.9-1.6,3.5-3.5,3.5c-1.9,0-3.5-1.6-3.5-3.5s1.6-3.5,3.5-3.5
					C135.2,152,136.8,153.6,136.8,155.5z"/>
				<path class="st9" d="M148.4,155.5c0,1.9-1.6,3.5-3.5,3.5s-3.5-1.6-3.5-3.5s1.6-3.5,3.5-3.5C146.9,152,148.4,153.6,148.4,155.5z"
					/>
				<path class="st3" d="M160.1,155.5c0,1.9-1.6,3.5-3.5,3.5s-3.5-1.6-3.5-3.5s1.6-3.5,3.5-3.5C158.5,152,160.1,153.6,160.1,155.5z"
					/>
			</g>
		</g>
	</g>
	<g>
		<g>
			<path class="st10" d="M197.1,99.5h-21.2c-1.1,0-2,0.9-2,2v11.9c0,1.1,0.9,2,2,2h8.6l7.3,8.1v-7.8l5.3-0.1c1.1,0,1.9-0.9,1.9-2
				v-12.1C199.1,100.4,198.2,99.5,197.1,99.5z"/>
			<path class="st10" d="M76.3,285.3c0,3-2.4,5.4-5.3,5.4c-2.9,0-5.3-2.4-5.3-5.4s2.4-5.4,5.3-5.4C73.9,279.9,76.3,282.3,76.3,285.3
				z"/>
			<path class="st10" d="M427.2,328.6c0,2.2-1.7,3.9-3.9,3.9s-3.9-1.8-3.9-3.9c0-2.2,1.7-3.9,3.9-3.9S427.2,326.5,427.2,328.6z"/>
			<rect x="327" y="111.9" class="st10" width="8" height="8.1"/>
		</g>
		<g>
			<path class="st6" d="M405.8,185.4h-46.7c-3.4,0-6.2-2.8-6.2-6.2v-46.7c0-3.4,2.8-6.2,6.2-6.2h46.7c3.4,0,6.2,2.8,6.2,6.2v46.7
				C412,182.7,409.2,185.4,405.8,185.4z"/>
			<g>
				<path class="st11" d="M382.4,139.2v16.6l-14.2,8.6c2.9,4.8,8.2,8.1,14.2,8.1c9.2,0,16.6-7.5,16.6-16.6
					C399.1,146.7,391.6,139.2,382.4,139.2z"/>
				<g>
					<path class="st5" d="M370,144.9c-2.6,2.9-4.2,6.8-4.2,11c0,2.1,0.4,4.1,1.1,5.9l12.7-7.3L370,144.9z"/>
				</g>
			</g>
		</g>
		<g>
			<path class="st5" d="M187.9,197.3H80.6c-2,0-3.6-1.6-3.6-3.6v-24c0-2,1.6-3.6,3.6-3.6h107.3c2,0,3.6,1.6,3.6,3.6v24
				C191.5,195.7,189.9,197.3,187.9,197.3z"/>
			<g>
				<line class="st12" x1="115.8" y1="176.3" x2="175.9" y2="176.3"/>
				<line class="st12" x1="115.8" y1="185.8" x2="149.1" y2="185.8"/>
			</g>
			<polygon class="st5" points="179.3,193.2 179.3,209.9 161.5,193.2 			"/>
			<g>
				<polygon class="st12" points="91.7,179 104.3,179 104.4,189.8 91.7,189.8 				"/>
				<path class="st12" d="M94.8,179v-3.3c0-1.8,1.5-3.3,3.3-3.3l0,0c1.8,0,3.3,1.5,3.3,3.3v3.3"/>
			</g>
		</g>
		<g>
			<path class="st7" d="M440,253.6v41.6c0,2.3-1.8,4.1-4.1,4.1h-77.5c-2.3,0-4.1-1.8-4.1-4.1v-41.6c0-2.3,1.8-4.1,4.1-4.1h77.5
				C438.2,249.5,440,251.3,440,253.6z"/>
			<g>
				<g class="st13">
					<path class="st11" d="M396,283.5v-2.3c-0.8,0-1.6-0.1-2.4-0.2c-0.8-0.1-1.4-0.3-1.9-0.5v-1.8c0.5,0.2,1.2,0.4,1.9,0.6
						c0.8,0.2,1.6,0.3,2.3,0.3v-4.8c-1-0.3-1.8-0.6-2.4-0.9c-0.6-0.3-1.1-0.8-1.4-1.3c-0.3-0.5-0.5-1.1-0.5-1.8
						c0-0.7,0.2-1.4,0.5-1.9c0.4-0.5,0.9-0.9,1.5-1.2c0.6-0.3,1.4-0.5,2.3-0.5v-1.9h1.3v1.9c0.8,0,1.5,0.1,2.1,0.3
						c0.6,0.2,1.2,0.3,1.8,0.6l-0.6,1.5c-0.5-0.2-1-0.4-1.6-0.5s-1.2-0.2-1.7-0.3v4.8c1,0.3,1.8,0.6,2.5,0.9
						c0.7,0.3,1.2,0.7,1.5,1.2c0.3,0.5,0.5,1.1,0.5,1.8c0,1.1-0.4,1.9-1.2,2.6c-0.8,0.7-1.9,1.1-3.3,1.2v2.4H396z M396,272.9v-4.3
						c-0.5,0-1,0.1-1.4,0.3c-0.4,0.2-0.7,0.4-0.8,0.7c-0.2,0.3-0.3,0.6-0.3,1c0,0.4,0.1,0.8,0.2,1.1s0.4,0.5,0.8,0.7
						C394.9,272.6,395.4,272.8,396,272.9z M397.3,279.5c0.9-0.1,1.6-0.3,2-0.7c0.4-0.3,0.7-0.8,0.7-1.4c0-0.4-0.1-0.7-0.3-1
						c-0.2-0.3-0.5-0.5-0.8-0.7c-0.4-0.2-0.9-0.4-1.6-0.6V279.5z"/>
				</g>
			</g>
			<path id="XMLID_423_" class="st14" d="M360.8,262.8v22.8c3.4,0,6.1,2.9,6.1,6.5c0,0.1,0,0.1,0,0.2h59.9c0-0.1,0-0.1,0-0.2
				c0-3.6,2.7-6.5,6.1-6.5c0.2,0,0.4,0,0.5,0v-22.9c-0.2,0-0.3,0-0.5,0c-3.4,0-6.1-2.9-6.1-6.5H367
				C367,259.9,364.2,262.8,360.8,262.8z"/>
			<ellipse class="st15" cx="396.9" cy="274.4" rx="15.7" ry="15.7"/>
		</g>
	</g>
	<g>
		<g>
			<g>
				<g>
					
						<rect x="288" y="350" transform="matrix(0.9486 -0.3166 0.3166 0.9486 -98.3781 111.6343)" class="st16" width="12.7" height="17.2"/>
					<g>
						<g>
							<g>
								<path id="XMLID_102_" class="st17" d="M302.5,362.8l-15.3,5.1l-11,9.6c-2.1,2.1-2.8,5.3-1.9,8.1l0,0l32.2-10.7L302.5,362.8z
									"/>
							</g>
						</g>
						<path class="st17" d="M286.1,368.9l1.9-5.8c0,0,5.1-2.8,6.6,3.2L286.1,368.9z"/>
					</g>
				</g>
				<g>
					<g>
						<path class="st9" d="M276.5,238.6l-17.2,58.5c-0.8,2.6-0.8,5.5,0.1,8.1l23.7,52.6l19.4-6.6l-17.1-50.1l22.5-64L276.5,238.6z"
							/>
						<path class="st18" d="M295.7,271.9l-0.9-13.3c0,0-9.6,22.1-9.5,42.5L295.7,271.9z"/>
					</g>
					<polygon class="st18" points="278.6,351.5 281.9,358.6 304.6,351 301.9,343.5 					"/>
				</g>
			</g>
			<g>
				<g>
					<polygon class="st16" points="312.1,374.6 324.8,374.6 323.2,354.2 310.5,354.2 					"/>
					<g>
						<g>
							<g>
								<path id="XMLID_103_" class="st17" d="M324.8,372.5h-16.1l-13.4,5.6c-2.7,1.4-4.3,4.1-4.3,7.1l0,0h34.9L324.8,372.5z"/>
							</g>
						</g>
						<path class="st17" d="M307.3,373.2l3.6-4.9c0,0,5.7-1,5.2,5.1L307.3,373.2z"/>
					</g>
				</g>
				<g>
					<g>
						<path class="st9" d="M319.4,237.8c0,0,3.6,10.5,2.5,27.3l5.1,96.6h-19.2l-10.9-63l-3.4-61.1L319.4,237.8z"/>
						<g>
							<line class="st19" x1="320.6" y1="242.8" x2="275.5" y2="242.8"/>
							<path class="st19" d="M313,246.9c0,0-0.3,9.2,6.3,11.8"/>
							<line class="st19" x1="279.1" y1="242.8" x2="279.1" y2="238.9"/>
							<line class="st19" x1="312.9" y1="242.8" x2="312.9" y2="238.9"/>
							<line class="st19" x1="294.1" y1="242.8" x2="294.6" y2="252.7"/>
						</g>
					</g>
					<polygon class="st18" points="304.8,354 305.8,361.7 329.3,361.7 328.8,353.8 					"/>
				</g>
			</g>
		</g>
		<g>
			<g>
				<path class="st20" d="M305.4,154.6l-0.6,21c-0.1,3.7-3.1,6.8-6.8,6.9l0,0c-4,0.2-7.3-3-7.4-7l-0.2-17.7L305.4,154.6z"/>
			</g>
			<g>
				<path class="st17" d="M284.1,137.8c0,0-10.6,0-2.3,14.1l2.3-7V137.8z"/>
				<path class="st20" d="M293.5,170.8L293.5,170.8c-7,0-12.7-4.2-12.7-11.2v-14c0-3,2.5-5.5,5.5-5.5h14.4c3,0,5.5,2.5,5.5,5.5v12
					C306.2,164.6,299.4,170.8,293.5,170.8z"/>
				<path class="st17" d="M314.1,140.5c0-2.6-2.3-3.9-4.7-4.1c-0.5-3.2-3.6-7.4-7.3-7.4c-1.6,0-3.1,0.5-4.4,1.3
					c-1.3-1.2-3.2-1.9-5.2-1.9c-1.8,0-3.5,0.6-4.8,1.6c-4.9-3.7-15.4,2.3-8.6,10c3.3,3.7,14.7,2.1,20.4,1.8c0.2,0.1,0.3,0.1,0.5,0.1
					c-2.4,7.4,4.2,11,4.2,11h5c0,0,2.2-5.3,2.6-8.8C313.1,143.4,314.1,142.3,314.1,140.5z"/>
				<path class="st20" d="M311.8,154.5c0,2.5-2,4.6-4.6,4.6c-2.5,0-4.6-2-4.6-4.6c0-2.5,2-4.6,4.6-4.6
					C309.8,149.9,311.8,152,311.8,154.5z"/>
				<path class="st17" d="M301.4,147.9c0,0,0.9,9.3-1,12.1c-1.9,2.8-3-0.7-11-0.9c-4.7-0.1-7,0.9-8.1,1.6c-0.6,0.4-0.5,1.2-0.3,1.9
					c0.6,2.4,2.5,8.1,10.2,8.6c7.5,0.6,15.2-3.8,13.8-14.4c-1.5-12,2.9-16.7,2.9-16.7L301.4,147.9z"/>
				<g>
					<path class="st17" d="M292.8,153.1c0,0.6,0.5,1,1.1,0.9s1-0.5,0.9-1.1c0-0.6-0.5-1-1.1-0.9C293.2,152,292.8,152.5,292.8,153.1z
						"/>
					<path class="st17" d="M283.3,153c0,0.6,0.5,1,1.1,0.9c0.6,0,1-0.5,0.9-1.1s-0.5-1-1.1-0.9C283.7,152,283.3,152.4,283.3,153z"/>
					<path class="st21" d="M287,154l-0.3,2.7c0,0,0.2,1.5,2.3,0.9"/>
					<path class="st17" d="M296.6,150.1c-0.1,0-0.1,0-0.2,0l-4.6-0.2c-0.5,0-0.9-0.5-0.9-1c0-0.5,0.4-0.9,1-0.9l4.6,0.2
						c0.5,0,0.9,0.5,0.9,1C297.3,149.6,297,150,296.6,150.1z"/>
					<path class="st17" d="M285.3,149.8c-0.1,0-0.1,0-0.2,0l-2.8-0.1c-0.5,0-0.9-0.5-0.9-1s0.5-0.9,1-0.9l2.8,0.1
						c0.5,0,0.9,0.5,0.9,1C286,149.4,285.7,149.7,285.3,149.8z"/>
					<path class="st11" d="M285.3,160.9h7.5c0,0-0.7,2.9-4.5,2.6C285.7,163.3,285.3,160.9,285.3,160.9z"/>
				</g>
			</g>
		</g>
		<g>
			<g>
				<g>
					<g>
						<polygon class="st20" points="222.2,203.6 230.3,205.7 227.7,214.9 220.1,212.8 						"/>
						<path class="st20" d="M224.7,206.1c0,4.5-3.7,8.1-8.2,8.1c-4.5,0-8.1-3.7-8.1-8.2c0-4.5,3.7-8.1,8.2-8.1
							C221.1,197.9,224.7,201.6,224.7,206.1z"/>
						<path class="st20" d="M216.2,197.9l-8.5-2.1c-0.7-0.2-1.5,0.2-1.7,0.9l0,0c-0.2,0.6,0.1,1.2,0.6,1.5l8.7,3.9L216.2,197.9z"/>
					</g>
					<path class="st6" d="M261.5,209.1l-32.1-6.4l-2.5,15.1l33.4,6.3c4.9,0.4,8.8-3.9,8-8.8l0,0C267.7,212,264.9,209.4,261.5,209.1z
						"/>
				</g>
				<g>
					<path class="st6" d="M275.3,179.7c0,0-11.7,16-20,35c-0.9,2.1-0.7,4.6,0.6,6.5l0,0c2.9,4.4,8.9,3.4,11.8-0.7
						c0,0,22.2-30.5,21.3-31.7C288.6,188.4,275.3,179.7,275.3,179.7z"/>
					<path class="st22" d="M275.4,209.5c-0.3-1-0.6-12.1-0.6-12.1l-6.4,21.9L275.4,209.5z"/>
				</g>
			</g>
			<g>
				<path class="st6" d="M306.9,188.8c0,0,13.2,16.3,25.1,33.2c1.3,1.9,4.5,2.8,6.8,2.7l0,0c5.2-0.2,7.4-5.9,5.5-10.4
					c0,0-19.9-34.9-22.2-35.5C321.8,178.7,306.9,188.8,306.9,188.8z"/>
				<g>
					<g>
						<polygon class="st20" points="337.5,260 337.1,251.5 346.7,251.3 347,259.1 						"/>
						<path class="st20" d="M339.2,256.8c4.3-1.3,8.8,1.1,10.2,5.4c1.3,4.3-1.1,8.8-5.4,10.2c-4.3,1.3-8.8-1.1-10.2-5.4
							C332.5,262.7,334.9,258.1,339.2,256.8z"/>
					</g>
					<path class="st6" d="M331,220.8l3.6,32.5l15.2-2.2l-4.1-33.7c-1.1-4.8-6.4-7.2-10.8-4.9l0,0C331.8,214,330.2,217.4,331,220.8z"
						/>
				</g>
			</g>
			<g>
				<path class="st6" d="M297.9,175.7l-20.1,2.6c-2.1,0.3-3.5,2.1-3.3,4.2l2,56.4l43.2-0.1l4.2-56.3c0.3-2.1-1.3-4-3.4-4.3
					L297.9,175.7z"/>
				<polygon class="st22" points="322,208.2 314.3,198.2 320.3,230.5 				"/>
				<path class="st20" d="M290.9,176.6l-4.9,0.6c0,0-0.7,6.3,8.2,7.4c9,1.1,13.3-3.3,15.1-7.7l-11.7-2.1L290.9,176.6z"/>
				<path class="st23" d="M283.3,177.5c0,0-0.7,10.1,12.3,10.1c14.8,0,16.1-10.5,16.1-10.5"/>
			</g>
		</g>
	</g>
</g>
</svg>
